<svg width="100" height="100" viewBox="0 0 100 100" fill="none" xmlns="http://www.w3.org/2000/svg">
<g clip-path="url(#clip0_920_43)">
<path d="M50 100C77.6142 100 100 77.6142 100 50C100 22.3858 77.6142 0 50 0C22.3858 0 0 22.3858 0 50C0 77.6142 22.3858 100 50 100Z" fill="white"/>
<g clip-path="url(#clip1_920_43)">
<path d="M30.7062 54.1596L32.4524 41.0643L17.3064 30.5694L31.1451 35.2483L34.4134 30.2432L46.3471 22.8521L72.6519 37.3175L74.0152 59.3884L62.2962 75.6434L53.0331 77.0601L57.8234 68.3082V59.8824L54.3404 53.3021L50.8013 50.9627L45.3573 56.5643V62.4922L41.1086 66.4627L35.7113 67.1151L33.3208 68.4666L29.3989 67.2177L27.7648 61.3457L30.7062 57.2168V54.1596Z" fill="white"/>
<path d="M54.8915 30.4576C52.0061 29.8611 48.8499 30.0196 48.8499 30.0196C48.8499 30.0196 47.8134 34.801 41.3889 36.0592C41.4356 36.0592 49.877 38.9393 54.8915 30.4576Z" fill="#94A6C3"/>
<path d="M57.506 73.8447C60.989 71.1231 63.6036 67.3762 64.8082 63.1354C64.8642 62.977 65.3498 62.6973 65.6766 62.483C66.2182 62.1568 66.7692 61.8865 66.8719 61.4484C67.0867 60.1995 67.1987 58.8946 67.1987 57.5897C67.1987 57.105 66.7038 56.6111 66.2182 56.1264C65.8354 55.8002 65.4525 55.418 65.4525 55.1477C64.9109 50.1986 62.6232 45.5756 58.9721 42.2109L58.5892 42.593C62.1282 45.9111 64.416 50.4222 64.9109 55.2037C64.967 55.6417 65.3965 56.0705 65.8354 56.5085C66.2182 56.8347 66.6571 57.3287 66.6571 57.5431C66.6571 58.7921 66.5451 60.041 66.3303 61.29C66.2743 61.5043 65.7887 61.728 65.4058 61.9424C64.8642 62.2127 64.3693 62.483 64.2666 62.921C62.9593 67.544 59.9619 71.5705 55.9839 74.1802C56.6936 72.661 58.9254 67.7118 60.1206 65.2046L59.9058 57.161L52.9865 50.4782L49.0646 51.0188L44.7598 57.9812C44.7598 57.9812 46.7768 60.535 43.9381 63.5269C41.1647 66.4628 38.9797 67.1153 38.9797 67.1153L36.9627 66.0248C37.5603 65.2605 38.7649 64.1234 39.6894 63.3591C41.2675 62.0542 42.8456 61.9424 42.8456 60.535C42.9109 57.5897 39.7454 58.4006 39.7454 58.4006L38.5968 59.4911L38.1113 63.5175L35.7208 66.5094L35.45 66.4535L31.5281 65.5867C31.5281 65.5867 33.9279 64.3378 34.3108 62.921C34.6936 61.5602 33.5451 57.0491 33.489 56.7788C33.5451 56.8347 34.6376 57.7575 35.1232 59.2767C35.9916 56.8814 37.1401 54.5978 37.467 54.3835C37.7938 54.1691 42.2013 51.8296 42.2013 51.8296L40.7352 55.6883L41.8277 55.0918L44.4423 48.6793C44.4423 48.6793 47.0009 47.4304 48.9058 47.4304C52.3328 47.3744 57.4033 43.1895 55.1155 35.6865C55.7692 35.9568 67.096 41.6144 69.0569 52.7058C70.523 61.234 65.6766 69.2217 57.506 73.8447Z" fill="#94A6C3"/>
<path d="M44.545 31.6507C45.7963 30.178 45.3107 28.0063 45.3107 28.0063L41.6596 33.3936C41.6036 33.3936 42.9576 33.4495 44.545 31.6507Z" fill="#1B314F"/>
<path d="M32.2844 61.0662L32.7233 58.8945C32.7233 58.8945 30.921 62.0449 30.7623 62.4829C30.5942 62.9769 30.8744 63.8437 31.5747 63.7878C32.2844 63.7319 33.1528 62.6973 33.1528 61.9423C33.1528 60.9637 32.2844 61.0662 32.2844 61.0662Z" fill="#1B314F"/>
<path d="M64.6402 26.487C64.6402 26.487 67.3669 26.5989 70.1963 26.9251C63.8185 21.92 57.7769 20.4567 52.8745 20.4567C46.1233 20.4567 41.5477 23.2342 41.2676 23.3926L43.3966 20.0186C43.3966 20.0186 34.8992 19.1984 31.9017 28.174C31.136 26.2727 30.4357 23.4952 30.4357 23.4952C30.4357 23.4952 26.0188 27.3632 28.0918 33.7757C23.0214 31.9302 15.7846 29.3671 15.5044 29.3205C15.1216 29.2645 15.0095 29.4323 15.0095 29.4323C15.0095 29.4323 14.8975 29.5908 15.2243 29.8704C15.8312 30.3457 27.2701 38.7808 29.782 40.4119C29.2404 42.3692 29.2404 43.2919 29.782 44.2146C30.5477 45.4636 30.5944 46.116 30.4917 47.0388C30.3796 47.9615 29.3991 55.9585 29.1844 56.9371C28.9696 57.9158 26.6818 61.3923 26.7845 62.4269C26.8966 63.4615 28.3066 67.8608 29.5672 68.3547C30.4917 68.681 32.7795 69.3893 34.3015 69.3893C34.8431 69.3893 35.338 69.2775 35.5528 69.0631C36.4772 68.2522 36.748 68.0845 37.4017 68.0845C37.4577 68.0845 37.5138 68.0845 37.5604 68.0845C37.8312 68.0845 38.1581 68.1404 38.5409 68.1404C39.4093 68.1404 40.5579 67.9726 41.3703 67.2176C42.5655 66.0246 44.6385 64.3935 45.2922 63.6293C46.1139 62.5947 46.5435 61.1873 46.3287 59.7706C46.1606 58.4657 46.8703 57.3193 47.692 56.1822C48.7285 54.8214 50.6334 52.3794 50.6334 52.3794C54.3966 55.1942 56.7404 59.4909 56.7404 64.2724C56.7404 72.754 49.3355 79.6046 40.1844 79.6046C38.765 79.6046 37.411 79.4461 36.0477 79.1199C40.2404 80.5832 43.7795 81.0772 46.6742 81.0772C52.8278 81.0772 56.0961 78.8496 56.0961 78.8496C56.0961 78.8496 54.9569 80.3223 53.0986 82C53.1547 82 53.1547 82 53.1547 82C63.3423 80.5833 68.3007 72.2134 68.3007 72.2134C68.3007 72.2134 67.9178 74.935 67.4323 76.7805C80.9815 66.6118 78.6937 53.8893 78.6377 53.4606C78.7497 53.619 80.1131 55.2501 80.8134 56.1262C82.9985 33.7198 64.6402 26.487 64.6402 26.487ZM43.7795 62.2685C43.5647 62.5388 42.6402 63.359 41.9866 63.9555C41.3329 64.552 40.6233 65.1485 40.0817 65.6984C39.8669 65.9128 39.428 66.0246 38.7744 66.0246C38.5596 66.0246 38.3355 66.0246 38.1767 66.0246C38.0647 66.0246 37.962 66.0246 37.8499 66.0246C37.7379 66.0246 37.6818 66.0246 37.6351 66.0246C37.4671 66.0246 37.3083 66.0246 37.1402 66.0246C37.962 64.9341 40.3525 62.4362 41.1742 61.8956C42.1547 61.2432 42.6496 60.5908 42.0426 59.4537C41.445 58.3072 39.8669 58.5869 39.8669 58.5869C39.8669 58.5869 40.7913 58.2047 41.6131 58.2047C40.5766 57.9344 39.2693 58.2047 38.6716 58.8012C38.018 59.3977 38.1301 61.5228 37.8593 62.8743C37.5885 64.291 36.664 64.9994 35.2447 66.3042C34.4789 67.0126 33.9374 67.227 33.4985 67.227C32.574 67.0685 31.4815 66.7889 30.7158 66.5186C30.1742 65.8102 29.3525 63.4708 29.1377 62.4921C29.2964 61.9516 29.9501 60.8051 30.2769 60.1527C30.9306 58.9038 31.3134 58.1954 31.4255 57.543C31.6402 56.6202 32.3499 50.9068 32.6207 48.5207C33.3304 49.4434 34.3109 50.972 34.0868 51.9507C35.6649 49.7231 34.5256 47.5421 33.9747 46.6753C33.4891 45.8084 32.8355 44.0655 33.3771 42.22C33.9187 40.3746 35.8796 35.2576 35.8796 35.2576C35.8796 35.2576 36.5333 36.4041 37.4577 36.1804C38.3822 35.966 45.8431 24.7627 45.8431 24.7627C45.8431 24.7627 47.8601 29.162 45.7311 32.3776C43.5553 35.5839 41.4263 36.1804 41.4263 36.1804C41.4263 36.1804 44.4238 36.721 47.1971 34.7077C48.3363 37.3734 49.4289 40.1416 49.4849 40.5237C49.3168 40.9059 47.1411 46.1253 46.9263 46.4516C46.8143 46.5634 46.0579 46.7778 45.507 46.8896C44.5825 47.1599 44.0409 47.3277 43.8168 47.4861C43.434 47.8124 41.6878 52.5938 40.8754 54.9332C39.8949 55.2035 38.9144 55.7534 38.2048 56.8346C38.5876 56.5643 39.7829 56.3965 40.6606 56.294C41.4263 56.2381 43.7608 57.487 44.3677 59.8265C44.3677 59.8824 44.3677 59.8824 44.3677 59.9383C44.4891 60.7958 44.2183 61.616 43.7795 62.2685ZM38.6623 62.9209C39.1572 62.2125 39.1012 61.0195 39.1572 60.6374C39.2132 60.2552 39.316 59.5469 39.7548 59.4443C40.1937 59.3325 41.2302 59.5003 41.2302 60.2552C41.2302 60.9636 40.4645 61.122 39.9229 61.616C39.5307 61.9888 38.765 62.809 38.6623 62.9209ZM60.3915 52.5285C60.9331 49.7603 60.9891 47.365 60.8304 45.4077C62.9501 48.2318 64.2574 51.6617 64.6402 55.1942C64.6963 55.6323 65.1258 56.061 65.5647 56.4991C65.9475 56.8253 66.3864 57.2633 66.3864 57.5336C66.3864 58.7826 66.2744 60.0315 66.0596 61.2898C66.0036 61.4483 65.518 61.7279 65.1351 61.9422C64.5936 62.2125 64.0986 62.4828 63.9959 62.9209C62.8007 67.1058 60.2328 70.806 56.8058 73.4158C61.8669 68.1404 64.3134 59.435 60.3915 52.5285ZM56.9645 73.9004C60.5036 71.1789 63.2302 67.3761 64.4255 63.0793C64.4815 62.9209 64.9671 62.6413 65.2939 62.4269C65.8355 62.1566 66.3864 61.8304 66.4891 61.3923C66.7039 60.1434 66.816 58.8385 66.816 57.5336C66.816 57.049 66.3211 56.555 65.8355 56.0703C65.5647 55.7441 65.1258 55.362 65.1258 55.0917C64.6869 51.1211 63.1088 47.3743 60.6623 44.2706C59.5698 37.7462 55.2183 35.733 55.1063 35.6771C55.2183 35.8448 58.0477 39.9179 56.0868 44.6993C54.0698 49.5366 48.8966 48.7817 48.4577 48.8283C48.0188 48.8283 46.338 51 44.209 55.0264C43.9382 54.9146 42.7896 54.6443 41.4823 54.868C42.4628 52.1464 43.9382 48.2877 44.209 47.9615C44.3211 47.8496 45.1334 47.6353 45.6844 47.4768C46.7209 47.2065 47.2065 47.0388 47.3745 46.8244C47.4866 46.6566 48.0282 45.4077 48.5698 44.1028C49.0647 44.1028 50.316 43.9909 50.4187 43.935C50.5307 43.8232 51.5672 41.1668 51.5672 40.8406C51.5672 40.5703 49.4382 35.2949 48.6258 33.2817C49.0087 32.8436 49.3915 32.303 49.765 31.7065C60.9331 32.9089 69.6547 42.3692 69.6547 53.8334C69.6547 62.6413 64.4815 70.3121 56.9645 73.9004Z" fill="#1B314F"/>
<path d="M42.4721 44.5408C43.5086 43.3477 42.967 41.1201 41.0528 40.738C41.5477 39.6009 42.248 37.3174 42.248 37.3174C42.248 37.3174 36.692 46.0134 36.2064 46.1812C35.7115 46.349 35.2259 44.4382 35.2259 44.4382C34.1894 48.4088 36.9721 48.9494 37.2989 47.7004C38.821 47.309 41.4356 45.6779 42.4721 44.5408Z" fill="#1B314F"/>
<path d="M37.7283 46.6567L40.5576 41.8193C40.5576 41.8193 42.1918 42.6395 41.37 43.9444C40.3429 45.4637 37.7283 46.6567 37.7283 46.6567Z" fill="#FFD923"/>
<path d="M72.7547 69.063C71.9329 70.1535 71.0085 71.2906 69.9253 72.3811C76.9474 58.8943 70.2521 46.554 69.9813 46.0693C70.4762 46.5633 70.9618 47.1039 71.4007 47.5886C76.7886 53.563 77.4423 62.5387 72.7547 69.063Z" fill="#D82122"/>
<path d="M79.2912 51.7176C76.8354 45.1373 73.3523 39.5357 65.6766 34.484C58.2717 29.5907 50.3158 29.9729 49.8769 30.0288C49.8209 30.0288 49.7649 30.0288 49.7649 30.0288C50.0357 29.9169 50.3065 29.861 50.5773 29.8144C52.2674 29.2738 54.4432 28.8358 56.6282 28.5655C62.4084 27.7359 68.2352 29.6932 72.2131 33.8875C72.2691 33.9434 72.2691 33.9434 72.3252 33.9993C76.8447 38.7807 79.1885 44.7552 79.2912 51.7176Z" fill="#D82122"/>
<path d="M63.9304 24.7999C55.8158 23.2807 50.5866 24.0356 46.8235 25.4524C46.7114 25.0143 46.3286 24.1475 46.0017 23.4391C44.8719 24.7999 43.6673 26.431 42.9109 27.4656C40.8379 28.8823 39.9695 30.2431 39.9695 30.2431C41.1647 26.1607 44.6571 23.1222 48.9058 22.358C50.1011 22.1436 51.4084 22.0317 52.8277 22.0317C56.5815 22.0877 60.3354 23.0104 63.9304 24.7999Z" fill="#D82122"/>
<path d="M33.9186 35.2389C27.5501 35.0245 29.6698 27.6241 29.7819 27.1953C29.7819 27.2512 30.2114 33.0113 33.9186 35.2389Z" fill="#D82122"/>
<path d="M40.1841 21.9199C35.2817 24.8559 36.2622 31.8649 36.2622 31.8649C31.5746 24.7534 39.8013 22.0877 40.1841 21.9199Z" fill="#D82122"/>
<path d="M32.1257 37.1962C32.4525 37.4665 32.7793 37.9605 32.3965 38.6689C32.1817 39.051 31.8549 38.9951 31.36 38.7807C30.7063 38.4545 26.7844 36.171 23.2454 33.8315C27.2793 35.2483 31.36 36.7675 32.0136 37.0937C32.0136 37.0937 32.0696 37.1496 32.1257 37.1962Z" fill="white"/>
</g>
</g>
<defs>
<clipPath id="clip0_920_43">
<rect width="100" height="100" fill="white"/>
</clipPath>
<clipPath id="clip1_920_43">
<rect width="66" height="62" fill="white" transform="translate(15 20)"/>
</clipPath>
</defs>
</svg>
