<svg width="800" height="800" viewBox="0 0 800 800" fill="none" xmlns="http://www.w3.org/2000/svg">
<g clip-path="url(#clip0)">
<path d="M400 800C620.914 800 800 620.914 800 400C800 179.086 620.914 0 400 0C179.086 0 0 179.086 0 400C0 620.914 179.086 800 400 800Z" fill="#2EBAC6"/>
<path d="M585.704 552.165L450.446 225.155C442.818 208.247 431.477 200 416.529 200H404.57C389.622 200 378.281 208.247 370.653 225.155L311.787 367.629H267.251C253.952 367.732 243.127 378.454 243.024 391.856V392.165C243.127 405.464 253.952 416.289 267.251 416.392H291.168L234.982 552.165C233.952 555.155 233.333 558.248 233.333 561.444C233.333 569.073 235.704 575.052 239.931 579.691C244.158 584.33 250.24 586.598 257.869 586.598C262.921 586.495 267.766 584.949 271.787 581.959C276.117 578.97 279.106 574.64 281.477 569.691L343.333 416.289H386.22C399.519 416.186 410.343 405.464 410.446 392.062V391.444C410.343 378.145 399.519 367.32 386.22 367.217H363.333L410.549 249.588L539.209 569.588C541.58 574.537 544.57 578.867 548.9 581.856C552.921 584.846 557.869 586.392 562.818 586.495C570.446 586.495 576.426 584.227 580.756 579.588C585.086 574.949 587.354 568.97 587.354 561.341C587.457 558.248 586.941 555.052 585.704 552.165Z" fill="white"/>
</g>
<defs>
<clipPath id="clip0">
<rect width="800" height="800" fill="white"/>
</clipPath>
</defs>
</svg>
