<?xml version="1.0" encoding="UTF-8"?><svg id="Camada_2" xmlns="http://www.w3.org/2000/svg" xmlns:xlink="http://www.w3.org/1999/xlink" viewBox="0 0 100 141.52"><defs><style>.cls-1{fill:none;}.cls-2{clip-path:url(#clippath);}.cls-3{fill:#042627;}.cls-4{fill:#c2d82e;}.cls-5{clip-path:url(#clippath-1);}.cls-6{fill:url(#radial-gradient-2);}.cls-7{fill:url(#radial-gradient);}</style><clipPath id="clippath"><path class="cls-1" d="M20.81,84.24c.31,.8,1.09,1.3,1.95,1.29l5.14-.04c1.49-.01,17.87-.05,28.1-1.99,1.2-.23,1.97-1.38,1.67-2.56l-12.87-38.38c-.28-1.1-1.39-1.77-2.49-1.52-14.44,3.32-23.66,16.18-23.66,31.61,0,4.08,.77,7.99,2.16,11.59Z"/></clipPath><radialGradient id="radial-gradient" cx="2149.9" cy="-1607.26" fx="2149.9" fy="-1607.26" r="45.89" gradientTransform="translate(2198.22 -1561.36) rotate(-180)" gradientUnits="userSpaceOnUse"><stop offset="0" stop-color="#c2d82e"/><stop offset=".02" stop-color="#c2d82e" stop-opacity=".95"/><stop offset=".16" stop-color="#c2d82e" stop-opacity=".7"/><stop offset=".3" stop-color="#c2d82e" stop-opacity=".49"/><stop offset=".43" stop-color="#c2d82e" stop-opacity=".31"/><stop offset=".57" stop-color="#c2d82e" stop-opacity=".18"/><stop offset=".7" stop-color="#c2d82e" stop-opacity=".08"/><stop offset=".83" stop-color="#c2d82e" stop-opacity=".02"/><stop offset=".95" stop-color="#c2d82e" stop-opacity="0"/></radialGradient><clipPath id="clippath-1"><path class="cls-1" d="M79.19,60.18c-.31-.8-1.09-1.3-1.95-1.29l-5.14,.04c-1.49,.01-16.96-2.84-27.19-.91-1.2,.23-2.89,4.28-2.59,5.46l12.87,38.38c.28,1.1,1.39,1.77,2.49,1.52,14.44-3.32,23.66-16.18,23.66-31.61,0-4.08-.77-7.99-2.16-11.59Z"/></clipPath><radialGradient id="radial-gradient-2" cx="1568.48" cy="-503.11" fx="1568.48" fy="-503.11" r="46.13" gradientTransform="translate(-1518.11 598.5)" xlink:href="#radial-gradient"/></defs><g id="Layer_1"><g><rect class="cls-3" x="0" y="22.21" width="100" height="100" rx="50" ry="50"/><g><g class="cls-2"><circle class="cls-7" cx="48.33" cy="45.89" r="45.89"/></g><g class="cls-5"><circle class="cls-6" cx="50.37" cy="95.39" r="46.13"/></g><path class="cls-4" d="M59.14,85.58l-.19-.57s-.01-.09-.03-.14l-8.64-25.99c-.22-.65-.82-1.08-1.5-1.08h-6.07c-1.08,0-1.84,1.06-1.5,2.08l.19,.57s.01,.09,.03,.14l8.64,25.99c.22,.65,.82,1.08,1.5,1.08h6.07c1.08,0,1.84-1.06,1.5-2.08Z"/></g></g></g></svg>