<svg xmlns="http://www.w3.org/2000/svg" width="100" height="100" fill="none" viewBox="0 0 100 100">
  <path fill="#fff" d="M50 100c27.614 0 50-22.386 50-50S77.614 0 50 0 0 22.386 0 50s22.386 50 50 50z"/>
  <path fill="#fff" d="M58.886 25.85c.554.887.913 1.875 1.226 2.87-.447.315-.879.653-1.312.987.015-1.103.031-2.206-.03-3.307.028-.137.086-.414.116-.55z"/>
  <path fill="#EFDCE0" d="M42.486 11.336c2.434-.742 5.048-.777 7.537-.306 1.442.244 2.72 1.001 3.986 1.69 4.047 2.337 7.09 6.103 9.13 10.26 3.612-1.547 7.719-1.654 11.49-.653 5.51 1.45 10.423 4.822 14.06 9.173 1.35 1.695 2.657 3.493 3.414 5.539-1.165.77-2.321 1.56-3.522 2.276-.58-.64-1.107-1.323-1.677-1.97-.148-1.6-.689-3.14-1.458-4.544-1.505-2.894-3.8-5.476-6.787-6.874-1.193-.6-2.493-.947-3.8-1.193-.68-.62-1.61-.716-2.478-.845.177.228.359.459.536.689-4.575-.074-9.07 1.556-12.806 4.143-.312-.996-.671-1.984-1.225-2.872-.03.136-.088.414-.116.55-.187-3.51-.82-7.256-3.17-10.016-2.013-2.411-5.157-3.526-8.209-3.8-2.7-.236-5.567-.304-8.078.87-1.885.85-3.4 2.412-4.304 4.263-.962 1.9-1.407 4.018-1.606 6.126-.362 4.17.195 8.355 1.036 12.434-3.155-2.087-6.612-3.825-10.338-4.592-2.876-.596-6.124-.426-8.535 1.417.53-.894 1.45-1.524 2.38-1.95 2.977-.69 6.123-.619 9.087.115.911.213 1.778.58 2.692.785.015-5.103 1.382-10.282 4.368-14.464 2.05-2.887 4.969-5.238 8.393-6.25zM12.114 50.195c.649 3.287 2.368 6.475 5.178 8.392 3.133 2.195 7.096 2.733 10.836 2.612-.488.803-.974 1.609-1.4 2.448-3.664-1.097-7.324-2.413-10.526-4.546-2.739-1.824-5.056-4.348-6.4-7.366.661-.529 1.514-.709 2.211-1.17l.101-.37z"/>
  <path fill="#EA8397" d="M39.314 13.453c2.51-1.174 5.378-1.105 8.078-.87 3.05.274 6.196 1.389 8.208 3.8 2.35 2.76 2.983 6.507 3.17 10.017.061 1.1.045 2.204.03 3.307.433-.334.865-.672 1.312-.986 3.736-2.587 8.23-4.217 12.806-4.143a25.94 25.94 0 011.942.156c1.306.246 2.606.594 3.799 1.193 2.987 1.398 5.282 3.98 6.787 6.874.77 1.403 1.31 2.944 1.459 4.544.302 3.09-.931 6.148-2.835 8.538-1.47 1.926-3.371 3.465-5.349 4.84 2.81 2.11 5.23 4.813 6.727 8.01 1.267 2.732 1.779 5.826 1.347 8.815-.357 2.684-1.394 5.24-2.785 7.549-1.431 2.306-3.739 4.076-6.39 4.719-3.463.878-7.123.177-10.389-1.117-4.054-1.638-7.717-4.197-10.733-7.356-1.216 3.74-3.463 7.082-6.2 9.88-2.684 2.633-5.987 4.824-9.747 5.48-3.217.591-6.6-.223-9.313-2.013-2.897-1.917-5.53-4.582-6.48-8.016-1.253-4.384-.058-9.07 1.97-13.027.426-.839.912-1.645 1.4-2.448-3.74.121-7.703-.417-10.836-2.612-2.81-1.917-4.53-5.105-5.177-8.392-.346-1.472-.617-2.977-.568-4.496-.03-3.198.144-6.53 1.567-9.456.563-1.22 1.43-2.28 2.452-3.142 2.411-1.842 5.66-2.012 8.535-1.417 3.726.767 7.184 2.505 10.338 4.592-.841-4.078-1.397-8.264-1.036-12.434.199-2.108.644-4.226 1.606-6.126.904-1.85 2.419-3.412 4.305-4.263zm4.65 5.517c.15.982.435 1.938.654 2.906 1.358 5.806 2.364 11.723 2.516 17.695.238-.039.476-.063.718-.066-.318-5.043-.32-10.15-1.481-15.095-.512-1.913-1.117-3.894-2.407-5.44zM67.27 35.74c-4.033 2.111-7.283 5.45-9.958 9.082-1.483-2.569-4.087-4.46-6.996-5.052-2.282-.455-4.722-.162-6.795.91-3.116 1.546-5.35 4.7-5.804 8.146-3.032-1.524-6.159-2.951-9.485-3.69-3.128-.704-6.526-.532-9.421.92-.78.432-1.41 1.283-1.26 2.212.77-.21 1.422-.687 2.15-.992 2.016-.88 4.271-1.118 6.448-.898 4.06.418 7.796 2.187 11.453 3.88-.008 1.887.675 3.716 1.651 5.31 1.374 2.239 3.418 4.124 5.888 5.073-1.968 3.055-3.754 6.227-5.827 9.216-1.847 2.671-3.938 5.248-6.655 7.079 2.292.139 4.088-1.587 5.44-3.225 3.13-3.943 5.158-8.6 7.903-12.797 3.898 1.027 8.232-.71 10.606-3.91 6.057 2.403 11.94 5.375 17.116 9.367 1.75 1.312 3.313 2.846 4.876 4.369.084-.08.254-.242.338-.324-.033-.674-.125-1.465-.724-1.884-5.68-4.414-11.705-8.477-18.325-11.356-.89-.371-1.763-.806-2.71-1.017 1.943-3.067 2.171-7.141.608-10.415 1.173-1.359 2.239-2.817 3.539-4.063 3.438-3.504 7.845-6.255 12.759-6.998 1.458-.262 2.94-.196 4.414-.23-3.727-1.088-7.816-.495-11.229 1.288z"/>
  <path fill="#D26B7F" d="M43.964 18.97c1.29 1.545 1.895 3.527 2.407 5.44 1.161 4.945 1.163 10.052 1.481 15.094a4.92 4.92 0 00-.718.067c-.152-5.972-1.157-11.89-2.516-17.695-.219-.968-.504-1.925-.654-2.907zM67.27 35.74c3.413-1.782 7.502-2.375 11.229-1.288-1.474.035-2.956-.031-4.414.23-4.913.744-9.321 3.495-12.759 7-1.3 1.245-2.366 2.703-3.54 4.062-.151-.313-.306-.621-.474-.922 2.675-3.633 5.925-6.97 9.958-9.081zM18.81 46.056c2.896-1.452 6.294-1.624 9.422-.92 3.326.739 6.453 2.166 9.485 3.69-.06.475-.1.953-.115 1.431-3.656-1.692-7.393-3.461-11.453-3.879-2.177-.22-4.432.018-6.448.898-.728.305-1.38.781-2.15.992-.15-.93.48-1.78 1.26-2.212zM57.18 56.159c.947.21 1.82.646 2.71 1.017 6.62 2.88 12.643 6.942 18.324 11.356.6.42.691 1.21.724 1.884l-.337.324c-1.564-1.523-3.126-3.057-4.877-4.37-5.175-3.992-11.059-6.963-17.116-9.366.197-.277.386-.56.572-.845zM45.141 60.64c.283.1.57.192.861.274-2.745 4.197-4.773 8.853-7.902 12.797-1.353 1.638-3.149 3.363-5.44 3.225 2.717-1.832 4.807-4.409 6.654-7.08 2.073-2.988 3.86-6.16 5.827-9.215z"/>
  <g>
    <path fill="#FEFBFC" d="M72.38 23.89c.87.128 1.799.224 2.48.845a25.95 25.95 0 00-1.942-.157c-.178-.23-.36-.46-.537-.689z"/>
  </g>
  <g>
    <path fill="#FEECAC" d="M43.52 40.68c2.074-1.072 4.514-1.365 6.796-.91 2.908.592 5.513 2.483 6.996 5.052.168.301.322.61.475.922 1.563 3.274 1.335 7.348-.608 10.415-.185.285-.374.568-.572.845-2.373 3.2-6.707 4.937-10.605 3.91a14.31 14.31 0 01-.861-.273c-2.47-.949-4.514-2.834-5.888-5.074-.976-1.593-1.66-3.422-1.651-5.31.015-.478.054-.956.115-1.43.455-3.446 2.688-6.601 5.803-8.147z"/>
  </g>
</svg>
