<svg xmlns="http://www.w3.org/2000/svg" fill="none" viewBox="0 0 100 100">
  <path fill="url(#a)" d="M50 100c27.5 0 50-22.5 50-50S77.5 0 50 0 0 22.5 0 50s22.5 50 50 50z"/>
  <path fill="url(#b)" d="M50 19.687v19.687l3.438 9.063L50 45.312V55c5.625 7.187 12.813 13.124 21.25 17.5L50 19.686z"/>
  <path fill="url(#c)" d="M50.001 19.687v19.687l-3.438 9.063 3.438-3.125V55c-5.625 7.187-12.813 13.124-21.25 17.5l21.25-52.813z"/>
  <path fill="#F5CC02" d="M50 67.188c2.813 0 4.688-2.188 4.688-4.688 0-2.813-2.188-4.688-4.688-4.688-2.813 0-4.688 2.188-4.688 4.688 0 2.5 1.876 4.688 4.688 4.688z"/>
  <defs>
    <linearGradient id="a" x1="14.645" x2="85.355" y1="85.355" y2="14.645" gradientUnits="userSpaceOnUse">
      <stop stop-color="#102054"/>
      <stop offset="1" stop-color="#1A45B8"/>
    </linearGradient>
    <linearGradient id="b" x1="60.601" x2="60.601" y1="19.609" y2="73.34" gradientUnits="userSpaceOnUse">
      <stop stop-color="#fff"/>
      <stop offset="1" stop-color="#fff" stop-opacity=".6"/>
    </linearGradient>
    <linearGradient id="c" x1="39.401" x2="39.401" y1="72.965" y2="20.235" gradientUnits="userSpaceOnUse">
      <stop stop-color="#fff"/>
      <stop offset="1" stop-color="#fff" stop-opacity=".6"/>
    </linearGradient>
  </defs>
</svg>
