<svg xmlns="http://www.w3.org/2000/svg" width="100" height="100" fill="none" viewBox="0 0 100 100">
  <path fill="#D9327C" d="M30.45 3.948c10.17-4.35 21.797-5.1 32.473-2.277 10.957 2.887 20.82 9.67 27.484 18.838 5.893 8 9.24 17.8 9.593 27.728v3.451c-.323 9.446-3.343 18.784-8.72 26.564-6.377 9.329-15.983 16.408-26.813 19.629-4.25 1.321-8.684 1.925-13.117 2.119h-2.643c-10.074-.267-20.047-3.605-28.174-9.582-8.866-6.458-15.546-15.89-18.576-26.454C.767 59.98.2 55.84 0 51.695v-3.42C.303 39.852 2.717 31.515 7.073 24.3c5.394-9.025 13.7-16.267 23.377-20.352zm15.08 16.821c-2.093 1.068-3.62 3.044-4.377 5.243-1.666 5-3.443 9.963-5.13 14.96-3.466.02-6.93-.007-10.396.01-1.857.006-3.237 2.062-2.744 3.814.3 1.399 1.67 2.42 3.097 2.33 16.007.007 32.017.003 48.027 0 1.616.103 3.196-1.205 3.26-2.85.196-1.663-1.244-3.338-2.93-3.295-3.497-.01-6.99-.006-10.487 0-1.797-5.1-3.467-10.243-5.3-15.33-.943-2.492-2.953-4.628-5.517-5.456-2.446-.751-5.213-.614-7.503.574zM22.8 55.957c-.14 1.609 1.213 3.201 2.84 3.234 1.39.04 2.783-.003 4.173.01-1.31 3.752-2.58 7.517-3.913 11.258-.567 1.699.697 3.611 2.43 3.892 1.41.25 2.9-.654 3.377-1.996 1.603-4.36 3.003-8.795 4.613-13.15 9.167-.007 18.337.006 27.503-.007 1.52 4.352 3.047 8.704 4.59 13.047.45 1.605 2.347 2.593 3.91 1.972 1.557-.474 2.527-2.353 1.897-3.882-1.323-3.697-2.583-7.416-3.857-11.13 1.434-.027 2.874.04 4.307-.024 1.843-.093 3.233-2.15 2.663-3.905-.36-1.285-1.616-2.276-2.963-2.23-16.227 0-32.457-.006-48.683.008-1.54-.017-2.867 1.381-2.887 2.903z"/>
  <path fill="#D9327C" d="M47.12 27.678c.867-2.497 4.94-2.513 5.823-.027 1.554 4.436 3.044 8.895 4.614 13.327-5.01-.003-10.024 0-15.037 0 1.563-4.422 3.07-8.868 4.6-13.3z"/>
  <g>
    <path fill="#fff" d="M45.53 20.77c2.29-1.189 5.057-1.326 7.504-.575 2.563.828 4.573 2.964 5.516 5.457 1.834 5.087 3.504 10.23 5.3 15.33 3.497-.007 6.99-.01 10.487 0 1.687-.044 3.127 1.632 2.93 3.294-.063 1.645-1.643 2.954-3.26 2.85-16.01.004-32.02.007-48.027 0-1.426.09-2.796-.931-3.096-2.33-.494-1.752.886-3.808 2.743-3.814 3.467-.017 6.93.01 10.397-.01 1.686-4.997 3.463-9.96 5.13-14.96.756-2.199 2.283-4.175 4.376-5.243zm1.59 6.908c-1.53 4.432-3.036 8.878-4.6 13.3 5.014 0 10.027-.003 15.037 0-1.57-4.432-3.06-8.891-4.613-13.327-.884-2.486-4.957-2.47-5.824.027zM22.8 55.958c.02-1.523 1.347-2.92 2.887-2.904 16.227-.014 32.457-.007 48.684-.007 1.346-.047 2.603.945 2.963 2.23.57 1.755-.82 3.811-2.663 3.905-1.434.063-2.874-.004-4.307.023 1.273 3.715 2.533 7.433 3.856 11.13.63 1.53-.34 3.409-1.896 3.882-1.564.621-3.46-.367-3.91-1.972a2517.1 2517.1 0 01-4.59-13.047c-9.167.014-18.337 0-27.503.007-1.61 4.355-3.01 8.791-4.614 13.15-.477 1.342-1.966 2.246-3.377 1.996-1.733-.28-2.996-2.193-2.43-3.892 1.334-3.741 2.604-7.506 3.914-11.257-1.39-.014-2.784.03-4.174-.01-1.626-.034-2.98-1.626-2.84-3.234z"/>
  </g>
</svg>
