<svg width="800" height="800" viewBox="0 0 800 800" fill="none" xmlns="http://www.w3.org/2000/svg">
<path d="M400 800C620.914 800 800 620.914 800 400C800 179.086 620.914 0 400 0C179.086 0 0 179.086 0 400C0 620.914 179.086 800 400 800Z" fill="#2E3148"/>
<path d="M395.5 637C528.324 637 636 529.324 636 396.5C636 263.676 528.324 156 395.5 156C262.676 156 155 263.676 155 396.5C155 529.324 262.676 637 395.5 637Z" fill="#1B1E36"/>
<path d="M397 34C352.27 34 316 196.52 316 397C316 597.48 352.27 760 397 760C441.73 760 478 597.48 478 397C478 196.52 441.73 34 397 34ZM402.592 739.514C397.477 746.348 392.362 741.221 392.362 741.221C371.762 717.311 361.463 672.892 361.463 672.892C325.431 556.734 334.007 307.332 334.007 307.332C350.941 109.332 381.744 62.5589 392.226 52.1747C393.297 51.1149 394.706 50.4673 396.206 50.3458C397.706 50.2243 399.201 50.6368 400.428 51.5106C415.637 62.3065 428.394 107.456 428.394 107.456C466.062 247.531 462.651 379.064 462.651 379.064C466.062 493.516 443.775 621.632 443.775 621.632C426.62 718.998 402.592 739.514 402.592 739.514Z" fill="#6F7390"/>
<path d="M711.385 216.289C689.075 177.393 530.03 226.781 356.04 326.586C182.051 426.392 59.3208 538.838 81.6146 577.718C103.908 616.597 262.97 567.226 436.96 467.421C610.949 367.615 733.679 255.169 711.385 216.289V216.289ZM102.198 572.382C93.6564 571.306 95.5859 564.283 95.5859 564.283C106.064 534.479 139.406 503.41 139.406 503.41C222.242 414.256 442.874 297.55 442.874 297.55C623.051 213.691 679.016 217.229 693.213 221.14C694.67 221.547 695.937 222.456 696.788 223.708C697.639 224.959 698.019 226.471 697.862 227.977C696.155 246.581 663.268 280.135 663.268 280.135C560.61 382.655 444.804 445.185 444.804 445.185C347.223 505.151 224.978 549.532 224.978 549.532C131.961 583.063 102.201 572.382 102.201 572.382H102.198Z" fill="#6F7390"/>
<path d="M710.34 578.834C732.805 540.076 610.481 427.22 437.241 326.757C264 226.294 105.101 176.341 82.6557 215.165C60.2105 253.989 182.515 366.779 355.855 467.242C529.195 567.705 687.895 617.661 710.34 578.834ZM97.5418 230.141C94.2235 222.271 101.228 220.376 101.228 220.376C132.242 214.518 175.805 227.867 175.805 227.867C294.32 254.862 505.648 387.268 505.648 387.268C668.356 501.15 693.31 551.311 697.05 565.55C697.43 567.011 697.283 568.559 696.633 569.921C695.983 571.283 694.874 572.372 693.5 572.995C676.533 580.765 631.091 569.188 631.091 569.188C491.034 531.626 379.024 462.804 379.024 462.804C278.382 408.51 178.864 324.968 178.864 324.968C103.246 261.284 97.565 230.227 97.565 230.227L97.5418 230.141Z" fill="#6F7390"/>
<path d="M395.5 439C418.972 439 438 419.972 438 396.5C438 373.028 418.972 354 395.5 354C372.028 354 353 373.028 353 396.5C353 419.972 372.028 439 395.5 439Z" fill="#B7B9C8"/>
<path d="M570 258C583.807 258 595 246.359 595 232C595 217.641 583.807 206 570 206C556.193 206 545 217.641 545 232C545 246.359 556.193 258 570 258Z" fill="#B7B9C8"/>
<path d="M164 346C177.807 346 189 334.359 189 320C189 305.641 177.807 294 164 294C150.193 294 139 305.641 139 320C139 334.359 150.193 346 164 346Z" fill="#B7B9C8"/>
<path d="M345.5 659C359.031 659 370 647.359 370 633C370 618.641 359.031 607 345.5 607C331.969 607 321 618.641 321 633C321 647.359 331.969 659 345.5 659Z" fill="#B7B9C8"/>
</svg>
