<svg xmlns="http://www.w3.org/2000/svg" fill="none" viewBox="0 0 100 100">
  <path fill="url(#a)" d="M50 100c27.614 0 50-22.386 50-50S77.614 0 50 0 0 22.386 0 50s22.386 50 50 50z"/>
  <path fill="#fff" fill-rule="evenodd" d="M56.89 74v-.035h-.004c-6.584 0-13.168 0-19.752-.035-.693 0-1.733-.353-2.01-.882-.277-.493.034-1.55.381-2.186.762-1.41 1.56-2.802 2.357-4.195a200.685 200.685 0 0 0 2.357-4.195c.658-1.234 1.525-1.727 2.91-1.692 3.813.035 7.626.035 11.438 0 2.08-.035 2.6-.952 1.56-2.785-2.149-3.807-4.298-7.615-6.481-11.422-1.005-1.728-2.045-1.692-3.05.07l-.921 1.61c-1.667 2.91-3.327 5.807-4.936 8.755-.659 1.198-1.525 1.762-2.912 1.727-1.991-.044-3.97-.019-5.951.006-1.19.015-2.383.03-3.58.03-2.218 0-2.877-1.234-1.767-3.209 6.62-11.704 13.24-23.373 19.893-35.077 1.144-2.01 2.392-1.974 3.57.07 4.73 8.355 9.462 16.719 14.192 25.082 4.731 8.364 9.463 16.729 14.193 25.085 1.248 2.22.624 3.278-1.906 3.278H56.89z" clip-rule="evenodd"/>
  <defs>
    <linearGradient id="a" x1="21" x2="65" y1="10" y2="100" gradientUnits="userSpaceOnUse">
      <stop stop-color="#CD1BF8"/>
      <stop offset="1" stop-color="#7B1BF8"/>
    </linearGradient>
  </defs>
</svg>
