<svg width="800" height="800" viewBox="0 0 800 800" fill="none" xmlns="http://www.w3.org/2000/svg">
<path d="M400 800C620.914 800 800 620.914 800 400C800 179.086 620.914 0 400 0C179.086 0 0 179.086 0 400C0 620.914 179.086 800 400 800Z" fill="#E84142"/>
<path d="M530.99 414.079C542.873 393.584 562.047 393.584 573.93 414.079L647.928 543.787C659.811 564.281 650.089 581 626.323 581H477.246C453.751 581 444.028 564.281 455.641 543.787L530.99 414.079ZM387.855 164.371C399.737 143.876 418.642 143.876 430.525 164.371L446.999 194.034L485.889 262.258C495.341 281.674 495.341 304.596 485.889 324.011L355.447 549.719C343.564 568.056 323.849 579.652 301.973 581H193.677C169.911 581 160.189 564.551 172.072 543.787L387.855 164.371Z" fill="white"/>
</svg>
