<svg width="800" height="800" viewBox="0 0 800 800" fill="none" xmlns="http://www.w3.org/2000/svg">
<path d="M400 800C620.914 800 800 620.914 800 400C800 179.086 620.914 0 400 0C179.086 0 0 179.086 0 400C0 620.914 179.086 800 400 800Z" fill="#0089DB"/>
<path fill-rule="evenodd" clip-rule="evenodd" d="M550.168 222.66L254.235 519.504C248.374 529.599 236.651 540.149 236.651 501.92V436.534L311.872 363.593C311.872 363.593 339.485 388.731 351.989 391.271C364.559 393.811 372.048 391.271 377.063 371.147C382.078 351.023 214.053 260.433 214.053 260.433C200.767 253.725 174 251.836 174 298.141V547.183C174.847 564.767 186.569 600 226.687 600C266.805 600 445.706 408.79 530.109 313.185C545.153 297.229 575.241 284.009 575.241 358.448V476.782C576.935 496.059 568.729 523.086 522.555 476.782C476.445 430.477 462.378 421.424 449.809 421.424C449.809 421.424 437.239 426.439 437.239 436.534C437.239 446.628 497.416 501.92 497.416 501.92L545.088 547.183C571.855 566.46 625.323 577.401 625.323 466.687V298.141C627.082 246.17 614.382 158.315 550.168 222.66ZM209.103 373.622V308.235L264.265 333.374L209.103 373.622Z" fill="white"/>
</svg>
