<svg xmlns="http://www.w3.org/2000/svg" width="100" height="100" fill="none" viewBox="0 0 100 100">
  <g clip-path="url(#clip0_501_93)">
    <path fill="#7C0057" d="M50 100c27.614 0 50-22.386 50-50S77.614 0 50 0 0 22.386 0 50s22.386 50 50 50z"/>
    <path fill="#fff" fill-rule="evenodd" d="M51.299 11.902c-21.04-.758-39.325 16.017-39.427 37.997-.098 20.644 16.479 38.083 37.936 38.23 20.78.144 38.207-16.54 38.321-37.961.112-20.984-16.64-37.617-36.83-38.266zM49.992 89c-21.531.026-39.37-17.655-38.986-39.73.368-21.163 17.836-38.632 39.711-38.264 21.202.354 38.714 17.883 38.28 39.818C88.577 71.926 71.28 89.014 49.991 89z" clip-rule="evenodd"/>
    <path fill="#fff" fill-rule="evenodd" d="M52.803 18.396c.037-.706-.42-.605-.88-.57-.03.72-.518.452-.927.466-.046-.604-.395-.695-.71-.594-.26.28-.383.512-.561.57-.171.056-.543-.023-.577-.125-.117-.348-.33-.504-.632-.382-.188.077-.303.336-.491.563a85.49 85.49 0 00-.671.096c-.114-.656-.49-.64-.819-.497-.18.272-.258.519-.412.583-.175.073-.485.066-.62-.046-.637-.523-.86-.475-1.049.302l-.682.156c-.174-.48-.478-.515-.955-.406-5.466 1.255-10.266 3.78-14.463 7.485-.377.332-.387.569-.118.958.403.583.75 1.205 1.113 1.8-.065.088-.095.143-.137.185-3.736 3.718-6.347 8.102-7.845 13.158-.045.152-.325.324-.503.333-.748.037-1.5.016-2.256.016-1.172 3.563-1.277 11.226-.19 14.469.187.026.382.052.624.083 0 .289.093.727-.016.786-.536.287-.306.614-.112.903.242.088.557.198.593.37.053.256-.088.555-.147.835l-.192-.017.211.62h.6c.098.234.196.471.283.687l-.49.446.28.634.097-.125c.2.102.45.158.589.313.192.22.247.46-.066.727-.122.104.005.5.02.798l.66-.142c.135.242.253.454.388.7-.497.337-.467.704-.047 1.076l.502-.153c.153.248.278.455.42.689-.497.346-.402.694.013 1.061l.484-.195.455.653c-.135.194-.248.355-.372.529 3.183 4.646 7.24 8.238 12.29 10.794l1.427-2.308a30.566 30.566 0 008.592 2.727 28.9 28.9 0 006.463.322c.42-.027.63.07.732.5.13.554.348 1.087.496 1.639.084.317.22.43.56.366 1.342-.252 2.707-.405 4.03-.73 5.802-1.423 10.818-4.28 15.062-8.475 1.01-1 1.909-2.11 2.888-3.202-.674-.475-.195-.761.032-1.117.518.301.794.069.89-.256-.078-.36-.197-.587-.145-.764.053-.174.342-.447.42-.414.55.223.602-.217.808-.537-.606-.386-.247-.724.037-1.107.606.336.688-.135.866-.534-.635-.322-.258-.675-.062-1.044l.59.051.29-.658-.492-.367c.184-.239.382-.664.519-.645.59.08.545-.348.68-.687l-.49-.356c.159-.245.314-.667.444-.66.608.034.558-.385.612-.569-.158-.324-.326-.516-.319-.7.007-.179.201-.506.3-.502.529.024.523-.368.607-.684 1.137-4.317 1.397-8.687.715-13.102-.188-1.22-.483-2.424-.736-3.673-.486.076-.865.14-1.246.194-.398.054-.799.1-1.19.149-.05-.105-.081-.157-.098-.213-1.504-5.03-4.122-9.39-7.886-13.051-.252-.244-.233-.421-.068-.68.36-.56.701-1.133 1.067-1.73-4.689-4.218-10.08-6.848-16.214-7.956l.019.228-1.054.316c.02-.72-.315-.847-.83-.779-.064.6-.497.48-.998.416zM28.716 28.678l-1.404-2.308c12.651-12.524 33.267-11.806 45.172-.232l-1.136 1.868c1.48 1.936 2.975 3.746 4.305 5.67 1.5 2.173 2.574 4.583 3.364 7.108.129.413.307.553.735.465.596-.122 1.202-.193 1.923-.302.286 1.393.636 2.733.83 4.096 1.18 8.31-.398 16.07-5.025 23.083-5.156 7.816-12.444 12.54-21.647 14.291-.761.146-1.535.219-2.3.348-.41.07-.636-.042-.739-.474a13.734 13.734 0 00-.524-1.692c-.06-.158-.296-.366-.441-.359-5.114.269-9.973-.748-14.623-2.85-.017-.008-.04-.002-.14-.002l-1.395 2.253c-6.262-3.093-11.079-7.654-14.454-13.735-4.502-8.114-4.887-17.057-2.991-23.963.755 0 1.506-.012 2.255.007.314.007.462-.085.56-.405 1.469-4.836 3.988-9.05 7.52-12.663.041-.043.073-.096.154-.204z" clip-rule="evenodd"/>
    <path fill="#fff" fill-rule="evenodd" d="M15.321 49.933h-.972c.182-9.036 3.107-16.98 9.143-23.674 6.353-7.045 14.33-10.909 23.82-11.776.025.207.047.323.051.44.007.162.002.321.002.535-8.943.83-16.566 4.438-22.709 10.984-6.16 6.564-9.135 14.452-9.335 23.49zM70.397 78.161c.181.247.36.488.536.731-13.708 10.461-35.153 8.936-47.236-4.84l.68-.609c6.04 6.421 13.374 10.203 22.117 11.105 8.748.903 16.682-1.35 23.903-6.387zM84.383 59.52l-.793-.212c3.315-15.58-1.264-28.195-13.863-37.943l.465-.687c12.683 8.5 18.262 24.649 14.19 38.842z" clip-rule="evenodd"/>
    <path fill="#fff" fill-rule="evenodd" d="M25.55 32.125l-.573.761-1.376-1.025.562-1.74 1.387 2.004zM75.475 31.983l1.405-.98.55.774-1.405.983-.55-.777zM15.136 51.714c.195.259.477.492.566.783.11.366-.302.753-.701.728-.427-.027-.731-.297-.672-.696.041-.289.337-.54.52-.808l.287-.007zM76.91 34.18c-.202-.333-.328-.538-.49-.802l1.446-.908.515.803-1.47.908zM17.276 60.484c-.258.197-.498.514-.781.56-.428.07-.73-.235-.725-.696.004-.431.297-.728.693-.671.287.042.539.339.807.523l.006.284zM84.196 61.132c-.267.185-.513.457-.808.532-.373.094-.74-.335-.696-.73.046-.427.329-.717.725-.642.286.055.524.36.784.554l-.005.286zM74.97 31.302l-.575-.755 1.349-1.064c.195.254.374.487.58.752l-1.353 1.067zM54.045 15.263c-.264.185-.51.477-.799.529-.404.073-.692-.226-.703-.65-.012-.453.27-.774.71-.703.285.044.53.348.794.534 0 .096 0 .194-.002.29zM26.69 29.761l-.616.721c-.428-.362-.84-.708-1.31-1.103l.605-.74 1.32 1.122zM37.266 80.133l-.863-.382.69-1.56.873.366-.7 1.576zM24.487 33.578l-.533.795-1.428-.95.517-.802 1.444.957zM72.014 27.848l1.227-1.18.588.682-1.217 1.226-.598-.728zM79.239 39.035l-.332-.875 1.573-.642.366.875-1.607.642zM45.572 80.688c.366.068.619.117.926.176-.075.556-.143 1.084-.222 1.675l-.9-.141.196-1.71zM79.134 69.1c.19.264.464.502.548.797.1.352-.343.748-.723.708-.42-.045-.729-.312-.654-.716.052-.287.356-.53.547-.79h.282zM80.261 66.29c.275-.172.536-.456.826-.489.407-.044.66.274.67.7.01.391-.407.8-.756.673-.287-.103-.507-.392-.757-.599l.017-.284zM50.068 82.733c-.978.028-.946.028-.956-1.138-.006-.755.47-.524.872-.522.031.06.08.112.081.163.006.486.003.97.003 1.497zM39.95 81.13c.167-.552.322-1.07.49-1.631l.908.289-.522 1.636-.876-.294zM27.9 28.432l-.634.698-1.286-1.226c.25-.219.463-.402.716-.62l1.204 1.148zM18.644 40.92l.293-.904c.563.18 1.073.341 1.623.515l-.264.883-1.652-.494zM39.64 79.214l-.606 1.609-.885-.326.6-1.597.89.314zM42.17 80.043l.91.197c-.143.57-.272 1.093-.416 1.665-.314-.087-.597-.164-.904-.25.14-.553.27-1.057.41-1.612zM21.544 35.041l.474-.824 1.484.873-.477.817-1.48-.866zM44.53 82.286l-.914-.19c.097-.544.19-1.053.297-1.64l.916.124-.298 1.706zM47.357 80.994h.927c-.037.562-.072 1.08-.107 1.633h-.935c.039-.55.074-1.067.115-1.633zM75.138 28.758L73.85 29.89l-.638-.711c.444-.385.85-.74 1.29-1.12l.636.699zM81.161 39.295l.293.88-1.6.56-.314-.894 1.621-.546zM78.161 36.513l1.543-.717.42.836-1.548.737-.415-.856zM21.142 35.76l1.518.782-.405.846c-.523-.262-1.001-.502-1.531-.77l.418-.858zM50.933 81.029l.939-.048.076 1.682-.89.1-.125-1.734zM57.379 14.914c.17.271.444.528.487.818.062.423-.263.657-.68.674-.403.016-.8-.38-.679-.744.095-.287.38-.511.582-.763l.29.015zM64.586 19.01c-.176-.27-.458-.523-.505-.813-.066-.417.258-.658.673-.687.395-.027.8.366.687.735-.088.29-.37.517-.567.773l-.288-.009zM19.243 39.115c.12-.315.22-.572.337-.876l1.59.586-.33.881-1.597-.591zM55.4 14.557c.176.27.456.523.502.813.066.418-.258.66-.673.687-.395.027-.8-.368-.687-.737.09-.289.374-.517.57-.773l.288.01zM77.785 35.75l-.448-.834 1.505-.816.45.832-1.507.818zM18.737 65.234c.386.015.655.229.658.67.004.43-.239.686-.678.698-.445.013-.702-.253-.71-.67-.007-.413.23-.683.73-.698zM21.044 70.897c.254-.197.484-.503.767-.566.452-.1.727.234.737.672.01.417-.27.735-.677.68-.288-.037-.544-.324-.814-.499l-.013-.287zM51.22 14.28c.43.039.69.247.703.69.011.444-.236.706-.66.714-.417.009-.692-.227-.703-.675-.012-.446.251-.657.66-.73zM79.942 69.028c-.188-.259-.486-.497-.541-.782-.088-.453.253-.72.69-.72.417 0 .729.291.664.695-.046.288-.34.537-.524.802l-.288.005zM17.088 62.94c-.444-.031-.691-.285-.675-.709.016-.418.27-.68.716-.663.441.015.684.28.671.708-.013.428-.271.66-.712.664zM15.626 57.168c-.547.012-.791-.253-.804-.665-.013-.413.225-.693.676-.7.438-.005.703.226.71.663.008.428-.237.67-.582.702zM61.84 16.617c-.149.579-.379.836-.817.816-.428-.02-.668-.269-.659-.715.007-.46.31-.721.7-.655.28.047.52.36.776.554zM48.566 14.985c.02-.412.214-.694.664-.7.435-.008.688.228.705.67.017.45-.244.71-.66.722-.417.015-.684-.228-.709-.692zM63.083 16.625c.18.264.467.511.517.798.075.416-.24.664-.658.697-.39.031-.81-.355-.702-.72.084-.288.362-.52.554-.78l.289.005zM72.35 77.912c-.522.001-.777-.234-.783-.665-.006-.424.233-.694.676-.701.44-.007.7.246.714.67.016.436-.25.663-.607.696zM74.456 75.834c-.002.52-.245.78-.665.794-.425.014-.688-.237-.703-.68-.014-.446.242-.707.661-.72.424-.015.67.245.707.606zM75.163 75.215c-.424-.027-.672-.273-.654-.702.017-.421.262-.683.713-.664.44.017.688.279.676.702-.013.424-.271.665-.735.664zM76.645 73.744c-.511-.003-.774-.235-.787-.662-.011-.424.229-.692.672-.704.44-.011.697.239.717.662.022.435-.244.662-.602.704zM78.5 71.474c.007.472-.244.725-.66.742-.426.017-.69-.234-.706-.673-.016-.446.243-.706.662-.721.424-.018.678.23.704.652zM19.42 66.977c.662.002.913.25.926.67.013.421-.221.69-.672.7-.445.01-.745-.253-.697-.658.035-.286.33-.541.443-.712zM81.959 65.385c-.453-.013-.704-.253-.71-.68-.006-.43.237-.686.684-.689.445-.004.7.25.705.672.004.422-.247.674-.68.697zM17.902 64.793c-.501 0-.742-.273-.745-.684-.003-.41.231-.687.692-.685.45.003.692.247.698.677.006.436-.257.663-.645.692zM66.534 19.79c-.462-.038-.679-.292-.669-.723.012-.448.282-.662.715-.647.447.012.668.275.652.71-.017.443-.283.647-.698.66zM68.966 20.09c-.02.445-.247.696-.69.686-.427-.01-.683-.244-.679-.69.006-.446.259-.68.691-.68.438 0 .67.244.678.683zM15.182 53.812c.429.033.699.228.705.682.004.442-.223.696-.664.705-.435.009-.683-.23-.7-.67-.02-.455.25-.659.659-.718zM59.014 16.967c-.198-.259-.514-.494-.565-.779-.071-.399.219-.686.661-.7.445-.016.75.255.707.656-.032.287-.332.544-.512.814l-.291.009zM82.718 62.17c.407.015.67.214.68.664.009.436-.215.69-.656.704-.438.013-.69-.219-.704-.658-.015-.44.217-.677.68-.71zM16.625 58.438c-.028.425-.24.688-.684.685-.433-.001-.683-.232-.684-.68-.003-.443.232-.677.676-.681.443-.003.67.231.692.676zM21.398 69.326c-.018.444-.226.713-.665.726-.43.014-.695-.22-.709-.657-.014-.43.217-.693.656-.71.438-.018.668.23.718.641zM77.56 50.037c.087-14.478-11.503-27.344-27.243-27.496-15.47-.15-27.814 12.173-27.849 27.534-.034 15.16 12.393 27.57 27.607 27.566 15.18-.003 27.486-12.36 27.486-27.604zM45.614 21.99l.072-.696.567-.114.852.674.444-.802c.29-.005.752-.226.856.457.014.095.285.25.35.214.144-.078.226-.264.345-.395.125-.14.264-.369.399-.37.184-.003.39.149.552.278.165.132.288.316.43.479.122-.174.246-.345.365-.522.043-.064.072-.14.12-.233l.73.048c.174.326.036.94.756.727l.238-.668.773.092c-.028.649.331.798.925.894 6.17.996 11.515 3.663 15.895 8.14 4.389 4.487 7.024 9.862 7.859 16.098.56 4.19.2 8.304-1.07 12.338a8.332 8.332 0 00-.121.41c-.009.037.009.08.019.156l.584.345c-.133.403-.069.948-.804.736-.108-.031-.306.255-.504.431l.703.483-.245.583-.972.323.419.855-.274.561c-.39-.013-.916-.39-.98.388.16.133.33.277.514.435-.196.414-.32.877-.955.58-.073-.034-.284.114-.356.226-.05.079-.004.258.055.359.069.118.198.198.322.313-.169.454-.31.862-.944.563-.095-.045-.375.165-.486.319-2.974 4.084-6.76 7.169-11.36 9.253-3.29 1.489-6.74 2.37-10.354 2.447-10.837.224-19.292-4.17-25.32-13.197-.09-.135-.182-.267-.28-.415-.131.042-.245.076-.358.114-.112.035-.224.074-.36.119-.13-.231-.25-.443-.366-.645.477-.67.477-.67.204-1.077-.103.033-.215.07-.33.102-.096.027-.195.047-.35.084-.118-.228-.236-.455-.276-.535l.352-.993-.892-.163a84.277 84.277 0 00-.266-.62l.529-.439c-.07-.545-.07-.545-.875-.49l-.259-.66c.136-.339.931-.39.388-1.021l-.668.053c-.208-.445-.383-.843.246-1.104.08-.033.08-.398.032-.59-.614-2.513-.951-5.062-.806-7.644.617-10.97 5.713-19.157 15.375-24.435 2.54-1.387 5.282-2.251 8.142-2.725.138-.023.271-.08.42-.124z" clip-rule="evenodd"/>
    <path fill="#fff" fill-rule="evenodd" d="M30.297 27.571c5.464-4.772 11.817-7.348 19.07-7.479 7.817-.142 14.676 2.456 20.559 7.611C64.2 22.871 57.6 20.325 50.104 20.29c-7.485-.034-14.07 2.499-19.807 7.281zM20.753 43.898c-1.22 6.395-.583 12.587 2.13 18.521 2.703 5.912 6.93 10.46 12.523 13.753-4.77-2.604-8.53-6.262-11.255-10.956-3.867-6.661-4.962-13.787-3.398-21.318zM70.785 72.99c.499-.527.996-1.056 1.494-1.581 4.652-4.906 7.448-10.7 8.334-17.406.47-3.555.306-7.082-.481-10.58-.017-.077-.012-.159.073-.262.07.25.15.497.207.75.06.257.106.518.148.78 1.498 9.415-.724 17.842-6.741 25.244-.809.994-1.758 1.873-2.652 2.798-.103.108-.26.163-.393.244l.011.013z" clip-rule="evenodd"/>
    <path fill="#fff" fill-rule="evenodd" d="M27.923 71.707c-3.721-3.734-6.293-8.158-7.728-13.231-1.347-4.768-1.508-9.588-.501-14.447-1.77 10.573 1.025 19.773 8.23 27.678zM29.782 26.7c2.526-2.283 5.388-4.015 8.522-5.324 4.977-2.08 10.634-2.64 14.605-2.1-8.704-.62-16.395 1.9-23.127 7.424zM54.065 79.679c3.219-.5 6.28-1.429 9.186-2.877 2.885-1.434 5.472-3.288 7.798-5.514-1.768 3.25-12.516 8.56-16.984 8.391z" clip-rule="evenodd"/>
    <path fill="#fff" fill-rule="evenodd" d="M70.774 72.978c-.437.413-.846.861-1.314 1.236-4.263 3.404-9.084 5.565-14.47 6.456-.218.037-.44.046-.68-.026.667-.131 1.337-.257 2.002-.395 5.267-1.09 9.907-3.444 13.979-6.943.148-.126.329-.21.494-.316l-.011-.012zM78.67 58.76c1.555-7.627 1.594-7.97.43-15.692 1.375 2.605 1.125 12.06-.43 15.691zM28.442 72.311l6.337 4.731c-2.238-1.2-4.417-2.868-6.337-4.73zM65.333 23.003l5.131 3.625-.094.135c-1.712-1.22-3.426-2.437-5.138-3.655l.101-.105zM76.28 64.494a22.789 22.789 0 01-3.47 5.01c1.155-1.67 2.313-3.34 3.47-5.01zM62.85 21.852l2.005 1.001-.056.11-2.028-1.008.08-.103zM49.963 32.975c3.12 3.384 5.977 6.883 6.958 11.5.94 4.424-.514 8.08-3.781 11.066-.852.779-1.85 1.403-2.81 2.053-.188.127-.58.156-.77.044-3.225-1.894-5.702-4.422-6.647-8.164-.728-2.884-.145-5.633 1.054-8.274 1.39-3.07 3.462-5.661 5.773-8.078.04-.044.1-.068.223-.147z" clip-rule="evenodd"/>
    <path fill="#fff" fill-rule="evenodd" d="M71.844 41.113c-2.117 1.417-2.82 3.491-3.395 5.642-.63 2.354-1.46 4.626-2.878 6.638-2.27 3.222-5.425 4.85-9.315 5.103-1.589.103-3.17.003-4.715-.38.898-.78 1.824-1.51 2.661-2.33 2.236-2.192 3.556-4.84 3.84-7.984.018-.196.22-.465.404-.542 2.674-1.13 5.238-2.465 7.665-4.056 1.697-1.113 3.56-1.754 5.733-2.091zM48.177 58.043c-5.483 1.31-11.93.07-15.137-6.48-.835-1.706-1.374-3.566-1.963-5.384-.52-1.605-1.053-3.18-2.334-4.366-.235-.218-.49-.413-.845-.709 1.83.294 3.48.728 4.938 1.652 2.71 1.717 5.497 3.28 8.464 4.515.175.073.331.39.35.607.247 3.023 1.544 5.558 3.62 7.705.734.759 1.596 1.393 2.403 2.081.148.125.31.234.504.38z" clip-rule="evenodd"/>
    <path fill="#fff" fill-rule="evenodd" d="M30.435 62.066c1.55-2.13 3.427-3.653 5.697-4.694.132-.06.37-.028.499.056 3.867 2.517 8.05 2.761 12.414 1.748.057-.013.12-.002.248-.002.105 1.2-.353 2.139-1.274 2.864-.919.724-2.015.938-3.154 1.002-1.752.1-3.462-.155-5.135-.65-2.924-.865-5.883-.793-8.858-.388l-.437.064zM69.257 61.999c-1.255-.098-2.505-.218-3.758-.289-2.337-.13-4.566.473-6.81 1.011-1.761.424-3.56.526-5.336.07-1.776-.456-2.884-1.79-2.825-3.311.004-.1.032-.197.038-.233 1.397.161 2.765.4 4.14.46 2.964.125 5.759-.519 8.266-2.166.36-.237.624-.238.998-.053a14.598 14.598 0 014.934 3.946c.115.143.22.293.326.444.02.03.017.076.027.12zM49.903 71.153c-2.009-1.982-3.472-4.207-4.16-6.97 1.7-.313 3.166-.946 4.159-2.486.983 1.518 2.448 2.185 4.179 2.478-.702 2.75-2.166 4.99-4.178 6.978zM32.453 36.984c1.509.224 2.839.825 3.962 1.81 1.776 1.558 3.741 2.826 5.808 3.954.069.038.129.094.162.119l-.658 3.316c-1.488-.744-2.957-1.534-4.473-2.219-1.207-.544-1.94-1.343-2.34-2.65-.487-1.59-1.222-3.115-2.461-4.33zM67.17 37.037c-1.574 1.577-2.21 3.45-2.748 5.36-.127.456-.341.735-.76.94-1.736.854-3.459 1.736-5.19 2.605-.123.062-.26.098-.382.14-.218-.989-.448-1.958-.633-2.936-.024-.134.13-.378.264-.452 2.133-1.18 4.137-2.54 5.98-4.14.94-.818 2.087-1.243 3.469-1.517z" clip-rule="evenodd"/>
  </g>
  <defs>
    <clipPath id="clip0_501_93">
      <path fill="#fff" d="M0 0h100v100H0z"/>
    </clipPath>
  </defs>
</svg>
