<svg width="100" height="100" viewBox="0 0 100 100" fill="none" xmlns="http://www.w3.org/2000/svg">
<g clip-path="url(#clip0_923_175)">
<path d="M50 100C77.6142 100 100 77.6142 100 50C100 22.3858 77.6142 0 50 0C22.3858 0 0 22.3858 0 50C0 77.6142 22.3858 100 50 100Z" fill="white"/>
<path d="M47.2299 21.1553C50.2222 20.9607 53.2364 20.9607 56.2396 21.0904C58.3288 21.6417 60.4615 22.074 62.5616 22.5929C67.7193 24.398 71.9739 27.857 76 31.4132C73.802 33.8993 71.6692 36.6665 68.7966 38.3744C65.5431 36.5584 63.0839 33.3913 59.4278 32.2131C52.4747 29.2189 43.7805 30.8836 38.601 36.4071C31.3215 43.4007 31.55 56.4798 39.0472 63.2356C45.9133 69.8076 57.7956 69.9265 64.8467 63.5599C66.2939 62.6627 67.3603 60.7387 69.221 60.7819C71.5387 62.9978 73.6388 65.4407 75.8041 67.7971C70.5376 72.5532 64.5311 76.8228 57.2951 77.8713C53.9654 78.0335 50.6357 78.0443 47.3061 77.8929C35.3802 76.358 25.0756 66.7919 23.4325 54.8477C22.8885 51.3022 22.7905 47.6703 23.5305 44.1573C24.8906 34.1804 32.6272 25.9113 41.9851 22.528C43.737 22.074 45.4889 21.6741 47.2299 21.1553Z" fill="black"/>
</g>
<defs>
<clipPath id="clip0_923_175">
<rect width="100" height="100" fill="white"/>
</clipPath>
</defs>
</svg>
