<svg width="24" height="24" viewBox="0 0 24 24" fill="none" xmlns="http://www.w3.org/2000/svg">
<path fill-rule="evenodd" clip-rule="evenodd" d="M24 12C24 18.6274 18.6274 24 12 24C5.3726 24 0 18.6274 0 12C0 5.3726 5.3726 0 12 0C18.6274 0 24 5.3726 24 12Z" fill="#BE1F28"/>
<path fill-rule="evenodd" clip-rule="evenodd" d="M14.9886 11.952C14.9757 11.9515 14.963 11.95 14.95 11.95C14.7582 11.95 14.5796 12.005 14.4274 12.0987L12.731 10.917L16.917 7.96695L14.9886 11.952ZM11.336 10.9201L9.66787 12.0957C9.51667 12.0039 9.33987 11.95 9.14997 11.95C9.13267 11.95 9.11577 11.9518 9.09877 11.9526L7.10997 7.97595L11.336 10.9201ZM14.2113 13.6223L11.963 18.643L9.87217 13.6405C10.044 13.461 10.15 13.2181 10.15 12.95C10.15 12.8812 10.143 12.8141 10.1298 12.7492L12.035 11.407L13.9695 12.7543C13.9569 12.8177 13.95 12.8831 13.95 12.95C13.95 13.2092 14.0494 13.4447 14.2113 13.6223ZM16.688 7.14995L12.032 10.43L7.32397 7.14995H16.688ZM17.95 5.74995C17.5401 5.74995 17.1881 5.99695 17.0338 6.34995H6.96617C6.81187 5.99695 6.45997 5.74995 6.04997 5.74995C5.49767 5.74995 5.04997 6.19775 5.04997 6.74995C5.04997 7.30225 5.49767 7.74995 6.04997 7.74995C6.06727 7.74995 6.08417 7.74825 6.10117 7.74745L8.38227 12.3096C8.23737 12.4831 8.14997 12.7063 8.14997 12.95C8.14997 13.4969 8.58907 13.9405 9.13387 13.9493L11.228 18.9594C11.0562 19.1389 10.95 19.3819 10.95 19.65C10.95 20.2023 11.3977 20.65 11.95 20.65C12.5023 20.65 12.95 20.2023 12.95 19.65C12.95 19.391 12.8506 19.1556 12.689 18.978L14.9407 13.9496C14.9439 13.9497 14.9469 13.95 14.95 13.95C15.5023 13.95 15.95 13.5023 15.95 12.95C15.95 12.7017 15.859 12.475 15.7091 12.3002L17.9112 7.74805C17.9241 7.74855 17.9369 7.74995 17.95 7.74995C18.5023 7.74995 18.95 7.30225 18.95 6.74995C18.95 6.19775 18.5023 5.74995 17.95 5.74995Z" fill="#FEFEFE"/>
</svg>
