<svg xmlns="http://www.w3.org/2000/svg" fill="none" viewBox="0 0 100 100">
  <path fill="#000" d="M50 100c27.614 0 50-22.386 50-50S77.614 0 50 0 0 22.386 0 50s22.386 50 50 50z"/>
  <path fill="#00D395" fill-rule="evenodd" d="M28.885 66.765a5.034 5.034 0 0 1-2.41-4.29v-9.77c0-1.16.945-2.1 2.105-2.095.37 0 .735.1 1.055.285L51.68 63.75a4.192 4.192 0 0 1 2.085 3.625v10.12a2.51 2.51 0 0 1-2.51 2.52c-.465 0-.925-.13-1.32-.37l-21.05-12.88zm32.86-18.545a4.21 4.21 0 0 1 2.085 3.625v20.54a1.67 1.67 0 0 1-.855 1.46L58.15 76.56a.841.841 0 0 1-.195.08V65.235a4.202 4.202 0 0 0-2.045-3.605L36.55 50.05V37.175c0-1.16.945-2.1 2.105-2.095.37 0 .735.1 1.055.285L61.745 48.22zm9.65-15.17a4.195 4.195 0 0 1 2.09 3.63v30a1.699 1.699 0 0 1-.885 1.475l-4.575 2.47V49.74c0-1.475-.775-2.84-2.035-3.6L46.2 34.27V22.06c0-.37.1-.735.28-1.055.585-1 1.87-1.34 2.87-.76L71.395 33.05z" clip-rule="evenodd"/>
</svg>
