<svg xmlns="http://www.w3.org/2000/svg" width="100" height="100" fill="none" viewBox="0 0 100 100">
  <path fill="#7443FF" d="M50 100c27.614 0 50-22.386 50-50S77.614 0 50 0 0 22.386 0 50s22.386 50 50 50z"/>
  <g clip-path="url(#clip0_309_3251)">
    <path fill="#fff" d="M31.538 21.282c7.017-4.564 15.51-1.207 22.787.797 10.75 3.78 22.587 9.008 28.08 19.876 2.481 6.242 2.47 15.117-3.012 19.682-9.45 4.238-19.94 5.156-29.533 8.875-1.347 4.975-3.45 10.542-8.4 12.775-4.642 2.174-9.852-.99-12.25-5.12-5.634-9.358-7.974-20.527-8.174-31.395 0-9.37 2.327-20.056 10.502-25.49zm15.546 16.905a63.853 63.853 0 013 12.401c7.49-.833 15.18-1.57 22.08-4.89-3.545-3.96-8.624-5.772-13.55-7.173-3.745-.881-7.809-1.883-11.53-.29v-.048zm-11.47 11.471c-3.71.7-5.34 4.71-5.907 8.103-1.016 6.327.354 13.693 5.434 17.907.459.46 1.005.82 1.604 1.057a4.635 4.635 0 003.737-.145 4.736 4.736 0 001.522-1.177c2.363-2.935 2.942-7.004 2.564-10.699-.414-4.95-1.524-10.336-5.28-13.826-1.076-.7-2.364-1.558-3.675-1.22z"/>
  </g>
  <defs>
    <clipPath id="clip0_309_3251">
      <path fill="#fff" d="M0 0h63v65H0z" transform="translate(21 19)"/>
    </clipPath>
  </defs>
</svg>
