<svg width="100" height="100" viewBox="0 0 100 100" fill="none" xmlns="http://www.w3.org/2000/svg">
<g clip-path="url(#clip0_923_116)">
<path d="M50 100C77.6142 100 100 77.6142 100 50C100 22.3858 77.6142 0 50 0C22.3858 0 0 22.3858 0 50C0 77.6142 22.3858 100 50 100Z" fill="white"/>
<path d="M41.095 31.5696C47.6005 28.7472 54.0638 25.8345 60.5633 23C53.119 36.9016 45.5363 50.737 38.074 64.6325C37.5505 65.475 37.2496 66.6185 36.2506 67.0277C29.5285 70.0848 22.698 72.8952 16 76.0065C23.9377 61.7078 31.5264 47.2164 39.3318 32.8454C39.6507 32.1293 40.4571 31.9006 41.095 31.5696Z" fill="#62BCF9"/>
<path d="M57.5062 32.6348C60.9003 36.0289 64.3547 39.3569 67.797 42.7029C62.0016 53.5774 56.2123 64.4519 50.429 75.3264C50.2545 76.2893 49.4661 75.5431 49.1592 75.2061C46.0299 72.0827 42.8524 69.0015 39.6267 65.9624C45.5605 54.8412 51.6507 43.7982 57.5062 32.6348Z" fill="#62BCF9"/>
<path d="M60.2443 61.2566C63.3676 55.3891 66.5752 49.5637 69.6684 43.6841C74.1458 45.2969 78.6052 46.9579 83.1066 48.5165C80.8017 52.5606 78.6232 56.6769 76.3725 60.7511C70.9984 60.9256 65.6183 61.0219 60.2443 61.2566Z" fill="#62BCF9"/>
</g>
<defs>
<clipPath id="clip0_923_116">
<rect width="100" height="100" fill="white"/>
</clipPath>
</defs>
</svg>
