<svg xmlns="http://www.w3.org/2000/svg" width="100" height="100" fill="none" viewBox="0 0 100 100">
  <path fill="url(#paint0_linear_401_800)" d="M50 100c27.614 0 50-22.386 50-50S77.614 0 50 0 0 22.386 0 50s22.386 50 50 50z"/>
  <path fill="#fff" d="M61.436 24H73a38361.273 38361.273 0 01-36.44 51.98c-3.852-.038-7.715.107-11.56-.07A17667.588 17667.588 0 0061.436 24zM26 24c3.87 0 7.736.023 11.605 0C41.441 29.467 45.142 35.03 49 40.475c-1.916 2.863-3.911 5.67-5.834 8.525C37.447 40.642 31.692 32.338 26 24z"/>
  <path fill="#6360DD" d="M56.749 50A5500.324 5500.324 0 0175 76c-3.881-.048-7.77.045-11.65-.048A1296.067 1296.067 0 0051 58.242c1.928-2.718 3.795-5.515 5.749-8.242z"/>
  <defs>
    <linearGradient id="paint0_linear_401_800" x1="50" x2="50" y1="0" y2="100" gradientUnits="userSpaceOnUse">
      <stop stop-color="#3E3E58"/>
      <stop offset="1" stop-color="#262635"/>
    </linearGradient>
  </defs>
</svg>
