<svg width="24" height="24" viewBox="0 0 24 24" fill="none" xmlns="http://www.w3.org/2000/svg">
<path d="M12 24C18.6274 24 24 18.6274 24 12C24 5.37258 18.6274 0 12 0C5.37258 0 0 5.37258 0 12C0 18.6274 5.37258 24 12 24Z" fill="#627EEA"/>
<path d="M12.354 2.995V9.638L17.968 12.146L12.354 2.995Z" fill="white" fill-opacity="0.602"/>
<path d="M12.354 2.995L6.74001 12.146L12.354 9.638V2.995Z" fill="white"/>
<path d="M12.354 16.45V20.964L17.972 13.192L12.354 16.45Z" fill="white" fill-opacity="0.602"/>
<path d="M12.354 20.964V16.45L6.74001 13.192L12.354 20.964Z" fill="white"/>
<path d="M12.354 15.406L17.968 12.146L12.354 9.639V15.406Z" fill="white" fill-opacity="0.2"/>
<path d="M6.74001 12.146L12.354 15.406V9.639L6.74001 12.146Z" fill="white" fill-opacity="0.602"/>
</svg>
