<svg width="200" height="200" viewBox="0 0 200 200" fill="none" xmlns="http://www.w3.org/2000/svg">
<path d="M188.778 99.8889C188.778 148.981 148.981 188.778 99.8889 188.778C50.7969 188.778 11 148.981 11 99.8889C11 50.7969 50.7969 11 99.8889 11C148.981 11 188.778 50.7969 188.778 99.8889Z" fill="#0867BB"/>
<g clip-path="url(#clip0_8_44)">
<path d="M81.8889 43.6593C82.1146 42.8913 82.583 42.2172 83.224 41.7378C83.865 41.2584 84.644 40.9995 85.4444 41H115.074C115.661 41.0004 116.239 41.1402 116.761 41.4077C117.283 41.6753 117.734 42.063 118.076 42.5389C118.419 43.0148 118.644 43.5654 118.733 44.1452C118.821 44.725 118.771 45.3176 118.585 45.8741L105.4 85.4444H133.593C134.286 85.444 134.966 85.6382 135.555 86.0052C136.143 86.3721 136.617 86.8969 136.922 87.5199C137.227 88.1429 137.351 88.8389 137.279 89.5288C137.208 90.2187 136.944 90.8748 136.519 91.4222L84.6667 158.089C84.1355 158.775 83.3802 159.253 82.5326 159.439C81.685 159.626 80.7989 159.508 80.029 159.108C79.2591 158.707 78.6542 158.049 78.3199 157.249C77.9857 156.448 77.9432 155.555 78.2 154.726L91.5407 111.37H66.9259C66.3501 111.371 65.7821 111.237 65.2671 110.979C64.7521 110.722 64.3043 110.348 63.9591 109.887C63.614 109.426 63.3811 108.891 63.2788 108.324C63.1766 107.757 63.208 107.175 63.3704 106.622L81.8889 43.6593ZM88.2148 48.4074L71.8741 103.963H96.5555C97.1352 103.963 97.7067 104.099 98.2242 104.36C98.7417 104.621 99.1908 105 99.5352 105.466C99.8796 105.932 100.11 106.473 100.207 107.044C100.305 107.615 100.267 108.202 100.096 108.756L91.2222 137.593L126.022 92.8519H100.259C99.6727 92.8514 99.0947 92.7117 98.5727 92.4441C98.0507 92.1766 97.5997 91.7889 97.2569 91.313C96.9141 90.837 96.6892 90.2865 96.6007 89.7067C96.5123 89.1268 96.5628 88.5343 96.7481 87.9778L109.933 48.4074H88.2148Z" fill="#D1E735"/>
</g>
<defs>
<clipPath id="clip0_8_44">
<rect width="118.519" height="118.519" fill="white" transform="translate(41 41)"/>
</clipPath>
</defs>
</svg>
