<svg xmlns="http://www.w3.org/2000/svg" fill="none" viewBox="0 0 100 100">
  <path fill="#1969FF" d="M50 100c27.614 0 50-22.386 50-50S77.614 0 50 0 0 22.386 0 50s22.386 50 50 50z"/>
  <path fill="#fff" d="M46.968 15.9c1.685-.888 4.248-.888 5.932 0l17.19 9.062c1.014.535 1.571 1.332 1.67 2.155h.017v45.55c-.022.897-.585 1.789-1.688 2.37L52.9 84.1c-1.684.888-4.247.888-5.932 0l-17.19-9.062c-1.098-.58-1.625-1.477-1.65-2.371a3.171 3.171 0 0 1-.001-.23V27.425a2.338 2.338 0 0 1 0-.19v-.117h.008c.076-.832.608-1.608 1.644-2.155L46.968 15.9zm22.075 36.541-16.148 8.541c-1.682.89-4.242.89-5.924 0L30.86 52.46v20.066l16.112 8.477c.953.51 1.943 1.006 2.907 1.028h.055c.962.003 1.897-.486 2.844-.949l16.266-8.629V52.441zM25.432 71.68c0 1.746.201 2.893.6 3.702.331.67.828 1.182 1.735 1.806l.052.035c.199.135.418.277.685.444l.315.194.966.589-1.386 2.312-1.082-.66-.181-.112a23.758 23.758 0 0 1-.814-.527c-2.585-1.758-3.549-3.674-3.568-7.662v-.121h2.678zm23.2-31.348a2.448 2.448 0 0 0-.348.15l-17.163 9.09-.052.029-.014.008.027.016.039.021 17.163 9.091c.107.057.224.107.349.15V40.332zm2.735 0v18.555c.125-.043.243-.093.35-.15l17.162-9.09.052-.03.014-.008-.027-.015-.039-.021-17.163-9.092a2.443 2.443 0 0 0-.349-.149zm17.676-9.96-15.43 8.105 15.43 8.105v-16.21zm-38.184 0v16.21l15.43-8.105-15.43-8.106zm20.842-12.049c-.893-.472-2.51-.472-3.402 0L31.12 27.405l-.052.028-.014.008.027.016.039.021 17.178 9.082c.893.472 2.51.472 3.402 0l17.178-9.082.052-.028.014-.009-.027-.015-.039-.021L51.7 18.323zm19.9.915 1.082.66.181.112c.313.195.572.362.814.527 2.585 1.758 3.549 3.674 3.568 7.662v.121h-2.678c0-1.746-.201-2.893-.6-3.702-.332-.67-.828-1.182-1.735-1.806l-.052-.035a20.768 20.768 0 0 0-.685-.444l-.315-.194-.966-.589 1.386-2.312z"/>
</svg>
