<svg viewBox="0 0 800 800" fill="none" xmlns="http://www.w3.org/2000/svg">
  <path d="M298.23 43.35c64.99-60.705 166.887-57.231 227.594 7.76l230.827 247.12c60.703 64.99 57.23 166.887-7.76 227.594l-247.12 230.827c-64.991 60.703-166.887 57.23-227.594-7.76L43.351 501.771c-60.706-64.991-57.232-166.887 7.759-227.594L298.23 43.351z" fill="#29B0DE"/>
  <path d="M339.533 221.021c28.543-44.231 93.233-44.231 121.773 0l131.967 204.511c31.113 48.217-3.503 111.751-60.887 111.751h-263.93c-57.385 0-92.001-63.534-60.887-111.751l131.964-204.511z" fill="#fff"/>
  <path d="M339.533 221.021c28.543-44.231 93.233-44.231 121.773 0l131.967 204.511c31.113 48.217-3.503 111.751-60.887 111.751h-263.93c-57.385 0-92.001-63.534-60.887-111.751l131.964-204.511z" fill="#fff"/>
  <path d="M339.533 221.021c28.543-44.231 93.233-44.231 121.773 0l131.967 204.511c31.113 48.217-3.503 111.751-60.887 111.751h-263.93c-57.385 0-92.001-63.534-60.887-111.751l131.964-204.511z" fill="#fff"/>
  <path d="M275 162.094h142.896c73.91 0 130.85 56.939 130.85 128.66 0 71.722-56.94 128.659-130.85 128.659h-67.343v125.924H275V162.094zm75.564 186.691h67.343c32.3 0 55.844-25.187 55.844-58.036 0-33.397-23.544-58.034-55.844-58.034h-67.343v116.07z" fill="#29B0DE"/>
</svg>
