<svg width="24" height="24" viewBox="0 0 24 24" fill="none" xmlns="http://www.w3.org/2000/svg">
<path d="M8.94689 1.30052C10.8966 -0.520646 13.9535 -0.416433 15.7747 1.53329L22.6995 8.94689C24.5206 10.8966 24.4164 13.9535 22.4667 15.7747L15.0531 22.6995C13.1034 24.5206 10.0465 24.4164 8.22531 22.4667L1.30052 15.0531C-0.520646 13.1034 -0.416433 10.0465 1.53329 8.22531L8.94689 1.30052Z" fill="#2A5ADA"/>
<path d="M10.1857 6.63067C11.042 5.30373 12.9827 5.30373 13.8389 6.63067L17.7979 12.766C18.7313 14.2125 17.6928 16.1185 15.9713 16.1185H8.0534C6.33185 16.1185 5.29339 14.2125 6.22681 12.766L10.1857 6.63067Z" fill="white"/>
<path d="M10.1857 6.63067C11.042 5.30373 12.9827 5.30373 13.8389 6.63067L17.7979 12.766C18.7313 14.2125 17.6928 16.1185 15.9713 16.1185H8.0534C6.33185 16.1185 5.29339 14.2125 6.22681 12.766L10.1857 6.63067Z" fill="white"/>
<path d="M10.1857 6.63067C11.042 5.30373 12.9827 5.30373 13.8389 6.63067L17.7979 12.766C18.7313 14.2125 17.6928 16.1185 15.9713 16.1185H8.0534C6.33185 16.1185 5.29339 14.2125 6.22681 12.766L10.1857 6.63067Z" fill="white"/>
<path d="M12.5359 4.86273H8.24902V16.36H10.5156V12.5823H12.5359C14.7532 12.5823 16.4614 10.8742 16.4614 8.72253C16.4614 6.5709 14.7532 4.86273 12.5359 4.86273ZM12.5359 10.4636H10.5156V6.98152H12.5359C13.5049 6.98152 14.2112 7.72063 14.2112 8.72253C14.2112 9.70801 13.5049 10.4636 12.5359 10.4636Z" fill="#2A5ADA"/>
</svg>
