<svg width="100" height="100" viewBox="0 0 100 100" fill="none" xmlns="http://www.w3.org/2000/svg">
<g clip-path="url(#clip0_925_222)">
<path d="M50 100C77.6142 100 100 77.6142 100 50C100 22.3858 77.6142 0 50 0C22.3858 0 0 22.3858 0 50C0 77.6142 22.3858 100 50 100Z" fill="#E33552"/>
<path d="M40.7711 42.0198L25.9681 33.4536L30.1975 48.4442L23.8534 67.7183L42.8858 76.2843L51.3445 82.7087L59.8032 76.2843L78.8358 67.7183L72.4915 48.4442L76.7211 33.4536L59.8032 42.0198H40.7711Z" fill="white"/>
<path fill-rule="evenodd" clip-rule="evenodd" d="M44.0833 79.3523L50.3836 84.8276C50.5206 84.939 50.6914 84.9996 50.8675 84.9996C51.044 84.9996 51.2149 84.939 51.3515 84.8276L57.6521 79.3523C57.7059 79.309 57.7635 79.2706 57.8241 79.2375L80.1617 68.5442C80.3329 68.4606 80.4672 68.3165 80.538 68.1396C80.6091 67.9631 80.6117 67.7663 80.5455 67.5876L73.7011 48.8581C73.6439 48.6947 73.6439 48.5171 73.7011 48.3542L79.6348 30.6842C79.686 30.5359 79.6905 30.3754 79.6469 30.2247C79.6036 30.0739 79.5148 29.9402 79.3925 29.8418C79.2706 29.7434 79.1208 29.6851 78.9642 29.6749C78.8077 29.6648 78.6519 29.7032 78.5179 29.785L59.3876 41.2403C59.268 41.3115 59.1314 41.3491 58.9925 41.3491H42.7773C42.6401 41.3483 42.5056 41.3107 42.3879 41.2403L23.2575 29.785C23.1236 29.7032 22.9677 29.6648 22.8111 29.6749C22.6546 29.6851 22.505 29.7434 22.3827 29.8418C22.2606 29.9402 22.1717 30.0739 22.1284 30.2247C22.085 30.3754 22.0893 30.5359 22.1406 30.6842L28.0916 48.3542C28.1488 48.5171 28.1488 48.6947 28.0916 48.8581L21.2184 67.5876C21.154 67.7671 21.1582 67.9639 21.2301 68.1404C21.3019 68.3169 21.4365 68.4606 21.6079 68.5442L43.9114 79.2375C43.9731 79.2691 44.0306 79.3075 44.0833 79.3523ZM43.1783 64.2881L46.3423 77.2476L50.8705 81.2022L55.3679 77.2746L58.6403 64.3227L50.8589 71.8602L43.1783 64.2881ZM62.8328 60.2615L59.0452 75.2523L76.9201 66.6825L71.5226 51.8437L62.8328 60.2615ZM39.0163 60.1847L42.6949 75.252L24.8211 66.6825L30.3312 51.6221L39.0163 60.1847ZM69.4187 49.6073L50.8762 67.5703L32.5754 49.5238L42.223 44.4134H59.6093L69.4187 49.6073ZM70.9386 46.9381L62.9284 42.697L74.7435 35.6329L70.9386 46.9381ZM38.8789 42.7106L27.032 35.6329L30.8433 46.9671L38.8789 42.7106Z" fill="#E33552"/>
<path d="M26.5592 59.0516C25.3214 59.0516 24.0957 58.7588 22.9521 58.1906C21.8085 57.622 20.7694 56.7888 19.8941 55.7385C19.0188 54.6882 18.3245 53.4411 17.8508 52.0691C17.3771 50.6966 17.1333 49.2256 17.1333 47.7403C17.1333 46.255 17.3771 44.784 17.8508 43.4117C18.3245 42.0394 19.0188 40.7925 19.8941 39.7422C20.7694 38.6918 21.8085 37.8586 22.9521 37.2902C24.0957 36.7217 25.3214 36.4292 26.5592 36.4292V47.7403V59.0516Z" fill="white"/>
<path d="M75.5741 59.0516C76.8118 59.0516 78.0374 58.7588 79.1811 58.1906C80.3247 57.622 81.3641 56.7888 82.239 55.7385C83.1143 54.6882 83.8086 53.4411 84.2824 52.0691C84.7561 50.6966 85 49.2256 85 47.7403C85 46.255 84.7561 44.784 84.2824 43.4117C83.8086 42.0394 83.1143 40.7925 82.239 39.7422C81.3641 38.6918 80.3247 37.8586 79.1811 37.2902C78.0374 36.7217 76.8118 36.4292 75.5741 36.4292V47.7403V59.0516Z" fill="white"/>
<path d="M21.3749 46.6405C21.3749 32.5848 32.7692 21.1904 46.8248 21.1904H55.3084C69.3637 21.1904 80.7581 32.5848 80.7581 46.6405" stroke="white" stroke-width="4"/>
</g>
<defs>
<clipPath id="clip0_925_222">
<rect width="100" height="100" fill="white"/>
</clipPath>
</defs>
</svg>
