<svg xmlns="http://www.w3.org/2000/svg" fill="none" viewBox="0 0 100 100">
  <g clip-path="url(#a)">
    <path fill="#000" d="M50 100c27.614 0 50-22.386 50-50S77.614 0 50 0 0 22.386 0 50s22.386 50 50 50z"/>
    <path fill="#fff" fill-rule="evenodd" d="M23 65.2c.743.392 1.719.992 2.415 1.453.256.173.546.323.825.496.15.093.244.139.383.231.07.046.128.092.197.127l.21.115 8.941 5.467c.128.069.244.15.383.23l8.117 4.97c.093.058.128.07.21.128l3.878 2.364c.174.092.244.207.441.219V50.9l-1.23-.703c-.117-.058-.187-.104-.303-.173l-.964-.554c-1.37-.715-2.647-1.591-4.03-2.306-.139-.07-.185-.116-.336-.185l-1.23-.703c-.303-.185-1.673-1.004-1.917-1.062v4.752l5.04 2.895c.14.08.232.138.36.207.14.07.209.15.383.185V73.63c-.882-.588-1.823-1.119-2.729-1.661l-2.194-1.35c-.895-.599-1.858-1.095-2.753-1.683-.104-.07-.162-.092-.267-.162l-1.939-1.187a5.577 5.577 0 0 1-.557-.346c-.709-.473-1.475-.888-2.195-1.35-.198-.126-.36-.207-.558-.334-1.068-.715-2.217-1.36-3.309-2.018-.093-.058-.174-.116-.255-.173l-.848-.52v-24.46a9.915 9.915 0 0 0-.511-.3 11.698 11.698 0 0 1-.511-.3l-2.613-1.476c-.197-.103-.348-.219-.534-.311v29.2zm29.022-14.38v11.575l1.488-.865c.682-.37 1.309-.82 1.991-1.19.123-.068.168-.092.257-.16.09-.058.18-.093.269-.14v-6.82a.699.699 0 0 0 .28-.127c.1-.07.167-.093.268-.15.526-.312 1.04-.681 1.577-.958.727-.37 1.42-.831 2.114-1.258.18-.104.325-.196.515-.312l1.051-.611c.112-.07.146-.093.258-.162.458-.242.883-.566 1.353-.82l.515-.311c.089-.058.178-.092.268-.139l3.434-2.054c.727-.392 1.398-.866 2.114-1.258l1.063-.646c.358-.22.704-.416 1.062-.647.19-.115.347-.196.515-.311l.56-.323V62.88c-.157.035-.202.092-.336.173l-.985.623c-.1.07-.179.127-.302.208-.134.08-.224.15-.335.22-.123.069-.19.126-.314.196l-.995.611c-.895.531-1.734 1.131-2.629 1.662l-2.617 1.674c-.123.08-.19.115-.313.196-1.175.82-2.428 1.5-3.613 2.297-.213.15-.437.277-.65.415l-3.276 2.078a4.488 4.488 0 0 0-.314.196c-.973.658-1.99 1.223-2.964 1.881L52 76.153V81c.224-.058.582-.335.783-.462.268-.173.526-.311.794-.496.75-.52 1.566-.946 2.316-1.466.145-.092.257-.173.391-.254l1.98-1.258c.134-.08.235-.15.37-.23l10.536-6.695c.145-.092.269-.173.391-.253l7.036-4.467c.135-.092.269-.173.403-.242V36c-.201.046-.235.115-.391.208-.146.08-.247.138-.38.219l-2.339 1.397c-.794.438-1.532.98-2.337 1.396L65.3 42.936c-.28.162-.504.312-.772.474l-1.152.692c-.817.427-2.002 1.154-2.752 1.639-.134.092-.246.127-.38.22l-2.54 1.523c-.111.057-.089.057-.2.127l-.795.45c-.47.254-.884.565-1.353.82-.112.057-.112.08-.202.126l-.794.45c-.526.266-1.913 1.27-2.338 1.362zM24 34.089c.165.035.26.129.412.211.554.294 1.049.647 1.614.928l4.477 2.586c2.132 1.292 4.347 2.444 6.491 3.736l.4.224c.154.082.26.152.401.223l2.439 1.41c.106.059.094.059.176.106 1.143.693 2.345 1.28 3.476 1.997l3.628 2.08c.142.082.248.153.389.235C48.327 48.083 49.847 49 50 49c.224 0 1.52-.822 1.85-1.022l.636-.376c.212-.13.4-.212.612-.341.224-.13.39-.223.613-.353l1.237-.728c.212-.13.4-.223.6-.353l1.874-1.057c.118-.059.2-.118.306-.176.106-.07.177-.106.306-.177l1.25-.716c.2-.118.423-.294.659-.353-.035-.14-.059-.13-.177-.2l-3.993-2.291c-1.59.834-3.099 1.81-4.677 2.667-.13.07-.236.141-.354.224a14.81 14.81 0 0 1-.73.423l-2.404-1.387c-.836-.423-1.602-.975-2.438-1.41-.189-.106-.377-.223-.542-.317l-4.877-2.797c-.094-.059-.177-.106-.271-.164-.106-.07-.177-.094-.283-.153l-6.244-3.596c-.117-.07-.13-.105-.294-.14.13-.189.282-.2.495-.33.176-.117.341-.176.53-.282l5.43-2.926c.118-.07.118-.082.236-.14.118-.06.177-.083.283-.153.188-.118.377-.2.566-.294l6.773-3.643c.118-.058.154-.094.271-.164L50 24.805c.153 0 2.238 1.211 2.721 1.458.118.059.2.094.318.164.142.083.177.118.342.189l7.493 4.03c.66.411 2.662 1.457 3.369 1.81.801.399 1.567.88 2.368 1.28l4.453 2.41c.153.081.2.105.342.187.53.317.541.047 1.401-.423l1.59-.905c.284-.153 1.356-.834 1.603-.893-.047-.153-.189-.211-.33-.294l-1.614-.88c-.813-.412-1.626-.917-2.438-1.305l-1.614-.881c-.554-.282-1.108-.54-1.626-.87l-8.14-4.383a3.226 3.226 0 0 1-.401-.223l-3.275-1.763c-.153-.082-.247-.14-.4-.223-.083-.047-.118-.059-.19-.094l-4.3-2.327c-.27-.164-1.53-.869-1.684-.869-.13 0-1.036.54-1.237.634l-9.318 5.03c-.153.07-.271.129-.413.211l-6.526 3.514c-.153.082-.224.14-.4.223l-.59.317c-.117.059-.117.082-.212.13-.13.082-.27.117-.412.21l-1.249.67c-.165.083-.247.153-.4.224l-1.897 1.034c-.07.035-.07.023-.13.059-.27.152-.553.258-.813.434-.153.094-.247.13-.412.212l-1.826 1.01c-.141.083-.106.012-.153.177z" clip-rule="evenodd"/>
  </g>
  <defs>
    <clipPath id="a">
      <path fill="#fff" d="M0 0h100v100H0z"/>
    </clipPath>
  </defs>
</svg>
