<svg xmlns="http://www.w3.org/2000/svg" fill="none" viewBox="0 0 800 800">
  <path fill="#6747ED" d="M400 800c220.914 0 400-179.086 400-400S620.914 0 400 0 0 179.086 0 400s179.086 400 400 400Z"/>
  <path fill="#fff" fill-rule="evenodd" d="M371.056 448.829a113.9 113.9 0 0 1-114.251-114.251 113.9 113.9 0 0 1 114.251-114.25 113.901 113.901 0 0 1 114.251 114.25 113.901 113.901 0 0 1-114.251 114.251Zm0-285.627c94.614 0 171.376 76.762 171.376 171.376S465.67 505.954 371.056 505.954 199.68 429.192 199.68 334.578s76.762-171.376 171.376-171.376ZM534.399 514.88c11.603 11.604 11.603 29.456 0 40.167l-114.251 114.25c-11.604 11.604-29.455 11.604-40.166 0-11.604-11.603-11.604-29.455 0-40.166L494.233 514.88c10.711-11.603 29.455-11.603 40.166 0Zm66.051-323.115c0 16.066-12.496 28.563-28.563 28.563-16.066 0-28.562-12.497-28.562-28.563 0-16.067 12.496-28.563 28.562-28.563 15.174 0 28.563 12.496 28.563 28.563Z" clip-rule="evenodd"/>
</svg>
