<svg xmlns="http://www.w3.org/2000/svg" fill="none" viewBox="0 0 100 100">
  <g clip-path="url(#a)">
    <path fill="url(#b)" d="M50 100c27.614 0 50-22.386 50-50S77.614 0 50 0 0 22.386 0 50s22.386 50 50 50z"/>
    <path stroke="url(#c)" stroke-width="4" d="M98.07 50c0 26.508-21.505 48-48.035 48C23.505 98 2 76.508 2 50S23.505 2 50.035 2c26.53 0 48.034 21.492 48.034 48z"/>
    <path fill="#fff" d="M39.73 33.515c2.032-6.313 2.832-12.931 3.418-19.515.056.618.103 1.237.109 1.858.026 12.758.073 25.515.137 38.276.2 4.31.085 8.633.135 12.946.02 1.558-.09 3.289.888 4.608.554.9 1.504 1.637 1.583 2.765-3.813 2.655-7.316 5.72-11 8.547 1.694-4.116 3.166-8.441 3.218-12.946.073-5.403.091-10.812.117-16.217-.011-2.954.01-5.983-.943-8.813-.408-1.236-1.2-2.288-2.09-3.212 2.025-2.426 3.368-5.338 4.429-8.297zM57.174 14c.845 6.162 1.277 12.439 3.349 18.383 1.058 3.399 2.713 6.656 5.064 9.44-2.122 1.855-2.826 4.634-3.099 7.244-.206 2.752-.219 5.516-.125 8.273.088 5.022-.066 10.049.257 15.062.657 3.64 1.706 7.25 3.38 10.598-3.236-2.334-6.332-4.836-9.615-7.109A27.275 27.275 0 0 1 54 74.14c.579-.885 1.277-1.687 1.9-2.543.71-.99.83-2.217.873-3.378.235-18.072.138-36.146.4-54.218zm-7.261 60.174c.865-.572 1.615.41 2.266.85 3.951 2.963 7.834 6.025 11.821 8.94-1.623-.71-3.132-1.66-4.81-2.26-2.784-1.012-5.62-2.177-8.646-2.089-2.938-.118-5.698.977-8.401 1.948C40.35 82.212 38.686 83.135 37 84c4.294-3.287 8.605-6.56 12.913-9.826z"/>
    <path stroke="url(#d)" stroke-linecap="round" d="M50.5 60V25.25"/>
  </g>
  <defs>
    <radialGradient id="b" cx="0" cy="0" r="1" gradientTransform="rotate(-25.942 174.39 -7.835) scale(102.865)" gradientUnits="userSpaceOnUse">
      <stop stop-color="#201762"/>
      <stop offset=".677" stop-color="#505295"/>
      <stop offset="1" stop-color="#2814A8"/>
    </radialGradient>
    <radialGradient id="c" cx="0" cy="0" r="1" gradientTransform="rotate(120.37 32.971 22.953) scale(101.094 101.164)" gradientUnits="userSpaceOnUse">
      <stop stop-color="#FFE816"/>
      <stop offset=".385" stop-color="#83FF48"/>
      <stop offset=".693" stop-color="#F449F8"/>
      <stop offset="1" stop-color="#3347FF"/>
    </radialGradient>
    <linearGradient id="d" x1="51" x2="51" y1="25.25" y2="60" gradientUnits="userSpaceOnUse">
      <stop stop-color="#fff" stop-opacity="0"/>
      <stop offset=".504" stop-color="#fff"/>
      <stop offset="1" stop-color="#fff" stop-opacity="0"/>
    </linearGradient>
    <clipPath id="a">
      <path fill="#fff" d="M0 0h100v100H0z"/>
    </clipPath>
  </defs>
</svg>
