<svg width="24" height="24" viewBox="0 0 24 24" fill="none" xmlns="http://www.w3.org/2000/svg">
<path d="M12 24C18.6274 24 24 18.6274 24 12C24 5.37258 18.6274 0 12 0C5.37258 0 0 5.37258 0 12C0 18.6274 5.37258 24 12 24Z" fill="#375BD2"/>
<path d="M12.2513 8.05437L15.8605 10.1262V14.2904L12.2615 16.375L8.65475 14.3082V10.1466L12.2513 8.05437ZM12.2513 5L10.9277 5.76359L7.32356 7.85583L6 8.61943V15.8405L7.32356 16.6041L10.9328 18.6759L12.2564 19.4395L13.5799 18.6759L17.1764 16.5888L18.5 15.8252V8.59397L17.1764 7.83038L13.5697 5.76359L12.2462 5H12.2513Z" fill="white"/>
</svg>
