<svg xmlns="http://www.w3.org/2000/svg" fill="none" viewBox="0 0 100 100">
  <g clip-path="url(#a)">
    <path fill="#191919" d="M50 100c27.614 0 50-22.386 50-50S77.614 0 50 0 0 22.386 0 50s22.386 50 50 50z"/>
    <path fill="#000" d="M31.882 37.9c10.282-10.534 26.954-10.534 37.236 0L78 47l-8.882 9.1c-10.282 10.533-26.954 10.533-37.236 0L23 47l8.882-9.1z"/>
    <path fill="#0CE466" fill-rule="evenodd" d="M16 46.523 36.514 26h27.972L85 46.523 50.5 81 16 46.523zm50.351-7.472c-8.716-8.752-22.986-8.752-31.702 0l-7.46 7.457 7.46 7.458c8.716 8.752 22.986 8.752 31.702 0l7.46-7.458-7.46-7.457z" clip-rule="evenodd"/>
    <path fill="#000" d="M50.5 53a6.5 6.5 0 1 1 0-13 6.5 6.5 0 0 1 0 13z"/>
    <path fill="#fff" fill-rule="evenodd" d="M40 47c0 6.078 4.703 11 10.5 11S61 53.078 61 47s-4.703-11-10.5-11S40 40.922 40 47zm5.935 0c0 2.642 2.045 4.783 4.565 4.783 2.52 0 4.565-2.14 4.565-4.783 0-2.642-2.045-4.783-4.565-4.783-2.52 0-4.565 2.14-4.565 4.783z" clip-rule="evenodd"/>
  </g>
  <defs>
    <clipPath id="a">
      <path fill="#fff" d="M0 0h100v100H0z"/>
    </clipPath>
  </defs>
</svg>
