<svg width="100" height="100" viewBox="0 0 100 100" fill="none" xmlns="http://www.w3.org/2000/svg">
<g clip-path="url(#clip0_921_152)">
<path d="M50 100C77.6142 100 100 77.6142 100 50C100 22.3858 77.6142 0 50 0C22.3858 0 0 22.3858 0 50C0 77.6142 22.3858 100 50 100Z" fill="url(#paint0_linear_921_152)"/>
<g clip-path="url(#clip1_921_152)">
<path d="M69.375 46.1767V54.8237H78V46.1767H69.375Z" fill="black"/>
<path d="M50.6875 36.0883V44.7354H59.3125V36.0883H50.6875Z" fill="black"/>
<path d="M50.6875 56.2646V64.9116H59.3125V56.2646H50.6875Z" fill="black"/>
<path d="M32 66.3529V75H40.625V66.3529H32Z" fill="black"/>
<path d="M32 46.1767V54.8237H40.625V46.1767H32Z" fill="black"/>
<path d="M32 25.9999V34.647H40.625V25.9999H32Z" fill="black"/>
</g>
</g>
<defs>
<linearGradient id="paint0_linear_921_152" x1="50" y1="0" x2="50" y2="100" gradientUnits="userSpaceOnUse">
<stop stop-color="#67F19E"/>
<stop offset="1" stop-color="#36914F"/>
</linearGradient>
<clipPath id="clip0_921_152">
<rect width="100" height="100" fill="white"/>
</clipPath>
<clipPath id="clip1_921_152">
<rect width="46" height="49" fill="white" transform="translate(32 26)"/>
</clipPath>
</defs>
</svg>
