<svg width="800" height="800" viewBox="0 0 800 800" fill="none" xmlns="http://www.w3.org/2000/svg">
<path d="M400 800C620.914 800 800 620.914 800 400C800 179.086 620.914 0 400 0C179.086 0 0 179.086 0 400C0 620.914 179.086 800 400 800Z" fill="#8247E5"/>
<path d="M530.681 313.315C521.42 308.021 509.512 308.021 498.928 313.315L424.838 356.988L374.562 384.78L301.795 428.454C292.534 433.748 280.627 433.748 270.043 428.454L213.152 394.044C203.891 388.751 197.275 378.163 197.275 366.252V300.08C197.275 289.493 202.568 278.905 213.152 272.288L270.043 239.202C279.304 233.908 291.211 233.908 301.795 239.202L358.686 273.611C367.947 278.905 374.562 289.493 374.562 301.404V345.077L424.838 315.961V270.964C424.838 260.377 419.546 249.789 408.961 243.172L303.118 180.97C293.857 175.677 281.95 175.677 271.366 180.97L162.876 244.496C152.292 249.789 147 260.377 147 270.964V395.368C147 405.955 152.292 416.543 162.876 423.16L270.043 485.362C279.304 490.656 291.211 490.656 301.795 485.362L374.562 443.012L424.838 413.896L497.605 371.546C506.866 366.252 518.774 366.252 529.358 371.546L586.249 404.632C595.51 409.926 602.125 420.513 602.125 432.424V498.596C602.125 509.184 596.833 519.771 586.249 526.389L530.681 559.475C521.42 564.769 509.512 564.769 498.928 559.475L442.037 526.389C432.776 521.095 426.161 510.507 426.161 498.596V456.246L375.886 485.362V529.036C375.886 539.623 381.178 550.211 391.762 556.828L498.928 619.03C508.189 624.323 520.097 624.323 530.681 619.03L637.847 556.828C647.108 551.534 653.723 540.947 653.723 529.036V403.309C653.723 392.721 648.431 382.134 637.847 375.516L530.681 313.315Z" fill="white"/>
<path d="M530.681 313.315C521.42 308.021 509.512 308.021 498.928 313.315L424.838 356.988L374.562 384.78L301.795 428.454C292.534 433.748 280.627 433.748 270.043 428.454L213.152 394.044C203.891 388.751 197.275 378.163 197.275 366.252V300.08C197.275 289.493 202.568 278.905 213.152 272.288L270.043 239.202C279.304 233.908 291.211 233.908 301.795 239.202L358.686 273.611C367.947 278.905 374.562 289.493 374.562 301.404V345.077L424.838 315.961V270.964C424.838 260.377 419.546 249.789 408.961 243.172L303.118 180.97C293.857 175.677 281.95 175.677 271.366 180.97L162.876 244.496C152.292 249.789 147 260.377 147 270.964V395.368C147 405.955 152.292 416.543 162.876 423.16L270.043 485.362C279.304 490.656 291.211 490.656 301.795 485.362L374.562 443.012L424.838 413.896L497.605 371.546C506.866 366.252 518.774 366.252 529.358 371.546L586.249 404.632C595.51 409.926 602.125 420.513 602.125 432.424V498.596C602.125 509.184 596.833 519.771 586.249 526.389L530.681 559.475C521.42 564.769 509.512 564.769 498.928 559.475L442.037 526.389C432.776 521.095 426.161 510.507 426.161 498.596V456.246L375.886 485.362V529.036C375.886 539.623 381.178 550.211 391.762 556.828L498.928 619.03C508.189 624.323 520.097 624.323 530.681 619.03L637.847 556.828C647.108 551.534 653.723 540.947 653.723 529.036V403.309C653.723 392.721 648.431 382.134 637.847 375.516L530.681 313.315Z" fill="white"/>
</svg>
