<svg xmlns="http://www.w3.org/2000/svg" width="100" height="100" fill="none" viewBox="0 0 100 100">
  <g clip-path="url(#a)">
    <path fill="#E1F345" d="M50 100c27.614 0 50-22.386 50-50S77.614 0 50 0 0 22.386 0 50s22.386 50 50 50Z"/>
    <path fill="#0F2C0E" d="M18 48.163v-1.438c.011-.062.026-.123.032-.185.101-.966.158-1.94.31-2.897a17.289 17.289 0 0 1 2.412-6.491c2.203-3.536 5.347-5.912 9.173-7.43 2.998-1.192 6.129-1.707 9.34-1.716 5.254-.017 10.509.007 15.764.016 1.265.002 2.523.113 3.776.297 2.573.378 5.034 1.11 7.351 2.3 2.719 1.398 4.997 3.31 6.72 5.856 2.08 3.074 2.98 6.515 3.108 10.188.048 1.358-.03 2.71-.221 4.057-.28 1.977-.828 3.873-1.71 5.665-1.872 3.8-4.806 6.5-8.592 8.305-3.337 1.59-6.881 2.276-10.554 2.296-5.064.028-10.128.004-15.192.009-1.841.001-3.668-.133-5.48-.474-2.693-.506-5.248-1.393-7.585-2.844-5.288-3.285-8.021-8.124-8.556-14.282-.036-.41-.064-.822-.096-1.232Zm28.963 7.2c2.938 0 5.877.003 8.814-.002a10.791 10.791 0 0 0 3.935-.733c1.767-.69 3.209-1.782 4.126-3.482.82-1.518 1.033-3.147.8-4.844-.28-2.033-1.253-3.658-2.9-4.866-1.722-1.263-3.694-1.825-5.792-1.839-5.828-.036-11.657-.016-17.485-.013-1.563 0-3.086.242-4.534.86-1.747.747-3.11 1.917-3.91 3.673-.661 1.453-.817 2.983-.61 4.558.322 2.439 1.556 4.26 3.701 5.449 1.58.874 3.299 1.226 5.088 1.235 2.922.014 5.844.004 8.766.004h.001ZM75.028 78c-.368-.066-.74-.116-1.105-.201-2.509-.59-4.467-2.778-4.85-5.33-.516-3.44 1.775-6.718 5.244-7.359 3.44-.635 6.79 1.534 7.53 4.992.726 3.387-1.2 6.627-4.478 7.614-.441.133-.905.191-1.358.284h-.983Z"/>
  </g>
  <defs>
    <clipPath id="a">
      <path fill="#fff" d="M0 0h100v100H0z"/>
    </clipPath>
  </defs>
</svg>
