<svg xmlns="http://www.w3.org/2000/svg" fill="none" viewBox="0 0 100 100">
  <g clip-path="url(#a)">
    <path fill="#000" d="M50 100c27.614 0 50-22.386 50-50S77.614 0 50 0 0 22.386 0 50s22.386 50 50 50z"/>
    <path fill="#fff" d="M24.114 25.08c5.66-.073 11.321-.174 16.982.115.014 5.617.029 11.249-.029 16.88-5.617.044-11.249.044-16.866.015-.29-5.675-.217-11.35-.087-17.01zm33.819.101c5.647-.275 11.307-.174 16.968-.101.115 5.66.188 11.335-.087 17.01-5.632.015-11.249.03-16.866-.029a937.553 937.553 0 0 1-.015-16.88zM41.086 42.164a495.574 495.574 0 0 1 16.815 0c.132 5.617.132 11.234 0 16.852-5.6.102-11.2.102-16.8 0a380.824 380.824 0 0 1-.015-16.852zM24.1 75.91c-.102-5.661-.175-11.322.086-16.983a937.564 937.564 0 0 1 16.88.015c.058 5.617.044 11.249.03 16.866-5.661.29-11.336.188-16.997.101zm33.848-16.968c5.632-.072 11.249-.058 16.88-.014.26 5.66.203 11.321.073 16.996-5.66.073-11.321.16-16.968-.116a936.184 936.184 0 0 1 .015-16.866z"/>
  </g>
  <defs>
    <clipPath id="a">
      <path fill="#fff" d="M0 0h100v100H0z"/>
    </clipPath>
  </defs>
</svg>
