<svg width="24" height="24" viewBox="0 0 24 24" fill="none" xmlns="http://www.w3.org/2000/svg">
<path d="M12 24C18.6274 24 24 18.6274 24 12C24 5.37258 18.6274 0 12 0C5.37258 0 0 5.37258 0 12C0 18.6274 5.37258 24 12 24Z" fill="black"/>
<path d="M4.77584 9.13983C3.55525 9.58162 2.77599 11.0951 3.05761 12.5052C3.19842 13.2102 3.35806 13.5392 3.79935 13.9999C4.38148 14.6297 4.75701 14.7707 5.78043 14.7707C6.59726 14.7707 6.71933 14.7425 7.16999 14.4981C8.00561 14.0281 8.46569 13.2854 8.56895 12.2326C8.70039 10.7849 7.86477 9.4312 6.63482 9.08339C6.15597 8.95177 5.23586 8.97996 4.77581 9.13977L4.77584 9.13983ZM6.83201 10.3149C7.38598 10.7191 7.66763 11.6498 7.4705 12.4676C7.0949 14.0469 5.01993 14.3571 4.30639 12.9376C3.87449 12.0916 4.09982 10.7661 4.75704 10.3055C5.30161 9.91064 6.26868 9.92007 6.83204 10.3149H6.83201ZM17.4791 9.17742C15.714 9.88245 15.2164 12.4864 16.5496 14.0657C17.2726 14.9305 18.9814 15.0904 19.7419 14.3571L19.9484 14.1597L19.9766 14.4229C20.0048 14.6579 20.0329 14.6767 20.4742 14.6767H20.9437L20.9718 13.1914L21 11.7156H18.3617V12.6556H19.1598C20.0236 12.6556 20.0517 12.6744 19.8076 13.182C19.6386 13.5299 19.0377 13.8777 18.5871 13.8777C17.5073 13.8777 16.8595 13.1162 16.8595 11.8848C16.8689 10.5217 17.742 9.74143 18.9345 10.0235C19.3945 10.1363 19.8639 10.5405 19.8639 10.8319C19.8639 10.9259 20.0048 10.9635 20.4273 10.9635H20.9812L20.8498 10.5405C20.5587 9.55343 19.8358 9.05519 18.6433 9.0176C18.1176 8.99881 17.8265 9.0364 17.4791 9.17742V9.17742ZM9.34827 11.9036V14.7237H10.2872L10.3059 12.8248L10.3341 10.9165L11.0289 12.8248L11.7237 14.7331L12.1931 14.7049L12.6626 14.6767L13.348 12.7966L14.0334 10.9165L14.0615 12.7966L14.0897 14.6767L14.5873 14.7049L15.0756 14.7331L15.0568 11.9318L15.0286 9.1304H13.7235L12.9724 11.2173C12.5593 12.3736 12.1931 13.2854 12.165 13.2384C12.1274 13.2008 11.7894 12.3078 11.4138 11.2455C11.0383 10.1833 10.6815 9.26202 10.6345 9.19621C10.5782 9.1304 10.3153 9.08342 9.94917 9.08342H9.34827V11.9036V11.9036Z" fill="white"/>
</svg>
