<svg width="100" height="100" viewBox="0 0 100 100" fill="none" xmlns="http://www.w3.org/2000/svg">
<mask id="mask0_1007_136" style="mask-type:luminance" maskUnits="userSpaceOnUse" x="0" y="0" width="100" height="100">
<path d="M0 0H100V100H0V0Z" fill="white"/>
</mask>
<g mask="url(#mask0_1007_136)">
<path d="M50 100C77.6142 100 100 77.6142 100 50C100 22.3858 77.6142 0 50 0C22.3858 0 0 22.3858 0 50C0 77.6142 22.3858 100 50 100Z" fill="#0A76D9"/>
<path d="M40.3142 26.674C40.8817 25.6549 42.0165 24.9833 43.1785 25.0026C48.0351 25.0046 52.8908 25.0026 57.7475 25.0036C61.7878 24.9175 65.832 26.3792 68.9292 28.9917C71.706 31.2982 73.7357 34.5225 74.5521 38.0618C75.5725 42.3376 74.8263 47.0023 72.5396 50.7463C70.5541 54.0091 67.4569 56.58 63.8726 57.8543C62.2005 58.4783 60.4229 58.7872 58.6454 58.85C56.7583 58.846 54.8713 58.8551 52.9842 58.85C52.2973 63.3 51.5642 67.7439 50.8642 72.1919C50.6362 73.7185 49.2443 74.9897 47.7007 74.9968C43.9176 74.9999 40.1345 75.0029 36.3504 74.9948C34.5276 74.9857 32.975 73.1877 33.1829 71.3663C34.1741 64.5126 35.2657 57.673 36.3333 50.8303C36.4146 50.3066 36.5131 49.786 36.5432 49.2562C35.1392 49.244 33.7352 49.2582 32.3322 49.2511C31.6664 49.2521 31.0267 48.9229 30.5858 48.4306C30.1208 47.8593 29.8818 47.0702 30.0575 46.3408C30.2484 45.3846 31.0679 44.5671 32.041 44.4587C33.8146 44.397 35.5941 44.5195 37.3647 44.3858C37.5605 42.7276 37.8658 41.0835 38.1099 39.4324C36.7179 39.4141 35.326 39.4324 33.9341 39.4233C33.0443 39.4344 32.1786 38.8945 31.7889 38.0882C31.5188 37.5867 31.5077 36.9891 31.5971 36.438C31.797 35.5517 32.5431 34.8183 33.4279 34.642C34.2926 34.4668 35.1733 34.6491 36.0451 34.6127C36.9901 34.6116 37.9381 34.6562 38.8811 34.563C39.1513 32.6141 39.4817 30.6732 39.7679 28.7263C39.8784 28.0283 39.9346 27.2889 40.3142 26.674ZM44.4649 29.8628C44.2169 31.4522 43.9748 33.0415 43.7248 34.6299C48.462 34.6289 53.2002 34.643 57.9373 34.6532C60.1749 34.6572 62.3773 35.7938 63.6868 37.6242C64.8157 39.1487 65.3178 41.1362 65.0256 43.0183C64.8096 44.6512 63.9761 46.1666 62.8051 47.3001C61.5196 48.5005 59.7943 49.2319 58.0378 49.2521C52.5082 49.2511 46.9776 49.2501 41.4471 49.2531C40.5814 54.8366 39.7267 60.4212 38.8661 66.0047C38.6823 67.3965 38.389 68.7741 38.2615 70.172C40.9469 70.1771 43.6314 70.169 46.3168 70.1761C46.9857 65.9915 47.6495 61.8049 48.3234 57.6213C48.4288 56.9193 48.5092 56.1758 48.9219 55.5761C49.5175 54.5814 50.6714 53.9706 51.8173 53.9989C53.9594 54.004 56.1015 54.002 58.2426 53.9999C60.4882 53.9564 62.7207 53.2807 64.6098 52.053C67.7331 50.0949 69.8782 46.6123 70.1554 42.9059C70.1936 41.8848 70.2167 40.8516 70.0198 39.8447C69.6914 38.0112 68.9633 36.2375 67.8436 34.7504C65.6904 31.7642 62.1121 29.8851 58.4495 29.8345C55.4347 29.8112 52.4198 29.8304 49.405 29.8243C47.759 29.8456 46.1099 29.7788 44.4649 29.8628ZM42.2083 44.4537C43.298 44.3757 44.3936 44.3949 45.4843 44.4436C46.6914 44.3889 47.9026 44.3919 49.1117 44.4375C50.9164 44.4324 52.7221 44.3706 54.5258 44.4405C55.3614 44.3656 56.1989 44.4567 57.0355 44.4091C57.5919 44.3838 58.1754 44.4891 58.7076 44.2703C59.6677 43.9269 60.3577 42.9211 60.3105 41.8898C60.3044 40.6307 59.1997 39.5023 57.9474 39.4962C55.7028 39.4932 53.4593 39.4851 51.2147 39.484C50.2124 39.4121 49.2061 39.4516 48.2019 39.4415C46.4695 39.4364 44.7371 39.4405 43.0047 39.4304C42.6964 41.0967 42.4443 42.7752 42.2083 44.4537Z" fill="white"/>
</g>
</svg>
