<svg width="100" height="100" viewBox="0 0 100 100" fill="none" xmlns="http://www.w3.org/2000/svg">
<g clip-path="url(#clip0_923_140)">
<path d="M50 100C77.6142 100 100 77.6142 100 50C100 22.3858 77.6142 0 50 0C22.3858 0 0 22.3858 0 50C0 77.6142 22.3858 100 50 100Z" fill="#011D3C"/>
<path d="M29.3652 30.0478L34.3405 27.4139L34.9258 28.5845L53.0709 18.0486L51.9003 17.1707L50.437 16.2927L49.8516 16L20 33.2671V33.8524L28.4872 29.1698L29.3652 30.0478ZM29.3652 41.169L43.7057 32.6818L44.291 33.8524L62.7288 23.3166L61.2655 22.4386L59.8022 21.8533L59.2169 21.5606L20 44.0957V44.681L28.4872 39.9984L29.3652 41.169ZM29.3652 46.437L48.3883 35.6084L48.9736 36.4864L67.4114 25.9505L65.9481 25.3652L64.4848 24.4872L63.8995 24.1946L20 49.3636V50.2416L28.4872 45.2663L29.3652 46.437ZM29.3652 51.7049L53.0709 38.2424L53.6562 39.1204L72.094 28.8772L70.6307 27.9992L69.1674 27.1212L68.5821 26.8285L20 54.9242V55.5095L28.4872 50.8269L29.3652 51.7049ZM29.3652 57.2655L57.7535 40.8764L58.3389 42.047L76.7766 31.5111L75.3133 30.6332L74.1427 30.0478L73.2647 29.4625L20 60.1921V61.0701L28.4872 56.0948L29.3652 57.2655ZM78.5326 32.6818L77.9473 32.0965L20 65.7527V66.338L28.4872 61.6554L29.3652 62.8261L57.7535 46.1443L58.3389 47.3149L79.7033 35.3158V33.2671L78.5326 32.6818ZM23.8046 69.85L28.4872 66.9234L29.0726 68.094L57.7535 51.7049L58.3389 52.8755L79.7033 40.5837V36.7791L22.9266 69.2647L23.8046 69.85ZM57.7535 57.2655L58.3389 58.4361L79.7033 45.8516V42.047L27.6092 72.1913L28.4872 72.484L33.1698 69.5573L34.0478 70.728M33.1698 75.1179L38.1451 72.484L38.7304 73.6546L57.7535 62.5334L58.3389 63.7041L79.7033 51.4122V47.6076L32.2918 74.8253L33.1698 75.1179ZM37.8524 77.7519L42.8277 75.1179L43.413 76.2886L57.7535 68.094L58.3389 69.2647L79.7033 56.9728V52.8755L36.9745 77.4592L37.8524 77.7519ZM41.6571 80.0932L42.5351 80.6785L47.5103 77.7519L48.0957 78.9226L57.7535 73.362L58.3389 74.5326L79.7033 62.2408V58.4361L41.6571 80.0932ZM47.2177 83.3125L51.9003 80.3859L52.7783 81.5565L57.7535 78.9226L58.3389 80.0932L79.7033 67.8014V63.7041L46.6323 83.0198L47.2177 83.3125ZM58.0462 20.6826L56.5829 19.8046L55.1196 19.2193L54.5342 18.634L20 38.5351V39.413L28.4872 34.4378L29.3652 35.6084L39.0231 30.0478L39.6084 31.2185L58.0462 20.6826Z" fill="white"/>
</g>
<defs>
<clipPath id="clip0_923_140">
<rect width="100" height="100" fill="white"/>
</clipPath>
</defs>
</svg>
