<svg width="20" height="20" viewBox="0 0 20 20" fill="none" xmlns="http://www.w3.org/2000/svg">
<mask id="mask0_951_158" style="mask-type:luminance" maskUnits="userSpaceOnUse" x="0" y="0" width="20" height="20">
<path d="M0 0H20V20H0V0Z" fill="white"/>
</mask>
<g mask="url(#mask0_951_158)">
<path d="M10 20C15.5228 20 20 15.5228 20 10C20 4.47715 15.5228 0 10 0C4.47715 0 0 4.47715 0 10C0 15.5228 4.47715 20 10 20Z" fill="white"/>
<path d="M6.87697 4.85862C9.05499 3.48646 12.0607 3.80525 13.9872 5.4843C13.3675 5.69815 12.9081 6.20305 12.3121 6.45055C11.7379 6.6545 11.2429 6.23671 10.8291 5.89615C9.98164 5.1972 8.58969 5.18928 7.80164 5.98525C7.3106 6.43867 6.82747 6.89804 6.33444 7.3475C6.58195 7.62867 6.83143 7.90785 7.07497 8.19297C7.7264 7.67025 8.22338 6.93566 8.98569 6.56738C9.6589 6.28225 10.2054 6.84458 10.6984 7.2089C11.5379 7.86627 12.7893 7.65243 13.5754 7.00892C13.9476 6.68618 14.4129 6.51985 14.904 6.53569C16.2286 8.44443 16.3118 11.0561 15.1554 13.0658C14.4525 12.5431 13.51 12.3589 12.6765 12.654C12.1003 12.8025 11.7617 13.4499 11.136 13.444C10.1242 13.5786 9.7381 12.3174 8.76987 12.2619C7.37792 11.9174 6.37603 13.1014 5.42562 13.8935C4.61381 12.9569 4.14652 11.7748 4 10.5512C4.51877 10.0799 5.33849 9.87005 5.91072 10.3809C6.56611 10.9907 7.47296 11.3531 8.37189 11.1749C9.44506 11.0046 10.0054 9.69581 11.1558 9.77303C12.1438 9.96311 12.7378 10.8878 13.5041 11.462C13.7496 11.1808 13.9971 10.8997 14.2426 10.6185C13.2764 9.87401 12.4725 8.6662 11.1301 8.65036C10.2054 8.58502 9.41932 9.11962 8.77383 9.71561C8.24913 10.2482 7.35218 10.2106 6.84925 9.66809C6.11268 8.92954 4.96229 8.76718 4.01188 9.1513C4.2772 7.39304 5.34047 5.76547 6.87697 4.85862Z" fill="#EE3E3E"/>
<path d="M6.23352 14.6874C6.95821 14.1469 7.64131 13.0599 8.68677 13.4182C9.28671 13.6994 9.67678 14.3469 10.3599 14.4795C11.2568 14.7746 12.1439 14.3449 12.8606 13.834C13.3715 13.4618 13.9992 13.6756 14.4902 13.9628C13.1874 15.4398 11.1361 16.222 9.18177 15.9448C8.10464 15.818 7.10077 15.325 6.23352 14.6874Z" fill="#EE3E3E"/>
</g>
</svg>
