<svg xmlns="http://www.w3.org/2000/svg" fill="none" viewBox="0 0 100 100">
  <path fill="#F00500" d="M50 100c27.614 0 50-22.386 50-50S77.614 0 50 0 0 22.386 0 50s22.386 50 50 50z"/>
  <path fill="#000" d="M72.438 48.55c-.038.199-.63.798-1.224 1.235-1.742 1.26-4.859 2.433-8.027 2.995-1.804.324-3.61.374-4.152.112-.353-.175-.404-.312-.277-.761.265-.936 1.123-1.96 2.46-2.92.682-.487 3.446-2.147 4.733-2.846 2.12-1.148 3.837-1.834 4.998-1.996.366-.05.808-.063.947 0 .227.087.48.749.58 1.547.05.425.025 2.296-.038 2.633zm-29.734 4.13c-.076.15-.455.312-.883.374-.43.063-1.742.025-2.487-.062-2.675-.35-5.515-1.16-7.585-2.159-1.16-.561-1.994-1.123-2.612-1.734l-.354-.362-.037-.474c-.063-.824-.05-2.122.05-2.584.063-.386.202-.76.391-1.098.101-.125.101-.125.556-.125.555 0 1.022.088 1.78.325 1.551.474 3.861 1.622 6.675 3.294 2.322 1.373 3.193 2.047 3.862 2.97.455.574.758 1.385.644 1.635zm17.871 17.37c0 .037-.152.636-.34 1.348-.19.71-.342 1.285-.342 1.31-.138.012-.265.025-.404.012h-.403l-.556 1.298c-.303.711-.58 1.373-.618 1.473l-.076.174-.265-.424-.265-.424V71.36l-.1.025c-.215.05-1.742.25-2.411.312-2.764.275-5.54.212-8.292-.175-.442-.062-.82-.112-.833-.1-.013.013 0 .812.025 1.797l.038 1.772-.214.325c-.114.175-.228.324-.228.337-.037.037-.164-.162-.454-.737a8.369 8.369 0 0 1-.707-1.896l-.088-.362-.391.025-.392.037-.1-.461a14.09 14.09 0 0 1-.14-.849l-.037-.4-.328-.286a11.39 11.39 0 0 0-.417-.35c-.063-.05-.088-.137-.088-.212v-.15l1.578.013 1.577.012.05.163.051.162.543.025c.303.012 1.262.037 2.12.062l1.578.038.403-.624.417-.624h.53l-.013-1.298-.012-1.298-.694-.3c-2.234-.973-3.547-2.083-4.039-3.43-.101-.275-.101-.375-.126-1.623-.013-1.235-.013-1.348.075-1.622a1.825 1.825 0 0 1 1.3-1.273c.215-.063.783-.063 3.761-.063l3.509.013.391.187c.467.225.682.387.947.736.303.4.39.712.39 1.473 0 1.086-.075 2.021-.188 2.396a5.15 5.15 0 0 1-.732 1.435c-.631.798-1.78 1.597-2.828 1.959l-.302.112.012 1.31.013 1.31.277.026.278.025.379.561.366.562h1.691c.934 0 1.754.012 1.83.025.126.025.151.012.278-.2l.151-.225h1.451c1.086-.05 1.414-.025 1.414.013z"/>
  <path fill="#000" d="M53.911 73.631c-.24.137-.403.2-.441.175-.038-.013-.215-.162-.404-.3l-.34-.274-.354.374c-.77.824-.795.861-1.023.874-.353.037-.428-.025-.858-.662-.227-.324-.404-.599-.404-.599s-.164-.025-.353-.037l-.353-.038-.164.337-.164.337-.29-.087a6.196 6.196 0 0 1-.67-.262l-.378-.187v-.712l3.357.013 3.357.012.013.337c.012.4.025.387-.53.699z"/>
  <path fill="#fff" d="M85.462 58.407c-.012-.05-.012-.137-.025-.274-3.029-.325-11.674-.524-19.7 6.027 0 0-2.588-11.73-14.703-11.73-12.116 0-16.61 11.73-16.61 11.73-6.789-7.225-15.876-6.701-19.157-6.227 0 .075-.013.162-.013.237-.1 1.81-.05 2.67.253 3.806.946 3.557 3.862 7.475 8.43 11.318 7.484 6.29 17.631 10.832 25.317 11.356 8.014.536 19.84-4.093 27.715-10.857a39.366 39.366 0 0 0 3.483-3.456c.782-.898 1.944-2.446 1.855-2.446-.025 0 0-.025.05-.05.038-.025.076-.062.051-.087-.013-.013.013-.05.05-.063.038-.012.064-.037.051-.062-.013-.025 0-.05.05-.062.038-.013.051-.05.038-.075-.012-.025 0-.05.026-.05.025 0 .05-.038.05-.063s.025-.062.05-.062c.026 0 .051-.025.051-.05.038-.1.101-.2.164-.287.19-.287.947-1.622 1.048-1.847.719-1.61 1.173-3.044 1.388-4.48.076-.686.139-1.946.088-2.246zM53.911 73.631c-.24.138-.404.2-.442.175-.038-.013-.214-.162-.404-.3l-.34-.274-.354.374c-.77.824-.795.861-1.022.874-.353.037-.43-.025-.858-.662-.227-.324-.404-.599-.404-.599s-.164-.024-.353-.037l-.354-.037-.164.337-.164.336-.29-.087a6.17 6.17 0 0 1-.67-.262l-.378-.187v-.711l3.357.012 3.357.013.013.336c.013.4.025.387-.53.7zm6.31-2.246c-.19.711-.34 1.285-.34 1.31-.14.013-.266.025-.404.013h-.404l-.543 1.31c-.303.711-.58 1.373-.618 1.473l-.076.174-.265-.424-.265-.424V71.36l-.101.025c-.215.05-1.742.25-2.41.312a34.754 34.754 0 0 1-8.292-.175c-.442-.062-.82-.112-.833-.1-.013.013 0 .812.025 1.797l.038 1.772-.215.325c-.113.175-.227.324-.227.337-.038.037-.164-.162-.454-.737a8.369 8.369 0 0 1-.707-1.896l-.088-.362-.392.025-.39.037-.102-.461c-.05-.25-.113-.637-.139-.849l-.037-.4-.329-.286a10.818 10.818 0 0 0-.416-.35c-.063-.05-.088-.137-.088-.212v-.15l1.577.013 1.578.012.05.163.05.162.543.025c.303.012 1.262.037 2.12.062l1.578.038.404-.624.416-.624h.53l-.012-1.298-.013-1.298-.694-.3c-2.234-.973-3.546-2.083-4.038-3.43-.101-.275-.101-.375-.127-1.623-.012-1.235-.012-1.348.076-1.622a1.825 1.825 0 0 1 1.3-1.273c.215-.063.783-.063 3.761-.063l3.509.013.39.187c.468.225.682.387.947.736.303.4.392.712.392 1.473 0 1.086-.076 2.021-.19 2.396a5.148 5.148 0 0 1-.732 1.435c-.63.798-1.78 1.597-2.827 1.959l-.303.112.013 1.31.013 1.31.277.026.278.025.379.561.366.562h1.69c.935 0 1.755.012 1.83.025.127.025.152.012.278-.2l.152-.225h1.451c1.123 0 1.451.013 1.451.05-.037-.012-.202.6-.39 1.298z"/>
  <path fill="#FFA409" d="M85.36 57.135a41.767 41.767 0 0 0-.113-1.735c-.542-5.665-2.006-10.295-4.783-15.199a4.315 4.315 0 0 1-.278-.524c-.025-.037-.037-.075-.05-.1.391-1.16 1.994-6.014 3.269-11.567 1.729-7.538 2.827-16.347-.53-18.993 0 0-5.806-.424-13.58 7.113a51.714 51.714 0 0 0-5.755 6.75l-.543-.174a39.793 39.793 0 0 0-9.642-1.847c-.984-.075-4.657-.075-5.856 0-3.622.237-6.398.774-9.553 1.86-.127.05-.24.087-.354.124a50.98 50.98 0 0 0-5.944-6.7c-8.09-7.575-14.11-7.138-14.11-7.138-3.559 2.732-2.347 11.942-.505 19.728 1.212 5.154 2.701 9.684 3.256 11.318a2.786 2.786 0 0 1-.138.275c-2.941 5.89-4.531 11.568-4.91 17.607 3.294-.474 12.368-1.01 19.17 6.227 0 0 4.494-11.73 16.61-11.73 12.115 0 14.702 11.73 14.702 11.73 8.027-6.551 16.672-6.34 19.7-6.027-.012-.25-.037-.624-.062-.998zM22.676 35.347s-4.72-11.668-3.509-18.331c.202-1.123.58-2.109 1.174-2.858 0 0 5.351.524 13.983 10.008 0 0-1.64.786-3.836 2.458 0 0-.013.013-.025.013-2.386 1.81-5.44 4.68-7.787 8.71zM42.703 52.68c-.075.15-.454.312-.883.374-.43.062-1.742.025-2.486-.062-2.676-.35-5.515-1.16-7.585-2.16-1.161-.56-1.994-1.122-2.613-1.734l-.353-.362-.038-.474c-.063-.823-.05-2.121.05-2.583.064-.387.203-.761.392-1.098.1-.125.1-.125.555-.125.555 0 1.023.088 1.78.325 1.552.474 3.862 1.622 6.676 3.294 2.322 1.373 3.193 2.047 3.862 2.97.454.574.757 1.385.643 1.635zm29.734-4.13c-.037.199-.63.798-1.224 1.235-1.741 1.26-4.859 2.433-8.026 2.995-1.805.324-3.61.374-4.153.112-.353-.175-.403-.312-.277-.761.265-.936 1.123-1.96 2.46-2.92.682-.487 3.446-2.147 4.734-2.846 2.12-1.148 3.836-1.834 4.997-1.996.366-.05.808-.063.947 0 .227.087.48.749.58 1.547.05.425.026 2.296-.038 2.633zm-2.095-21.926-.025-.012c-2.12-1.672-3.71-2.458-3.71-2.458C74.949 14.67 80.11 14.146 80.11 14.146c.568.761.934 1.734 1.136 2.857 1.173 6.664-3.383 18.344-3.383 18.344a29.816 29.816 0 0 0-7.522-8.723z"/>
  <path fill="#FF9300" d="M81.26 17.004c-.985-.125-5.642-.15-10.917 9.62l-.026-.012c-2.12-1.672-3.71-2.458-3.71-2.458C74.949 14.67 80.11 14.146 80.11 14.146c.58.761.946 1.734 1.148 2.858z"/>
  <path fill="#FF8300" d="M77.877 35.347a29.699 29.699 0 0 0-7.535-8.722c5.276-9.771 9.92-9.746 10.917-9.621 1.174 6.676-3.382 18.343-3.382 18.343z"/>
  <path fill="#FF8300" d="M81.448 17.041a126.51 126.51 0 0 1-.19-.037l.19.037z"/>
  <path fill="#FF9300" d="M34.324 24.154s-1.641.786-3.837 2.458c0 0-.013.013-.025.013-5.465-9.784-10.273-9.746-11.308-9.621.202-1.124.58-2.11 1.174-2.858.012 0 5.363.524 13.996 10.008z"/>
  <path fill="#FF8300" d="M30.474 26.625c-2.398 1.822-5.452 4.68-7.8 8.722 0 0-4.72-11.667-3.508-18.343 1.022-.125 5.843-.15 11.308 9.62zm-11.308-9.621-.202.037.202-.037z"/>
  <path fill="#fff" d="M65.105 41.823s-4.038.25-3.534-2.87c.505-3.12 3.66-3.494 4.544-3.37.883.126 4.417 1.373 3.786 3.994-.631 2.62-1.514 2.121-2.02 2.246-.504.125-2.776 0-2.776 0zm-29.785 0s-4.038.25-3.533-2.87c.505-3.12 3.66-3.494 4.543-3.37.884.126 4.417 1.373 3.786 3.994-.63 2.62-1.514 2.121-2.019 2.246-.505.125-2.776 0-2.776 0z"/>
</svg>
