<svg width="800" height="800" viewBox="0 0 800 800" fill="none" xmlns="http://www.w3.org/2000/svg">
<path d="M400 800C620.914 800 800 620.914 800 400C800 179.086 620.914 0 400 0C179.086 0 0 179.086 0 400C0 620.914 179.086 800 400 800Z" fill="#FF93A1"/>
<path d="M328.033 154.651C348.048 142.507 371.424 135.546 394.909 136.023C410.262 136.912 425.615 139.406 440.318 143.938C447.149 146.866 456.582 148.774 458.534 157.166C460.724 174.319 455.563 191.277 456.452 208.473C496.829 226.06 531.417 255.161 559.217 289.033C592.396 330.105 617.03 378.874 625.856 431.201C628.783 448.961 629.174 467.176 627.287 485.066C620.087 547.736 578.929 605.961 521.095 631.831C485.401 647.748 447.517 660.672 408.116 661.93C361.688 662.993 314.501 651.955 274.687 627.624C243.092 607.609 218.371 577.727 202.693 543.92C193.758 524.707 186.234 504.236 185.28 482.898C182.135 464.314 185.475 445.448 187.925 426.994C197.9 370.504 223.662 317.072 261.026 273.593C281.301 250.369 304.461 229.03 331.893 214.588C330.895 196.221 324.932 178.461 323.761 160.093C323.262 157.296 326.081 155.843 328.033 154.651ZM343.624 168.529C343.668 170.242 343.776 173.647 343.819 175.36C345.836 187.547 347.766 199.777 349.913 211.943C352.168 224.108 361.471 233.606 371.533 240.09C366.112 239.222 360.669 238.507 355.247 237.661C351.301 235.059 347.115 232.782 342.865 230.7C330.201 238.333 317.494 246.053 306.282 255.79C267.401 290.508 237.237 334.962 219 383.775C204.037 423.633 199.527 468.109 210.781 509.484C222.556 554.155 252.417 594.077 292.881 616.673C328.423 636.407 369.841 643.91 410.197 642.457C460.897 639.421 511.966 622.745 551.107 589.675C584.09 561.745 605.125 520.153 607.185 476.913C609.202 463.273 607.293 449.59 606.144 435.993C599.205 384.794 574.028 337.629 541.219 298.336C515.023 268.367 483.732 241.803 446.932 225.951C443.332 228.77 439.646 231.459 435.808 233.91C429.887 235.341 423.946 236.642 417.896 237.314C423.967 232.695 430.299 227.838 433.682 220.768C438.735 212.42 438.149 202.358 439.104 192.99C438.843 183.513 440.079 173.798 437.629 164.539C424.076 156.537 408.007 155.019 392.719 153.263C375.48 153.892 357.98 158.792 343.624 168.529Z" fill="#004531"/>
<path d="M343.627 168.529C357.982 158.792 375.482 153.892 392.722 153.263C408.01 155.019 424.079 156.537 437.632 164.539C435.702 174.579 424.924 177.225 416.446 179.458C392.592 184.706 366.31 186.766 343.822 175.36C343.779 173.647 343.67 170.242 343.627 168.529Z" fill="#ECB749"/>
<path d="M437.632 164.539C440.082 173.799 438.846 183.514 439.107 192.99C438.152 202.358 438.738 212.42 433.685 220.769C430.302 227.838 423.97 232.695 417.899 237.314C402.958 242.063 386.932 243.69 371.536 240.09C361.474 233.606 352.171 224.108 349.916 211.943C347.769 199.777 345.839 187.547 343.822 175.36C366.31 186.766 392.592 184.706 416.446 179.458C424.925 177.225 435.702 174.579 437.632 164.539Z" fill="#DE8845"/>
<path d="M435.809 233.91C439.647 231.459 443.334 228.77 446.933 225.951C483.733 241.803 515.025 268.367 541.22 298.336C574.03 337.629 599.206 384.795 606.145 435.993C607.295 449.59 609.203 463.273 607.186 476.913C605.126 520.153 584.092 561.745 551.109 589.675C511.967 622.745 460.899 639.421 410.199 642.457C369.843 643.91 328.424 636.407 292.882 616.673C252.418 594.077 222.558 554.155 210.783 509.484C199.528 468.109 204.039 423.633 219.001 383.775C237.238 334.962 267.402 290.508 306.284 255.79C317.495 246.053 330.202 238.333 342.867 230.7C347.117 232.782 351.302 235.059 355.249 237.661C357.743 248.287 358.458 259.238 361.364 269.755C362.405 274.049 365.744 277.171 368.932 279.947C363.728 278.733 358.632 273.789 353.059 276.304C350.305 277.258 347.659 278.472 344.992 279.643C345.1 281.075 345.187 282.506 345.295 283.959C340.85 285.737 336.383 287.537 331.677 288.534C314.372 288.469 299.193 298.9 288.177 311.477C272.585 329.064 261.678 352.31 263.412 376.229C261.2 378.506 258.989 380.783 256.885 383.168C244.221 405.656 237.976 431.591 238.128 457.353C234.831 460.02 231.492 462.601 228.109 465.16C225.247 453.688 222.688 442.152 220.107 430.594C218.763 451.606 221.734 472.728 225.594 493.328C230.494 489.057 235.308 484.654 239.971 480.101C245.522 519.177 265.928 556.627 297.436 580.719C356.593 622.875 440.233 621.878 501.385 584.341C517.323 587.095 533.023 578.377 543.736 567.166C550.545 560.487 552.171 549.775 547.466 541.426C563.924 517.572 572.338 488.558 571.861 459.63C572.382 445.947 570.018 432.437 568.543 418.905C569.563 417.301 570.625 415.717 571.688 414.134C581.121 422.982 589.448 432.935 598.707 441.978C589.968 426.755 581.988 410.903 570.56 397.437C568.76 400.061 566.982 402.728 565.182 405.352C562.19 394.358 558.525 383.559 554.21 373.02C552.692 364.649 543.866 363.109 537.122 360.811C538.445 351.269 530.898 344.525 526.041 337.326C519.166 327.156 509.56 319.349 501.016 310.675C494.879 304.646 487.81 299.203 478.984 298.141C479.331 297.295 480.025 295.647 480.35 294.801C472.674 292.373 464.824 290.291 457.689 286.453C444.375 279.34 428.306 277.193 413.799 281.725C420.261 278.819 427.352 276.564 432.73 271.815C435.809 259.433 434.291 246.509 435.809 233.91Z" fill="#70BA95"/>
<path d="M417.896 237.314C423.946 236.642 429.888 235.341 435.808 233.91C434.29 246.509 435.808 259.433 432.729 271.815C427.351 276.564 420.26 278.82 413.798 281.725C399.074 286.474 383.352 285.021 368.931 279.947C365.744 277.171 362.404 274.049 361.363 269.755C358.457 259.238 357.742 248.287 355.248 237.661C360.669 238.507 366.112 239.223 371.534 240.09C386.93 243.69 402.955 242.063 417.896 237.314Z" fill="#8CB973"/>
<path d="M353.06 276.304C358.633 273.788 363.729 278.733 368.933 279.947C383.354 285.021 399.075 286.474 413.8 281.725C428.307 277.193 444.376 279.34 457.69 286.452C464.825 290.291 472.675 292.372 480.351 294.801C480.026 295.647 479.332 297.295 478.985 298.141C487.811 299.203 494.88 304.646 501.017 310.675C509.561 319.349 519.167 327.155 526.042 337.326C530.899 344.525 538.446 351.269 537.123 360.811C507.891 351.92 477.098 352.874 446.978 350.423C405.017 348.819 363.252 353.611 321.725 358.946C331.7 346.824 338.986 332.143 340.786 316.443C342.022 306.489 340.591 294.671 331.678 288.534C336.384 287.537 340.851 285.737 345.296 283.959C345.188 282.506 345.101 281.075 344.993 279.643C347.66 278.472 350.306 277.258 353.06 276.304Z" fill="#7ABAA3"/>
<path d="M288.178 311.477C299.194 298.9 314.374 288.469 331.678 288.534C340.591 294.671 342.022 306.49 340.786 316.443C338.986 332.143 331.7 346.824 321.725 358.946C311.034 370.548 300.343 384.383 284.361 388.503C275.145 391.235 265.734 385.358 263.414 376.229C261.679 352.31 272.586 329.064 288.178 311.477Z" fill="white"/>
<path d="M499.691 570.809C505.416 555.998 517.603 543.052 533.65 539.994C538.312 539.257 542.931 540.363 547.463 541.425C552.169 549.774 550.542 560.487 543.733 567.166C533.021 578.377 517.321 587.094 501.382 584.34C499.712 580.025 498.802 575.406 499.691 570.809Z" fill="white"/>
<path d="M321.725 358.946C363.252 353.611 405.018 348.819 446.978 350.423C477.099 352.874 507.892 351.92 537.123 360.811C543.867 363.109 552.693 364.649 554.211 373.019C549.787 376.424 545.103 379.612 539.791 381.411C508.672 392.644 475.603 396.83 442.815 399.866C408.162 402.966 373.227 402.771 338.64 398.976C316.239 396.396 293.469 395.919 271.589 390.042C266.298 388.676 261.549 385.9 256.887 383.168C258.99 380.783 261.202 378.506 263.414 376.229C265.734 385.358 275.146 391.235 284.362 388.503C300.344 384.382 311.034 370.547 321.725 358.946Z" fill="#FFD3DA"/>
<path d="M539.787 381.411C545.1 379.611 549.784 376.423 554.208 373.019C558.523 383.558 562.188 394.357 565.18 405.351C556.333 418.644 546.271 431.07 536.773 443.907C522.352 434.756 503.747 430.788 487.092 435.233C480.674 431.937 474.32 428.532 468.053 424.954C461.092 420.878 454.153 416.736 446.953 413.049C418.763 432.349 393.933 456.051 367.586 477.671C366.783 478.126 365.2 479.059 364.42 479.536C344.99 469.582 328.509 455.01 311.725 441.283C303.333 434.864 296.133 426.646 286.679 421.788C275.728 423.805 268.832 434.583 259.572 440.264C252.416 445.967 245.282 451.649 238.126 457.352C237.974 431.59 244.219 405.655 256.883 383.167C261.546 385.9 266.295 388.675 271.586 390.041C293.466 395.918 316.235 396.395 338.636 398.976C373.224 402.771 408.159 402.966 442.811 399.865C475.599 396.829 508.669 392.644 539.787 381.411Z" fill="#FFAFBC"/>
<path d="M547.442 456.42C554.533 443.952 560.952 431.092 568.542 418.905C570.016 432.437 572.38 445.947 571.86 459.63C572.337 488.558 563.923 517.572 547.464 541.426C542.932 540.364 538.313 539.258 533.65 539.995C538.031 537.956 541.609 534.443 543.409 529.911C551.649 511.436 556.42 490.726 553.427 470.472C552.733 465.311 549.936 460.844 547.442 456.42Z" fill="#FFAFBC"/>
<path d="M438.585 435.884C445.633 430.593 455.283 431.612 462.916 435.06C464.347 435.689 465.757 436.339 467.166 437.033C453.743 441.804 440.19 446.38 427.656 453.232C421.628 456.571 415.339 459.391 408.898 461.884C417.442 451.844 427.83 443.474 438.585 435.884Z" fill="#FFAFBC"/>
<path d="M293.923 446.769C299.626 450.13 305.069 453.925 310.361 457.959C329.292 471.729 345.512 488.73 362.34 504.885C351.844 517.723 342.151 532.078 338.616 548.516C335.559 561.895 342.997 575.622 354.143 582.865C371.621 594.661 393.545 599.302 414.406 596.743C444.071 593.317 473.411 585.142 499.693 570.808C498.804 575.405 499.715 580.024 501.385 584.339C440.233 621.876 356.593 622.874 297.436 580.718C265.928 556.626 245.522 519.176 239.971 480.099C246.606 473.724 253.242 467.348 259.943 461.081C262.502 466.351 262.458 474.851 269.202 476.651C281.433 471.056 288.719 458.609 293.923 446.769Z" fill="#FFAFBC"/>
<path d="M565.182 405.352C566.981 402.728 568.76 400.061 570.56 397.437C581.988 410.903 589.968 426.755 598.707 441.978C589.447 432.936 581.12 422.982 571.687 414.135C570.625 415.718 569.562 417.301 568.543 418.905C560.953 431.092 554.534 443.952 547.443 456.42C543.843 463.23 540.027 469.887 535.95 476.414C527.493 472.966 520.142 467.523 512.227 463.121C515.111 458.654 517.886 454.1 520.597 449.546C526.994 452.127 533.717 450.435 536.774 443.908C546.272 431.071 556.334 418.645 565.182 405.352Z" fill="#ABF8E5"/>
<path d="M367.586 477.671C393.933 456.051 418.763 432.349 446.953 413.049C454.153 416.736 461.092 420.878 468.053 424.954C466.557 428.424 464.887 431.829 462.914 435.06C455.281 431.612 445.631 430.593 438.583 435.884C427.827 443.474 417.44 451.844 408.896 461.884C400.2 470.732 392.806 480.685 385.129 490.4C378.32 487.646 370.188 485.434 367.586 477.671Z" fill="#94F2C5"/>
<path d="M259.576 440.265C268.836 434.584 275.732 423.806 286.683 421.79C296.137 426.647 303.337 434.866 311.729 441.284C310.58 446.771 309.994 452.366 310.363 457.96C305.072 453.927 299.629 450.132 293.925 446.771C289.762 444.472 285.23 442.239 280.35 442.781C274.821 446.532 270.419 451.65 265.409 456.03C263.284 450.848 261.354 445.578 259.576 440.265Z" fill="#A7F6E0"/>
<path d="M468.055 424.955C474.322 428.533 480.676 431.937 487.095 435.233C497.807 441.002 509.127 445.555 520.598 449.545C517.888 454.099 515.112 458.653 512.228 463.12C496.983 454.793 482.628 444.905 467.166 437.033C465.757 436.339 464.347 435.689 462.916 435.06C464.889 431.829 466.559 428.424 468.055 424.955Z" fill="#A0F5D6"/>
<path d="M225.596 493.328C221.736 472.727 218.765 451.606 220.11 430.593C222.69 442.151 225.249 453.688 228.112 465.159C231.494 462.6 234.834 460.02 238.13 457.353C245.286 451.649 252.421 445.968 259.577 440.265C261.355 445.578 263.285 450.847 265.41 456.03C263.588 457.7 261.767 459.391 259.945 461.083C253.245 467.35 246.609 473.725 239.973 480.1C235.311 484.654 230.497 489.056 225.596 493.328Z" fill="#B2F8EE"/>
<path d="M487.094 435.234C503.748 430.788 522.354 434.757 536.774 443.908C533.717 450.435 526.994 452.127 520.597 449.546C509.126 445.556 497.806 441.002 487.094 435.234Z" fill="#FF93A1"/>
<path d="M427.654 453.233C440.188 446.38 453.741 441.805 467.164 437.034C482.625 444.906 496.981 454.794 512.225 463.121C520.14 467.523 527.492 472.966 535.949 476.414C540.026 469.887 543.842 463.23 547.442 456.421C549.936 460.844 552.733 465.312 553.427 470.473C556.42 490.726 551.649 511.436 543.409 529.911C541.609 534.444 538.031 537.957 533.65 539.995C517.603 543.053 505.416 555.999 499.691 570.81C473.409 585.143 444.069 593.319 414.404 596.745C393.543 599.304 371.619 594.663 354.141 582.866C342.995 575.624 335.557 561.897 338.615 548.517C342.149 532.08 351.842 517.724 362.338 504.887C364.745 506.795 367.477 508.226 370.231 509.571C375.262 503.217 380.207 496.82 385.129 490.401C392.806 480.686 400.2 470.733 408.896 461.885C415.336 459.392 421.625 456.572 427.654 453.233Z" fill="#FF93A1"/>
<path d="M265.408 456.03C270.417 451.65 274.819 446.532 280.349 442.78C285.228 442.238 289.76 444.472 293.924 446.77C288.719 458.61 281.433 471.058 269.203 476.653C262.459 474.853 262.502 466.352 259.943 461.083C261.765 459.391 263.586 457.7 265.408 456.03Z" fill="#FF93A1"/>
<path d="M310.362 457.96C309.993 452.365 310.579 446.77 311.728 441.284C328.512 455.01 344.993 469.583 364.423 479.536C365.203 479.059 366.786 478.127 367.589 477.671C370.191 485.435 378.323 487.646 385.132 490.4C380.209 496.819 375.265 503.216 370.234 509.57C367.48 508.226 364.748 506.794 362.341 504.886C345.513 488.731 329.293 471.73 310.362 457.96Z" fill="#9CF3D0"/>
</svg>
