<svg width="800" height="800" fill="none" xmlns="http://www.w3.org/2000/svg">
  <path d="M400 800c220.914 0 400-179.086 400-400S620.914 0 400 0 0 179.086 0 400s179.086 400 400 400Z" fill="#000"/>
  <g clip-path="url(#a)">
    <path d="M568.658 299.129a15.1 15.1 0 0 1-10.745 4.521H177.227c-13.457 0-20.273-16.439-10.866-26.202l62.444-64.808a15.097 15.097 0 0 1 10.858-4.64h382.112c13.537 0 20.318 16.61 10.744 26.325l-63.861 64.804Zm0 289.46a15.279 15.279 0 0 1-10.745 4.404H177.227c-13.457 0-20.273-16.027-10.866-25.547l62.444-63.191a15.293 15.293 0 0 1 10.865-4.521h382.105c13.537 0 20.318 16.194 10.744 25.666l-63.861 63.189Zm0-230.321a15.281 15.281 0 0 0-10.745-4.4H177.227c-13.457 0-20.273 16.028-10.866 25.547l62.444 63.189a15.283 15.283 0 0 0 10.858 4.521h382.112c13.537 0 20.318-16.194 10.744-25.664l-63.861-63.193Z" fill="url(#b)"/>
  </g>
  <defs>
    <linearGradient id="b" x1="196.683" y1="603.429" x2="602.356" y2="198.497" gradientUnits="userSpaceOnUse">
      <stop stop-color="#CF41E8"/>
      <stop offset="1" stop-color="#10F2B0"/>
    </linearGradient>
    <clipPath id="a">
      <path fill="#fff" transform="translate(162 208)" d="M0 0h475v385H0z"/>
    </clipPath>
  </defs>
</svg>
