<svg width="100" height="100" viewBox="0 0 100 100" fill="none" xmlns="http://www.w3.org/2000/svg">
<g clip-path="url(#clip0_921_252)">
<path d="M50 100C77.6142 100 100 77.6142 100 50C100 22.3858 77.6142 0 50 0C22.3858 0 0 22.3858 0 50C0 77.6142 22.3858 100 50 100Z" fill="white"/>
<g clip-path="url(#clip1_921_252)">
<path d="M49.9999 70.9045C40.384 70.9045 32.5752 63.1377 32.5752 53.5734C32.5752 44.2754 48.3489 27.8541 49.0182 27.1662L49.8437 26.3008L50.6915 27.144C51.3832 27.832 67.4246 44.2532 67.4246 53.5512C67.4246 63.1377 59.6158 70.9045 49.9999 70.9045ZM49.866 29.6516C48.4828 31.1384 45.5824 34.3561 42.7043 38.1285C37.5951 44.8302 34.8955 50.156 34.8955 53.5512C34.8955 61.8284 41.678 68.5745 49.9999 68.5745C58.3218 68.5745 65.1043 61.8284 65.1043 53.5512C65.1043 50.156 62.3601 44.8302 57.1616 38.1285C54.2389 34.3783 51.2716 31.1384 49.866 29.6516Z" fill="url(#paint0_linear_921_252)"/>
<path d="M50 76.4525C37.3051 76.4525 26.9976 66.1781 26.9976 53.5737C26.9976 41.2355 44.3107 24.0154 45.047 23.3053C45.4932 22.8614 46.2517 22.8614 46.698 23.3053C47.1442 23.7491 47.1442 24.5036 46.698 24.9474C46.5195 25.1249 29.3402 42.2119 29.3402 53.5737C29.3402 64.9132 38.6215 74.1446 50.0223 74.1446C61.4231 74.1446 70.7043 64.9132 70.7043 53.5737C70.7043 48.9136 67.6701 42.4782 61.9139 34.9111C57.4964 29.1193 53.0565 24.7255 53.0119 24.6811C52.5434 24.2373 52.5434 23.505 53.0119 23.039C53.4581 22.573 54.1944 22.573 54.6629 23.039C55.4215 23.7713 73.047 41.2133 73.047 53.5737C73.0023 66.1781 62.6948 76.4525 50 76.4525Z" fill="url(#paint1_linear_921_252)"/>
<path d="M50 82.0002C34.561 82.0002 22 69.5067 22 54.1506C22 47.804 25.2127 39.9928 31.5267 30.9611C36.1896 24.3038 40.7633 19.555 40.9641 19.3553C41.4104 18.8893 42.1466 18.8893 42.6151 19.3331C43.0837 19.7769 43.0837 20.5092 42.6375 20.9752C42.5928 21.0196 37.9745 25.8128 33.4231 32.3148C27.4661 40.8139 24.3203 48.3588 24.3203 54.1506C24.3203 68.2197 35.8327 79.6924 50 79.6924C64.1673 79.6924 75.6797 68.2418 75.6797 54.1506C75.6797 48.3588 72.5116 40.8139 66.51 32.3148C61.9139 25.8128 57.251 21.0196 57.2064 20.9752C56.7602 20.5092 56.7602 19.7769 57.2287 19.3331C57.6972 18.8893 58.4335 18.8893 58.8797 19.3553C59.6606 20.1541 78 39.1052 78 54.1506C78 69.5067 65.439 82.0002 50 82.0002Z" fill="url(#paint2_linear_921_252)"/>
</g>
</g>
<defs>
<linearGradient id="paint0_linear_921_252" x1="49.9999" y1="70.9018" x2="49.9999" y2="26.2981" gradientUnits="userSpaceOnUse">
<stop stop-color="#05AAC5"/>
<stop offset="1" stop-color="#71E0EC"/>
</linearGradient>
<linearGradient id="paint1_linear_921_252" x1="50.0223" y1="76.4498" x2="50.0223" y2="22.6867" gradientUnits="userSpaceOnUse">
<stop stop-color="#05AAC5"/>
<stop offset="1" stop-color="#71E0EC"/>
</linearGradient>
<linearGradient id="paint2_linear_921_252" x1="50" y1="81.9975" x2="50" y2="19.0002" gradientUnits="userSpaceOnUse">
<stop stop-color="#05AAC5"/>
<stop offset="1" stop-color="#71E0EC"/>
</linearGradient>
<clipPath id="clip0_921_252">
<rect width="100" height="100" fill="white"/>
</clipPath>
<clipPath id="clip1_921_252">
<rect width="56" height="63" fill="white" transform="translate(22 19)"/>
</clipPath>
</defs>
</svg>
