<svg xmlns="http://www.w3.org/2000/svg" fill="none" viewBox="0 0 100 100">
  <path fill="#2683FF" d="M50 100c27.614 0 50-22.386 50-50S77.614 0 50 0 0 22.386 0 50s22.386 50 50 50z"/>
  <path fill="#fff" d="M22.162 64.462c-.42 0-.828.125-1.177.359a2.141 2.141 0 0 0-.32 3.276 2.113 2.113 0 0 0 2.307.462 2.12 2.12 0 0 0 .95-.784c.232-.35.357-.762.357-1.183 0-.378-.103-.722-.274-1.065a2.157 2.157 0 0 0-1.843-1.065zM52.07 18.13a2.14 2.14 0 0 0-.357-1.184 2.105 2.105 0 0 0-3.257-.323 2.134 2.134 0 0 0-.459 2.322 2.126 2.126 0 0 0 1.956 1.315 2.123 2.123 0 0 0 1.493-.628 2.15 2.15 0 0 0 .624-1.502zm25.813 18.478a2.1 2.1 0 0 0 1.176-.36 2.128 2.128 0 0 0 .9-2.185 2.134 2.134 0 0 0-.579-1.09 2.113 2.113 0 0 0-2.307-.462 2.119 2.119 0 0 0-.95.784 2.108 2.108 0 0 0-.084 2.213 2.102 2.102 0 0 0 1.844 1.1zM23.15 32.52a2.076 2.076 0 0 0-2.868.79c-.58 1.03-.239 2.302.785 2.885a2.076 2.076 0 0 0 2.868-.79 2.11 2.11 0 0 0-.785-2.885zm55.585 32.354c-.308-.206-.683-.275-1.059-.31a2.106 2.106 0 0 0-1.515.614 2.13 2.13 0 0 0-.63 1.516 2.14 2.14 0 0 0 .63 1.516 2.115 2.115 0 0 0 1.515.614c.751 0 1.433-.412 1.844-1.065a2.11 2.11 0 0 0-.785-2.885zm-30.9 17.756a2.174 2.174 0 0 0 1.367 2.233c.204.068.444.137.648.137a2.22 2.22 0 0 0 1.418-.515c.399-.332.67-.794.767-1.305a2.127 2.127 0 0 0-.4-1.561 2.096 2.096 0 0 0-2.932-.435 2.12 2.12 0 0 0-.833 1.377.12.12 0 0 0-.034.069"/>
  <path fill="#fff" d="M81.421 60.535a5.65 5.65 0 0 0-.796-.379V40.24c.311-.103.623-.275.935-.412 3.218-1.79 4.396-5.848 2.596-9.048-1.8-3.2-5.885-4.368-9.106-2.58a5.67 5.67 0 0 0-.761.481L56.632 18.533c.035-.31.07-.585.07-.895C56.7 13.959 53.69 11 50.02 11c-3.67 0-6.751 3.027-6.751 6.673 0 .31.035.585.07.895L25.82 28.646a6.709 6.709 0 0 0-4.972-1.362 6.721 6.721 0 0 0-2.492.832 6.679 6.679 0 0 0-1.978 1.723 6.631 6.631 0 0 0-1.315 4.955c.122.871.416 1.71.866 2.467a6.663 6.663 0 0 0 1.756 1.945c.242.172.485.344.762.516.283.172.585.31.9.413v19.883c-3.428 1.376-5.09 5.23-3.705 8.634a6.686 6.686 0 0 0 8.69 3.68c.311-.103.588-.275.865-.412.277-.172.554-.344.831-.55l17.345 9.941c-.589 3.612 1.904 7.017 5.54 7.602 3.635.585 7.062-1.892 7.65-5.504.07-.378.07-.722.07-1.1a8.413 8.413 0 0 0-.07-.964l17.242-9.872c.277.206.554.412.865.585 3.219 1.789 7.305.653 9.107-2.546 1.73-3.2.69-7.12-2.356-8.978zm1.212 8.324c-1.42 2.408-4.57 3.234-6.993 1.823-1.939-1.135-2.909-3.37-2.39-5.538l-8.1-4.712a9.052 9.052 0 0 1-4.591 2.485 9.09 9.09 0 0 1-5.207-.457c-1.212.378-3.808.62-3.808.62v14.172c2.84.86 4.396 3.852 3.533 6.673-.864 2.82-3.878 4.368-6.717 3.51-.034 0-.069-.035-.104-.035a3.739 3.739 0 0 1-.658-.275c-2.666-1.307-3.704-4.54-2.388-7.155.657-1.307 1.835-2.27 3.218-2.717V62.805a24.055 24.055 0 0 1-2.977-1.135 10.815 10.815 0 0 1-4.675-.103 10.774 10.774 0 0 1-4.188-2.065l-9.66 5.538a5.077 5.077 0 0 1-.18 2.96 5.113 5.113 0 0 1-1.804 2.363 5.163 5.163 0 0 1-5.708.216 5.119 5.119 0 0 1-1.98-2.219 5.079 5.079 0 0 1 .899-5.605 5.15 5.15 0 0 1 2.576-1.498c1.662-.412 3.428.069 4.71 1.239l9.036-5.195a10.707 10.707 0 0 1 1.178-13.828L25.37 37.625c-2.041 1.926-5.262 1.823-7.2-.24a5.066 5.066 0 0 1-1.385-3.646 5.043 5.043 0 0 1 1.626-3.544 5.083 5.083 0 0 1 7.201.24 5.015 5.015 0 0 1 1.246 4.61l11.39 6.5a10.815 10.815 0 0 1 4.848-1.272c1.593-1.307 5.675-2.648 5.675-2.648v-15.48a4.736 4.736 0 0 1-3.185-5.916c.761-2.511 3.43-3.887 5.956-3.13a4.736 4.736 0 0 1 0 9.08V37.35s7.479 1.858 9.833 4.644l12.117-6.845c-.623-2.752 1.073-5.504 3.843-6.123 2.77-.619 5.54 1.066 6.162 3.818.623 2.753-1.073 5.505-3.843 6.123a5.19 5.19 0 0 1-4.674-1.273l-11.978 6.742c.346.722.658 1.443.865 2.202 3.705 2.51 5.02 7.326 3.047 11.351l7.929 4.575a5.09 5.09 0 0 1 6.024-.654 5.054 5.054 0 0 1 1.766 6.95h-.001z"/>
  <path fill="#fff" d="M60.514 49.062c-.034-.276-.068-.516-.103-.791a4.296 4.296 0 0 0-.136-.55c0-.07-.035-.138-.035-.207-.068-.206-.136-.447-.205-.653v-.034a9.12 9.12 0 0 0-2.563-3.68l-.034-.034c-.205-.172-.41-.344-.65-.482l-.033-.034c-.206-.138-.445-.31-.65-.412l-.034-.035a6.365 6.365 0 0 0-.683-.343l-.069-.035c-.239-.103-.478-.206-.751-.31l-.034-.034c-.274-.068-.513-.172-.787-.206h-.034a6.817 6.817 0 0 0-.82-.138h-.034a8.398 8.398 0 0 0-4.306.516l-.171.138c-.205.069-.547.24-.752.344-.106.07-.221.128-.342.172-.102.034-.273.172-.375.24-.103.069-.342.24-.479.344l-.102.069c-.206.137-.376.31-.582.481l-.17.172a8.507 8.507 0 0 0-.547.585 7.425 7.425 0 0 0-1.23-.104c-.137 0-.24 0-.342.035-1.572.068-3.076.722-4.238 1.788-.581.516-1.06 1.17-1.434 1.857l-.036.07a4.82 4.82 0 0 0-.273.62c-.034.068-.034.102-.069.171-.072.178-.13.362-.17.55-.035.069-.035.172-.069.24-.034.173-.068.345-.102.55 0 .07-.035.138-.035.241a6.15 6.15 0 0 0-.034.791c-.005.219.006.437.035.654 0 .068.034.137.034.24.034.138.034.276.068.413.034.137.034.172.068.275a.995.995 0 0 1 .068.31c0 .103.068.206.103.309.028.083.062.163.103.24.051.113.097.227.136.344.034.069.069.104.069.172a6.072 6.072 0 0 0 2.324 2.751c.513.31 1.026.585 1.572.756.212.074.43.131.65.172l.068.035.615.103.137.034c.239.035.478.035.752.035.922 0 1.81-.172 2.631-.55.205.137.376.275.581.412l.069.034c.17.104.375.207.58.31h.034a8.763 8.763 0 0 0 6.323.653h.034c.307-.067.605-.17.888-.31l.923-.412A4.988 4.988 0 0 0 58.942 59c.239 0 .444-.034.683-.034l.171-.035a5.53 5.53 0 0 0 .65-.137 4.69 4.69 0 0 0 .615-.24l.102-.035c.205-.103.376-.206.582-.31a4.946 4.946 0 0 0 1.88-2.304c.136-.31.204-.619.273-.928v-.103c.034-.138.034-.275.068-.413 0-.172.034-.343.034-.515 0-2.27-1.401-4.23-3.487-4.883"/>
</svg>
