<svg xmlns="http://www.w3.org/2000/svg" fill="none" viewBox="0 0 800 800">
  <path fill="#fff" d="M400 800c220.914 0 400-179.086 400-400S620.914 0 400 0 0 179.086 0 400s179.086 400 400 400Z"/>
  <path fill="url(#a)" d="M240.256 178.728 662.934 467.33 558.401 621.858 135.723 330.983l104.533-152.255Z"/>
  <path fill="url(#b)" d="M662.988 467.329c-36.359 52.266-159.072 31.814-274.968-49.994-118.168-79.537-181.797-186.342-147.71-238.609 36.359-52.267 159.072-31.815 274.968 49.994 118.168 77.264 181.797 186.342 147.71 238.609Z"/>
  <path fill="url(#c)" d="M558.417 619.586c-36.359 52.266-159.072 31.814-274.968-49.995-115.895-81.808-181.797-186.342-145.437-240.881 36.359-52.266 159.072-31.814 274.968 49.994 115.895 81.809 179.524 188.615 145.437 240.882Z"/>
  <path fill="#0E0F23" d="M662.919 467.329 558.386 621.856c-36.359 52.267-159.072 29.542-274.968-49.994-22.725-15.907-43.177-31.814-63.629-49.994 15.907-2.272 36.359-11.362 56.812-34.087 36.359-38.632 54.539-47.722 70.446-45.449 15.907 0 34.087 15.907 63.629 54.539 29.542 38.632 70.446 49.994 95.443 29.542 2.273-2.273 4.545-2.273 6.818-4.545 20.452-15.907 27.269-22.725 65.901-95.443 9.09-18.18 40.905-47.722 84.081-34.087 11.363 29.542 11.363 54.539 0 74.991Z"/>
  <path fill="#fff" fill-rule="evenodd" d="M647.081 458.235c-31.814 45.449-143.165 22.724-249.971-52.267-109.078-74.991-172.707-170.435-140.893-215.884 31.815-45.449 143.166-22.725 249.971 52.267 106.806 74.991 170.435 170.434 140.893 215.884Zm-99.988-68.174c-15.908 22.724-70.447 11.362-124.986-24.997-52.266-36.36-84.081-84.081-68.174-106.806 15.908-22.725 70.447-11.362 124.986 24.997 52.266 36.359 84.081 84.081 68.174 106.806Z" clip-rule="evenodd"/>
  <path fill="#fff" d="M231.184 230.996c0-2.272-2.273-4.544-4.545-2.272-2.273 2.272-4.545 2.272-4.545 4.545 2.272 6.817 4.545 11.362 4.545 15.907 0 2.273 2.272 4.545 4.545 2.273 2.272 0 4.545-2.273 2.272-4.545 0-4.545 0-9.09-2.272-15.908Zm11.399 36.351c0-2.272-2.272-4.545-4.545-2.272-2.272 2.272-2.272 2.272-2.272 4.545 24.997 56.811 77.263 118.168 145.437 163.617 2.273 2.272 4.545 0 6.818 0 2.272-2.273 0-4.545 0-6.817-70.447-45.45-120.441-104.534-145.438-159.073Zm274.95 222.701c-2.272 0-4.545 0-4.545 2.273 0 2.272 0 4.545 2.273 4.545 6.817 2.272 15.907 4.545 22.724 6.817 2.273 0 4.545 0 4.545-2.272 0-2.273 0-4.545-2.272-4.545-6.817-2.273-15.907-4.545-22.725-6.818Zm40.922 9.099c-2.272 0-4.545 2.272-4.545 4.545 0 2.272 2.273 4.545 4.545 4.545 18.18 2.272 38.632 4.545 54.539 2.272 2.273 0 4.545-2.272 4.545-4.545 0-2.272-2.272-4.545-4.545-4.545-18.18 2.273-36.359 0-54.539-2.272Z"/>
  <defs>
    <linearGradient id="a" x1="323.069" x2="406.891" y1="137.694" y2="425.528" gradientUnits="userSpaceOnUse">
      <stop stop-color="#03B8FF"/>
      <stop offset="1" stop-color="#FA52A0"/>
    </linearGradient>
    <linearGradient id="b" x1="392.151" x2="475.976" y1="117.588" y2="405.425" gradientUnits="userSpaceOnUse">
      <stop stop-color="#03B8FF"/>
      <stop offset="1" stop-color="#FA52A0"/>
    </linearGradient>
    <linearGradient id="c" x1="254.271" x2="338.095" y1="157.732" y2="445.569" gradientUnits="userSpaceOnUse">
      <stop stop-color="#03B8FF"/>
      <stop offset="1" stop-color="#FA52A0"/>
    </linearGradient>
  </defs>
</svg>
