<svg width="100" height="100" viewBox="0 0 100 100" fill="none" xmlns="http://www.w3.org/2000/svg">
<path d="M50 100C77.6142 100 100 77.6142 100 50C100 22.3858 77.6142 0 50 0C22.3858 0 0 22.3858 0 50C0 77.6142 22.3858 100 50 100Z" fill="url(#paint0_linear_904_96)"/>
<path d="M47.0342 15.4415C50.2027 14.6527 53.7466 14.8549 56.5818 16.5858C59.3637 18.1634 61.6011 20.5497 63.4275 23.1449C59.8169 23.4715 56.2019 23.9626 52.7268 25.0358C51.8513 25.2313 50.9892 25.7268 50.0738 25.5513C48.0585 25.0513 46.0921 24.3536 44.0369 24.0337C43.0725 23.9093 42.126 23.5115 41.1439 23.6204C40.1796 23.9648 39.9752 25.3446 40.8995 25.8623C42.1016 26.3423 43.4747 26.2534 44.679 26.7489C45.1034 27.1022 45.0212 27.8665 44.459 28.0287C40.0396 30.0173 35.9091 32.5814 32.0029 35.4366C33.1872 31.0705 35.007 26.8666 37.5333 23.1049C38.8687 21.2207 40.3773 19.4321 42.1838 17.9834C43.628 16.8502 45.2945 16.017 47.0342 15.4415Z" fill="white"/>
<path d="M60.0169 25.8601C61.2767 25.7223 62.5343 25.5357 63.8031 25.5313C64.6518 25.5024 65.3828 26.1112 65.7272 26.8511C67.0826 29.5752 68.1936 32.4259 68.9512 35.3721C67.4448 34.3678 66.0361 33.2147 64.4718 32.2926C62.8121 31.2727 61.1767 30.1928 59.4036 29.3774C58.2016 29.5907 57.0973 30.1573 55.893 30.3439C55.9152 30.375 55.9641 30.4373 55.9863 30.4684C59.4814 32.2304 62.9409 34.1079 66.1027 36.432C69.3578 38.7428 72.293 41.4802 74.9793 44.4309C75.6326 45.2597 76.4147 45.9885 76.9746 46.8906C78.5033 49.2303 78.4255 52.5143 76.7568 54.7606C76.2969 55.3739 76.308 56.2293 76.5546 56.9248C76.8168 57.3514 77.3279 57.4203 77.7856 57.3914C78.9988 56.1582 79.8853 54.6562 80.9163 53.2808C81.2518 53.7696 81.4295 54.3473 81.6495 54.8939C82.1117 56.4448 82.736 57.9669 82.8693 59.5933C82.9804 61.3708 83.1538 63.1861 82.7294 64.9392C82.0672 68.1077 80.032 70.9362 77.3012 72.6582C74.5216 74.4468 71.2332 75.3734 67.9425 75.5089C70.8465 69.2564 72.7885 62.5085 73.2084 55.6094C73.4573 53.463 73.3484 51.3011 73.3684 49.1481C73.3373 48.3371 73.4329 47.415 72.8463 46.7662C72.5974 46.6973 72.3508 46.6217 72.1064 46.5462C71.6175 46.6706 71.1998 46.9528 70.9265 47.3794C70.9599 51.4588 70.8776 55.5538 70.2555 59.5933C70.1133 60.5087 70.1089 61.5797 69.3467 62.2396C66.2027 64.9015 62.7565 67.1989 59.1415 69.1698C58.8837 69.3342 58.6904 69.5786 58.4771 69.7964C58.5193 70.2296 58.3416 70.7762 58.7237 71.1051C59.0548 71.5117 59.6569 71.665 60.128 71.4095C62.701 70.1341 65.0495 68.4676 67.4181 66.859C67.8469 66.5035 68.5535 67.0501 68.3491 67.5633C67.8025 69.172 67.3026 70.8051 66.5649 72.3405C66.0983 73.3092 65.8139 74.4513 64.9185 75.1334C64.043 75.8155 62.8654 75.6156 61.8433 75.4911C54.5732 74.7357 47.4697 72.4138 41.1439 68.7543C37.8266 66.9012 34.6937 64.7326 31.7496 62.3374C31.3341 61.9685 31.0653 61.453 30.9608 60.9109C30.252 56.8137 29.9899 52.6476 30.061 48.4926C30.2098 47.6771 29.4055 46.9639 28.6212 47.1083C28.059 47.1839 27.6169 47.6994 27.5969 48.2593C27.4924 51.8477 27.7191 55.4361 28.0835 59.0023C25.7749 56.707 23.7285 54.1496 21.9865 51.3989C21.7154 50.9745 21.6754 50.3834 21.9287 49.9435C25.946 43.8554 31.2497 38.6184 37.4244 34.7322C41.3261 32.2681 45.4611 30.1551 49.8049 28.5931C53.0245 27.1266 56.5351 26.4111 60.0169 25.8601ZM49.7072 36.3631C49.185 37.5252 48.5651 38.6428 48.0452 39.8027C47.923 40.1382 48.2474 40.3181 48.454 40.4937C49.7983 40.4781 51.1425 40.4981 52.489 40.4848C52.6023 40.4137 52.829 40.2737 52.9423 40.2026C52.8734 39.2227 52.2113 38.4228 51.8425 37.543C51.427 36.8675 51.2692 36.0165 50.6782 35.4655C50.1227 35.3477 49.9094 35.9765 49.7072 36.3631ZM39.6752 39.9004C39.4441 40.2159 39.6974 40.627 39.7774 40.9581C40.2307 42.1601 40.6018 43.3888 41.0661 44.5842C41.1683 45.0442 41.806 45.0508 42.0482 44.7087C42.9281 43.8154 43.848 42.9556 44.6968 42.029C44.9834 41.7624 44.8301 41.3202 44.4768 41.2136C43.2792 40.7492 42.046 40.3804 40.8417 39.936C40.464 39.836 40.0085 39.5494 39.6752 39.9004ZM56.8862 41.1114C56.6307 41.2136 56.2574 41.2336 56.173 41.558C56.1019 42.0224 56.5351 42.3023 56.8062 42.6001C57.6128 43.3555 58.3327 44.2043 59.1837 44.9108C59.8303 45.1597 59.9836 44.3865 60.1391 43.9532C60.5413 42.6423 61.1101 41.3802 61.3989 40.036C61.2856 39.9537 61.059 39.7871 60.9479 39.7027C59.5725 40.1137 58.2505 40.6714 56.8862 41.1114ZM49.0739 43.1644C45.7877 43.731 43.1059 46.7128 42.9259 50.0479C42.7926 51.8166 43.2725 53.6408 44.3324 55.0717C45.7699 57.0981 48.2607 58.2757 50.7315 58.2246C52.4024 58.1313 54.0621 57.5425 55.3442 56.4515C57.1351 55.0495 58.1372 52.7498 58.0749 50.4901C58.0794 48.2393 56.9573 46.0285 55.182 44.6553C53.4956 43.2933 51.1959 42.7578 49.0739 43.1644ZM38.6665 48.6392C37.6399 49.2058 36.5312 49.6124 35.5247 50.2146C35.158 50.439 35.2247 50.9722 35.6158 51.1367C36.9089 51.7477 38.1821 52.4009 39.4797 53.0031C39.7441 53.2008 40.0129 53.012 40.264 52.8987C40.2774 51.3655 40.324 49.8302 40.2396 48.2971C39.6885 48.0015 39.1575 48.4215 38.6665 48.6392ZM60.7079 48.4726C60.7212 49.9279 60.6746 51.3877 60.7301 52.8431C60.8968 53.1275 61.2478 53.2742 61.5411 53.0742C62.8387 52.4654 64.1097 51.8032 65.4006 51.1811C65.7561 51.0345 65.7606 50.6012 65.5828 50.3168C64.083 49.628 62.6788 48.7414 61.1456 48.1304C61.0368 48.2171 60.8168 48.3859 60.7079 48.4726ZM41.1283 56.6048C40.5884 57.958 40.1885 59.3644 39.673 60.7265C39.3597 61.2175 39.9863 61.7463 40.4484 61.4664C41.8549 60.9909 43.2636 60.5198 44.6545 60.0044C44.7168 59.8999 44.839 59.6911 44.8989 59.5866C44.2501 58.5712 43.2525 57.8491 42.4548 56.9581C42.1193 56.5982 41.5172 55.9627 41.1283 56.6048ZM56.2907 59.38C55.9286 59.8199 56.5218 60.191 56.9084 60.2754C58.3149 60.6932 59.6614 61.3264 61.1034 61.613C61.1967 61.4908 61.3834 61.242 61.4789 61.1198C60.9657 59.6111 60.4679 58.0957 59.8991 56.6093C59.7614 56.5382 59.4836 56.396 59.3459 56.3249C58.3016 57.3158 57.2684 58.3246 56.2907 59.38ZM48.2096 61.8685C48.8895 63.1906 49.4828 64.5593 50.2227 65.8502C50.5249 65.8213 50.9181 65.8391 51.0159 65.4747C51.6225 64.2304 52.2357 62.9906 52.8556 61.753C53.0401 61.4264 52.9467 60.8798 52.4979 60.8642C51.1603 60.8331 49.8183 60.8287 48.4807 60.8665C47.923 60.9042 47.9852 61.5197 48.2096 61.8685Z" fill="white"/>
<path d="M21.5795 30.2352C24.7169 27.4334 28.8497 25.8047 33.0513 25.6714C32.4847 27.1423 31.7026 28.5221 31.2071 30.0219C30.1695 32.5904 29.4851 35.2834 28.8785 37.9786C27.8831 39.1873 26.5166 40.0605 25.5101 41.2782C23.4704 43.3468 21.6906 45.6487 20.0264 48.0261C19.3176 46.5574 18.8399 44.991 18.42 43.4201C18.0156 41.8892 18.0378 40.2983 18 38.7274C17.9934 35.5656 19.3576 32.466 21.5795 30.2352Z" fill="white"/>
<path d="M67.8955 25.6733C71.0729 25.9355 74.2946 26.6754 76.9987 28.4307C79.6872 30.0327 81.7603 32.6591 82.598 35.6809C83.4645 39.8225 82.6668 44.1753 80.8782 47.9703C80.2649 47.266 79.785 46.4594 79.2273 45.7128C77.2742 43.1199 75.0834 40.7069 72.6526 38.5538C71.9416 38.0183 71.9083 37.0696 71.6905 36.283C70.8862 32.5991 69.4908 29.0795 67.8955 25.6733Z" fill="white"/>
<path d="M18.3754 58.498C18.8154 56.7049 19.2953 54.8918 20.153 53.2476C24.6834 59.8644 30.6626 65.4926 37.595 69.5365C39.8547 70.8963 42.1811 72.145 44.583 73.2315C45.1873 73.4293 45.1584 74.3958 44.5452 74.5558C42.4077 75.069 40.2213 75.3379 38.0372 75.569C37.104 75.6578 36.0819 75.3579 35.5175 74.5691C34.9087 73.6914 34.5377 72.6782 34.0844 71.7184C33.8444 71.2096 33.2601 70.8363 32.689 70.9385C32.1113 71.0918 31.6225 71.6362 31.627 72.2516C31.9869 73.4093 32.5802 74.4758 33.0645 75.5867C29.705 75.3379 26.3032 74.5024 23.4903 72.5805C21.0328 70.9896 19.1953 68.4744 18.4221 65.6525C17.7555 63.3217 18.051 60.8599 18.3754 58.498Z" fill="white"/>
<path d="M46.2408 76.7709C47.4473 76.4976 48.6049 76.0399 49.8136 75.7799C50.718 75.5644 51.6223 75.8821 52.4866 76.1332C56.0283 77.2197 59.7078 77.8196 63.4007 78.0574C62.2431 79.886 60.7321 81.4636 59.1079 82.8812C56.9504 84.6054 54.3775 86.0007 51.5645 86.1274C50.318 86.3785 49.0626 86.0674 47.8183 85.9607C44.9054 85.2319 42.3724 83.45 40.2105 81.4169C39.2751 80.3682 38.2663 79.3572 37.5664 78.1262C40.4927 77.9307 43.3834 77.4152 46.2408 76.7709Z" fill="white"/>
<defs>
<linearGradient id="paint0_linear_904_96" x1="0" y1="0" x2="100" y2="100" gradientUnits="userSpaceOnUse">
<stop stop-color="#FF4139"/>
<stop offset="1" stop-color="#EEA954"/>
</linearGradient>
</defs>
</svg>
