<svg width="20" height="20" viewBox="0 0 20 20" fill="none" xmlns="http://www.w3.org/2000/svg">
<path d="M10 20C15.5228 20 20 15.5228 20 10C20 4.47715 15.5228 0 10 0C4.47715 0 0 4.47715 0 10C0 15.5228 4.47715 20 10 20Z" fill="#EF0027"/>
<path d="M13.7075 6.19563L4.6875 4.53563L9.43438 16.4806L16.0487 8.42188L13.7075 6.19563ZM13.5625 6.92688L14.9425 8.23875L11.1688 8.92188L13.5625 6.92688V6.92688ZM10.3488 8.785L6.37125 5.48625L12.8725 6.6825L10.3488 8.785V8.785ZM10.0656 9.36875L9.41688 14.7313L5.92 5.92938L10.0656 9.36813V9.36875ZM10.6656 9.65313L14.845 8.89688L10.0513 14.7363L10.6656 9.65313Z" fill="white"/>
</svg>
