<svg width="100" height="100" viewBox="0 0 100 100" fill="none" xmlns="http://www.w3.org/2000/svg">
<g clip-path="url(#clip0_1_62)">
<path d="M50 100C77.6142 100 100 77.6142 100 50C100 22.3858 77.6142 0 50 0C22.3858 0 0 22.3858 0 50C0 77.6142 22.3858 100 50 100Z" fill="#1B5AFF"/>
<path d="M25.0802 27C30.6894 27.0033 36.2986 26.9984 41.9086 27.0033C41.9029 27.3627 41.9578 27.732 41.8595 28.084C41.7785 28.4041 41.7686 28.7366 41.7572 29.0649C41.3855 32.1392 40.1754 35.1195 38.2341 37.5388C35.5585 40.9473 31.5082 43.2406 27.2032 43.7588C26.6792 43.9095 26.1315 43.8088 25.5968 43.8841C25.429 43.9144 25.262 43.8522 25.0949 43.889C25.009 43.8145 25.0188 43.672 25.0024 43.5681C25.0057 38.8709 25.0032 34.1738 25.0041 29.4775C25.0196 28.6506 24.9525 27.8204 25.0802 27Z" fill="white"/>
<path d="M45.4758 33.3983C48.2686 29.8646 52.5473 27.5418 57.0357 27.1439C58.7272 27.1095 60.4204 27.1292 62.1127 27.1243C66.5282 27.1235 70.9436 27.1251 75.3591 27.1235C75.3583 32.704 75.3583 38.2837 75.3591 43.8643C69.7876 43.8626 64.216 43.8659 58.6453 43.8635C58.6322 55.2423 58.647 66.6212 58.6379 78.0001C53.0402 77.9837 47.4425 78.0026 41.8447 77.9911C41.848 66.3486 41.8455 54.7069 41.8455 43.0644C41.9782 39.5667 43.2873 36.1288 45.4758 33.3983Z" fill="white"/>
</g>
<defs>
<clipPath id="clip0_1_62">
<rect width="100" height="100" fill="white"/>
</clipPath>
</defs>
</svg>
