<svg width="24" height="24" viewBox="0 0 24 24" fill="none" xmlns="http://www.w3.org/2000/svg">
<path d="M12 24C18.6274 24 24 18.6274 24 12C24 5.37258 18.6274 0 12 0C5.37258 0 0 5.37258 0 12C0 18.6274 5.37258 24 12 24Z" fill="#FF007A"/>
<path d="M9.48892 7.18484C9.31429 7.16317 9.30597 7.15595 9.38913 7.14873C9.54714 7.12706 9.91304 7.15595 10.1708 7.2065C10.7696 7.32928 11.3101 7.64704 11.884 8.20312L12.0336 8.35478L12.2499 8.32589C13.1729 8.1959 14.121 8.297 14.911 8.61476C15.1272 8.70143 15.4682 8.87475 15.5098 8.91808C15.5264 8.93252 15.5513 9.02641 15.568 9.12029C15.6262 9.45972 15.6012 9.71248 15.4765 9.90747C15.41 10.0158 15.41 10.0447 15.4515 10.1386C15.4848 10.2108 15.5846 10.2613 15.6761 10.2613C15.8757 10.2613 16.0836 9.98691 16.1834 9.60416L16.2249 9.4525L16.2998 9.52472C16.7239 9.93636 17.0566 10.5069 17.1064 10.9113L17.1231 11.0196L17.0482 10.9258C16.9235 10.7597 16.8071 10.6513 16.6491 10.5574C16.3663 10.3913 16.0669 10.3408 15.2769 10.3047C14.5617 10.2686 14.1542 10.218 13.7551 10.1025C13.0732 9.90747 12.7239 9.65471 11.9172 8.72309C11.5596 8.31145 11.3351 8.08757 11.1106 7.8998C10.6199 7.48816 10.1293 7.2715 9.48892 7.18484Z" fill="white"/>
<path d="M15.6844 8.10201C15.7011 7.82758 15.7426 7.64704 15.8341 7.48093C15.8674 7.41594 15.9007 7.35816 15.909 7.35816C15.9173 7.35816 15.9007 7.40871 15.8757 7.46649C15.8092 7.62537 15.8009 7.84925 15.8424 8.10201C15.9007 8.427 15.9256 8.47033 16.3248 8.8242C16.5077 8.9903 16.7239 9.19973 16.8071 9.2864L16.9485 9.44528L16.8071 9.32973C16.6325 9.18529 16.2333 8.91086 16.1418 8.87475C16.0836 8.84586 16.0753 8.84586 16.0337 8.88197C16.0004 8.91086 15.9921 8.95419 15.9921 9.16363C15.9838 9.48861 15.9339 9.69082 15.8092 9.90025C15.7426 10.0086 15.7343 9.98692 15.7925 9.86414C15.8341 9.77026 15.8424 9.72693 15.8424 9.41639C15.8424 8.78809 15.7593 8.63643 15.252 8.38367C15.1273 8.31867 14.911 8.22478 14.7863 8.17423C14.6532 8.12368 14.5534 8.08035 14.5618 8.08035C14.5784 8.0659 15.069 8.18868 15.2603 8.26089C15.5514 8.362 15.6013 8.36922 15.6345 8.362C15.6595 8.34033 15.6761 8.28256 15.6844 8.10201Z" fill="white"/>
<path d="M9.82991 9.17807C9.48063 8.7592 9.2561 8.10924 9.30599 7.62537L9.32263 7.47371L9.40579 7.48816C9.55548 7.50982 9.81327 7.59648 9.93802 7.66148C10.2707 7.83481 10.4203 8.07313 10.5617 8.66532C10.6033 8.83864 10.6615 9.04085 10.6865 9.10585C10.728 9.21418 10.886 9.46694 11.0191 9.62583C11.1106 9.74137 11.0524 9.79915 10.8445 9.78471C10.5285 9.75582 10.1043 9.50305 9.82991 9.17807Z" fill="white"/>
<path d="M15.2603 12.3196C13.6137 11.7418 13.0316 11.2435 13.0316 10.3986C13.0316 10.2758 13.0399 10.1747 13.0399 10.1747C13.0482 10.1747 13.1065 10.218 13.1813 10.2686C13.5139 10.4997 13.8882 10.6008 14.9277 10.7308C15.5348 10.8102 15.884 10.868 16.2 10.9619C17.2063 11.2507 17.83 11.8429 17.9797 12.6446C18.0213 12.8757 17.9963 13.3162 17.9298 13.5473C17.8716 13.7278 17.7052 14.06 17.6637 14.0673C17.6553 14.0673 17.6387 14.0312 17.6387 13.9734C17.6221 13.6701 17.4474 13.3812 17.1564 13.1573C16.8071 12.8973 16.358 12.7023 15.2603 12.3196Z" fill="white"/>
<path d="M14.0961 12.5579C14.0794 12.4496 14.0379 12.3124 14.0129 12.2546L13.9713 12.1463L14.0462 12.2257C14.1543 12.334 14.2374 12.464 14.3123 12.6446C14.3705 12.7818 14.3705 12.8251 14.3705 13.049C14.3705 13.2656 14.3622 13.3162 14.3123 13.439C14.2291 13.634 14.1293 13.7712 13.963 13.9228C13.6636 14.19 13.2728 14.3345 12.7156 14.3995C12.6158 14.4067 12.3331 14.4284 12.0836 14.4428C11.4599 14.4717 11.0441 14.5295 10.6698 14.645C10.62 14.6595 10.5701 14.6739 10.5617 14.6667C10.5451 14.6522 10.8029 14.5222 11.0108 14.4356C11.3019 14.3128 11.6012 14.2478 12.2582 14.1467C12.5825 14.1034 12.9152 14.0456 12.9983 14.0167C13.8216 13.7928 14.2291 13.2368 14.0961 12.5579Z" fill="white"/>
<path d="M14.8528 13.7206C14.6366 13.309 14.5867 12.919 14.7032 12.5507C14.7198 12.5146 14.7364 12.4785 14.753 12.4785C14.7697 12.4785 14.8196 12.5001 14.8695 12.529C14.9693 12.5868 15.1772 12.6879 15.7094 12.9407C16.383 13.2584 16.7655 13.504 17.0317 13.7856C17.2645 14.0312 17.4059 14.3128 17.4724 14.6595C17.514 14.8545 17.489 15.3239 17.4308 15.5189C17.2479 16.1327 16.8321 16.6238 16.225 16.9055C16.1335 16.9488 16.0587 16.9777 16.0504 16.9777C16.042 16.9777 16.0753 16.9055 16.1252 16.8188C16.3248 16.4505 16.3497 16.0966 16.2 15.6994C16.1086 15.4539 15.9173 15.1578 15.5348 14.6595C15.0774 14.0817 14.9693 13.9301 14.8528 13.7206Z" fill="white"/>
<path d="M8.65736 15.9305C9.27275 15.4827 10.0295 15.165 10.7281 15.0639C11.0274 15.0205 11.5264 15.035 11.8008 15.1C12.2416 15.2011 12.6408 15.4178 12.8487 15.685C13.0482 15.9449 13.1397 16.1688 13.2312 16.6671C13.2645 16.8621 13.306 17.0643 13.3144 17.1077C13.3809 17.3677 13.5139 17.5699 13.6803 17.6782C13.9381 17.8443 14.3871 17.8515 14.8279 17.7071C14.9027 17.6854 14.9693 17.6637 14.9693 17.671C14.9859 17.6854 14.7614 17.8154 14.6117 17.8804C14.4038 17.9743 14.2374 18.0032 14.0129 18.0032C13.6137 18.0032 13.2728 17.8226 12.9984 17.4615C12.9401 17.3893 12.8237 17.1799 12.7239 16.9849C12.4329 16.3999 12.2832 16.2266 11.9422 16.0316C11.6428 15.8655 11.2603 15.8294 10.9692 15.9522C10.5867 16.111 10.4869 16.5371 10.753 16.7971C10.8611 16.9055 11.0607 16.9921 11.227 17.0138C11.5347 17.0499 11.8008 16.8405 11.8008 16.5732C11.8008 16.3999 11.726 16.2988 11.5264 16.2194C11.2603 16.1183 10.9692 16.2338 10.9775 16.4577C10.9775 16.5516 11.0274 16.6094 11.1356 16.6527C11.2021 16.6816 11.2021 16.6816 11.1522 16.6744C10.911 16.631 10.8528 16.371 11.0441 16.2049C11.2769 16.0027 11.7676 16.0894 11.9339 16.371C12.0004 16.4866 12.0087 16.7177 11.9505 16.8621C11.8092 17.1799 11.41 17.346 11.0025 17.2521C10.7281 17.1871 10.6116 17.1221 10.279 16.826C9.69687 16.306 9.47234 16.2049 8.64073 16.0966L8.48273 16.0749L8.65736 15.9305Z" fill="white"/>
<path fill-rule="evenodd" clip-rule="evenodd" d="M4.28312 4.31054C6.22076 6.35432 9.20623 9.53194 9.35592 9.70526C9.48066 9.8497 9.43077 9.98692 9.22286 10.088C9.10644 10.1458 8.86527 10.2036 8.74885 10.2036C8.61579 10.2036 8.45779 10.1458 8.34968 10.0519C8.27483 9.98692 7.9505 9.57527 7.21869 8.58588C6.66151 7.82758 6.1875 7.19928 6.17918 7.19206C6.14592 7.17762 6.14592 7.17762 7.16048 8.75198C7.80082 9.74137 8.00872 10.0952 8.00872 10.1386C8.00872 10.2325 7.97545 10.283 7.8424 10.413C7.61786 10.6297 7.51807 10.8752 7.44322 11.388C7.36006 11.9585 7.13553 12.3629 6.49519 13.049C6.12097 13.4534 6.06276 13.5256 5.97128 13.6917C5.85485 13.8939 5.82159 14.0095 5.80496 14.2695C5.78833 14.5439 5.82159 14.7172 5.91307 14.9772C5.99623 15.2083 6.0877 15.36 6.31224 15.6561C6.50351 15.9161 6.61993 16.111 6.61993 16.1833C6.61993 16.241 6.63657 16.241 6.93594 16.1833C7.65113 16.0388 8.24157 15.7933 8.56589 15.49C8.76548 15.3022 8.81538 15.2011 8.81538 14.9411C8.81538 14.775 8.80706 14.7389 8.75716 14.6378C8.674 14.4789 8.516 14.3489 8.17504 14.1467C7.72597 13.8795 7.5347 13.6628 7.4848 13.374C7.44322 13.1284 7.49312 12.9623 7.7426 12.5073C8.0004 12.0379 8.06693 11.8429 8.10851 11.3663C8.13346 11.063 8.17504 10.9402 8.27483 10.8463C8.38294 10.7452 8.47442 10.7091 8.73222 10.6802C9.15634 10.6297 9.43077 10.5358 9.64698 10.3552C9.83825 10.2036 9.92141 10.0519 9.92973 9.82804L9.93805 9.66193L9.82994 9.56083C9.43908 9.17085 4.02532 4 4.00037 4C3.99205 4 4.12511 4.13722 4.28312 4.31054ZM6.83615 14.58C6.92763 14.4428 6.87773 14.2695 6.72804 14.1828C6.58667 14.1034 6.37045 14.1395 6.37045 14.2478C6.37045 14.2767 6.38708 14.3056 6.43698 14.32C6.51182 14.3561 6.52014 14.3922 6.46193 14.4717C6.40372 14.5511 6.40372 14.6233 6.47856 14.6739C6.59498 14.7533 6.75299 14.71 6.83615 14.58Z" fill="white"/>
<path fill-rule="evenodd" clip-rule="evenodd" d="M10.2042 10.7813C10.0046 10.8319 9.81333 11.0196 9.75511 11.2074C9.72185 11.323 9.73848 11.5324 9.79669 11.5974C9.88817 11.6985 9.97133 11.7274 10.2042 11.7274C10.6616 11.7274 11.0524 11.5541 11.094 11.3446C11.1356 11.1713 10.9609 10.933 10.7198 10.8247C10.595 10.7669 10.3372 10.7452 10.2042 10.7813ZM10.7364 11.1424C10.8029 11.0558 10.778 10.9619 10.6532 10.8969C10.4287 10.7741 10.0878 10.8752 10.0878 11.063C10.0878 11.1569 10.2624 11.258 10.4287 11.258C10.5368 11.258 10.6865 11.2002 10.7364 11.1424Z" fill="white"/>
</svg>
