<svg width="20" height="20" viewBox="0 0 20 20" fill="none" xmlns="http://www.w3.org/2000/svg">
<mask id="mask0_937_63" style="mask-type:luminance" maskUnits="userSpaceOnUse" x="0" y="0" width="20" height="20">
<path d="M0 0H20V20H0V0Z" fill="white"/>
</mask>
<g mask="url(#mask0_937_63)">
<path d="M10 20C15.5228 20 20 15.5228 20 10C20 4.47715 15.5228 0 10 0C4.47715 0 0 4.47715 0 10C0 15.5228 4.47715 20 10 20Z" fill="white"/>
<path d="M9.81216 4.00605C9.96255 3.99817 10.1149 3.99489 10.265 4.01591C11.6786 4.07173 13.0739 4.64836 14.0916 5.63644C15.1082 6.5802 15.7735 7.89239 15.9459 9.26763C16.0733 10.1707 15.9728 11.101 15.6747 11.9616C15.2993 13.1031 14.5381 14.0994 13.5836 14.8198C12.9882 15.2822 12.2934 15.6089 11.5654 15.799C11.1644 15.9169 10.7474 15.979 10.3303 15.9941C10.0016 16.0486 9.67194 15.9839 9.34291 15.978C9.09334 15.9327 8.83786 15.9163 8.59421 15.8424C7.97128 15.6913 7.36608 15.4516 6.82656 15.1032C6.59407 14.9699 6.39113 14.7932 6.17736 14.6333C5.97344 14.4327 5.73832 14.2626 5.56067 14.0357C5.1213 13.5631 4.76534 13.0157 4.50363 12.4263C4.16934 11.6264 3.97888 10.7601 4.00187 9.89121C4.01172 9.10738 4.19692 8.33307 4.49443 7.60998C4.69277 7.17193 4.92855 6.74832 5.23131 6.37332C5.37973 6.16283 5.56822 5.98584 5.73372 5.78947C6.24074 5.29165 6.81868 4.85721 7.46854 4.56397C7.69577 4.44575 7.94304 4.37482 8.18341 4.28944C8.52065 4.19159 8.86019 4.0957 9.21123 4.06056C9.40924 4.02017 9.61283 4.03824 9.81216 4.00605ZM9.67293 5.14519C9.48509 5.14486 9.3012 5.18919 9.11534 5.2112C7.54636 5.48506 6.15667 6.59497 5.5298 8.05723C5.33442 8.48741 5.2231 8.95009 5.14921 9.41507C5.71829 9.41507 6.28737 9.41737 6.85644 9.41375C6.92573 8.89229 7.15953 8.40203 7.46821 7.98039C7.92202 7.40573 8.54397 6.93845 9.26475 6.76671C9.80066 6.60351 10.3665 6.63471 10.9198 6.63142C11.7775 6.6288 12.6359 6.63668 13.4936 6.62748C13.1649 6.26955 12.7682 5.97927 12.3518 5.73101C11.6842 5.36192 10.9283 5.15833 10.1661 5.13633C10.002 5.10217 9.83777 5.14519 9.67293 5.14519ZM8.46483 8.55078C8.233 8.80035 8.09081 9.11789 8.00182 9.44364C10.2827 9.44331 12.5636 9.44265 14.8442 9.44397C14.8143 9.35136 14.8068 9.25416 14.789 9.15926C14.7168 8.67885 14.5424 8.22142 14.3424 7.78107C14.2994 7.76268 14.2508 7.76925 14.2058 7.76695C12.8585 7.76859 11.5115 7.76563 10.1642 7.76826C9.51925 7.76137 8.87858 8.05559 8.46483 8.55078ZM5.14889 10.5634C5.24346 11.2517 5.46511 11.9255 5.82862 12.5192C6.09789 12.9858 6.466 13.3881 6.87253 13.7385C7.5132 14.279 8.3013 14.63 9.11961 14.7972C9.79869 14.9029 10.5054 14.9049 11.1729 14.7285C11.8937 14.5489 12.5731 14.2025 13.1373 13.7191C13.2552 13.59 13.4056 13.4932 13.508 13.3507C12.4595 13.3444 11.4104 13.3493 10.3615 13.348C10.1635 13.3553 9.96715 13.3257 9.76914 13.3241C9.36162 13.2764 8.96954 13.1395 8.59848 12.9681C8.35351 12.841 8.13054 12.6742 7.92662 12.489C7.681 12.2844 7.46394 12.0411 7.30238 11.7643C7.07284 11.4021 6.90997 10.9906 6.85677 10.5641C6.28737 10.5604 5.71796 10.5618 5.14889 10.5634ZM8.00116 10.5644C8.20574 11.3256 8.83064 11.9606 9.59543 12.159C9.91658 12.2641 10.2587 12.2378 10.5914 12.2411C11.8412 12.2391 13.0913 12.2457 14.3411 12.2378C14.5621 11.7002 14.7871 11.1489 14.8229 10.5614C12.5492 10.5644 10.2752 10.5585 8.00116 10.5644Z" fill="black"/>
</g>
</svg>
