<svg width="24" height="24" viewBox="0 0 24 24" fill="none" xmlns="http://www.w3.org/2000/svg">
<path fill-rule="evenodd" clip-rule="evenodd" d="M12 0C18.6264 0 24 5.3736 24 12C24 18.6264 18.6264 24 12 24C5.3736 24 0 18.6264 0 12C0 5.3736 5.3736 0 12 0Z" fill="#006AE3"/>
<path d="M11.5056 17.0592V7.0752H12.5928V17.0592H11.5056Z" fill="white"/>
<path d="M17.04 10.4016L13.6824 11.292L12.9336 7.8072L13.932 7.5816L14.3256 9.2328C14.3256 9.2328 15.2328 7.7448 14.0232 6.204C13.3104 5.412 12.972 5.3784 12.1728 5.2536C11.4696 5.1528 9.83519 5.3904 9.34799 7.2984C9.14159 8.5272 9.37439 9.4368 10.9584 10.6272L10.8696 11.952C10.8696 11.952 9.10079 10.7064 8.64479 9.8328C8.29199 9.1416 7.68719 7.776 8.77919 5.8752C9.36719 4.9248 10.5264 4.0128 12.5688 4.1088C13.596 4.152 16.104 5.4072 15.7152 8.34C15.648 8.8896 15.3624 9.6216 15.3624 9.6216L16.74 9.3144L17.04 10.4016Z" fill="white"/>
<path d="M15.1224 18.2135C14.508 19.1471 13.3248 20.0279 11.2872 19.8791C10.26 19.8095 7.78801 18.4871 8.25361 15.5664C8.33521 15.0192 8.64001 14.2968 8.64001 14.2968L7.25521 14.5656L6.98401 13.4736L10.3656 12.672L11.0232 16.176L10.0176 16.3752L9.66721 14.712C9.66721 14.712 8.72161 16.1736 9.88801 17.7479C10.5792 18.5591 10.9152 18.5999 11.7144 18.7463C12.4128 18.8663 14.0544 18.6695 14.592 16.776C14.8296 15.5544 14.6208 14.6376 13.0704 13.404L13.1952 12.0816C13.1952 12.0816 14.9304 13.3728 15.3624 14.2584C15.6936 14.9616 16.2624 16.344 15.1224 18.2135V18.2135Z" fill="white"/>
</svg>
