<svg xmlns="http://www.w3.org/2000/svg" width="100" height="100" fill="none" viewBox="0 0 100 100">
  <path fill="url(#a)" d="M50 0c27.634 0 50 22.366 50 50s-22.366 50-50 50S0 77.634 0 50 22.366 0 50 0Z"/>
  <path fill="#fff" d="M79.058 37.21c-.216 1.076-.43 1.578-.646 2.224-.287.646-.574 1.436-.861 2.871-.144.574-.144 1.005-.216 1.435-.071.646-.143 1.005-.358 1.794-.216.575-.575 1.58-1.364 2.656-.646.861-1.794 2.368-3.23 2.512h-.502c-4.162-2.153-7.75-3.732-9.042-4.091-1.436-.43-1.292-3.588-1.077-6.316.072-1.22.144-2.44.072-3.444-.215-3.517-.79-7.32-3.875-9.258-1.795-1.148-4.163-1.435-6.46-1.435.431-.216.862-.503 1.364-.79 1.292-.79 2.943-1.722 4.593-1.866.503-.071 1.077-.143 1.58-.143 3.3-.359 6.171-.718 9.113.359 1.364.502 4.163 2.01 4.88 3.444.503 1.005 1.364 1.795 3.086 3.373.862.862 1.508 1.292 1.938 1.651.574.502.718.574.933.933.574 1.22.359 2.44.072 4.09ZM63.772 51.634c.215.072.359.36.215.574-.43.646-.933 1.58-1.507 2.656-.287.502-.574 1.076-.79 1.435-.789 1.364-.86 2.584-.932 3.517-.072 1.004-.072 1.435-.718 1.794-.502.359-1.005.43-4.45.933-.574.072-.86.215-1.076.287-.072 0-.072 0-.144.072-.215.071-.502-.072-.43-.36 0-.502.072-1.076.072-1.793v-1.794c-.072-.862-.072-1.22.215-1.651.287-.43.502-.574.861-.861.503-.36 1.22-.79 2.297-2.225.574-.79.646-1.148.79-1.507 0-.144.07-.215.502-.503.43-.358 1.794-1.363 3.588-1.076.287.072.933.287 1.507.502ZM50.208 67.495c-.072.072-.143.143-.287.143-.359 0-.646-.072-.79-.287-.358-.43-.287-1.292-.215-1.794l1.436-.359c.071.79.143 1.866-.144 2.297Zm.072-5.239c0 .215-.072.43-.072.718v1.076c-.43.144-.861.144-1.364.144v-1.22c0-.288 0-.718.072-.862.144 0 .287-.072.43-.072.288-.071.719-.143.934-.143.072.072 0 .215 0 .359Zm-2.656 4.808c-.071.718-.287 1.65-1.004 1.794-.287.072-.502 0-.574-.143-.503-.43-.574-1.794-.503-2.727.287 0 .718-.072 1.22-.144.287-.072.575-.143.861-.143v1.363Zm-.358-2.655-1.58.502c.072-.646.216-1.507.216-2.081 0-.43.144-.502.144-.574h.071l1.005-.072c.144.574.144 1.579.144 2.225Zm-2.512-.502c-.072.215-.215.932-.287 1.363l-2.01-.072c.144-.646.287-1.22.43-1.722.144-.502.36-.861.503-.933.215-.144.646-.144.933.072.43.358.574.79.43 1.291Zm-.789 6.028c-.144.215-.36.287-.503.359-.215 0-.359 0-.502-.144-.646-.574-.574-2.44-.574-3.373.79-.215 1.722-.359 2.153-.359.071.718.071 2.728-.575 3.517Zm-2.585-4.808c-.071.287-.215.502-.286.717-.216.072-.933 0-1.65-.143l.502-3.086c.789-.215 1.722-.287 2.009-.072.287.359-.287 1.938-.574 2.584Zm-.86 5.31c-.36.502-.933.718-1.794.718-.575 0-.79-.216-.862-.36-.43-.717 0-2.367.431-3.444l2.655.144c0 .215.072.43.072.645.072.718 0 1.651-.502 2.297Z"/>
  <path fill="#fff" d="M62.623 47.831c-2.44-.718-2.224-4.234-2.009-7.607.072-1.22.144-2.368.072-3.301-.215-3.158-.718-6.675-3.301-8.254-2.728-1.722-7.249-1.291-10.048-.933-1.004.288-2.01.503-2.727.503-1.65-.072-2.942-.79-4.019-1.364-.86-.502-1.65-.86-2.368-.86h-.143c-2.153.143-3.158.645-4.02 1.506-.215.215-.502.79-1.435 3.373-.43 1.292-.574 2.01-.645 2.727-.072.646-.144 1.292-.503 2.297a49.62 49.62 0 0 0-.574 1.794c-.43 1.507-.79 2.655-1.866 4.09-.143.144-.287.431-.43.718-.216.36-.503.861-.933 1.364-.288.359-.933 1.794-.862 2.225.072.717.287 1.148.503 1.65.287.503.574 1.077.574 1.866v.144c.072 1.22-.072 1.866-2.44 3.947a26.977 26.977 0 0 0-3.302 3.588c-.071.072 0 .215.144.215h.502c.575.072 1.149.287 1.508.718.071.072.143.072.287.072.358-.144.789-.144 1.22-.072.502.072.933.215 1.291.502.144.144.287.144.431.144.359-.072.79-.072 1.148.072.287.071.503.287.718.43.143.215.502.215.717.072.072-.072.216-.072.288-.144.502-.143 1.076-.071 1.579.072.215.072.502.144.717.287.359.216.574.574.79 1.005.143.287.502.43.789.215.287-.215.574-.287.861-.143.072.072.215.143.287.215.215.215.503.43.79.359.79-.215 1.722-.072 2.368.287.287.144.502.359.718.646v-.144c0-.071.071-.143.143-.143l.144-.072c.358-.143 2.368-.718 3.157.144 0 0 .072.071.144 0 .072-.144.215-.144.215-.216.502-.287 1.364-.358 1.938.144.143.072.287.072.359-.072l.215-.215c.215-.144.43-.287.718-.215l1.076-.072c.287 0 1.148-.072 1.435-.144h.072c.144 0 .216-.072.359-.072.502-.143 1.148-.215 1.65 0 .503.216.431.79.36 1.22 0 .216-.072.431-.072.575v.287c0 .43 0 .789-.072 1.076l.072.215c.071.216.287.36.502.216.359-.216.718-.503.861-.718v-.072c0-.072.072-.143.072-.359.072-.43.143-1.22.143-2.942v-1.795c-.071-.932-.071-1.65.36-2.367.43-.718.86-1.005 1.291-1.22.502-.288 1.005-.646 1.938-1.866.43-.646.502-.861.574-1.077.072-.43.215-.717.933-1.292.574-.43 2.225-1.722 4.521-1.291.718.143 1.938.502 3.158 1.004.072 0 .072 0 .143.072h.072c1.077.43 2.081.861 2.727 1.22.216.072.43.072.574-.143.216-.216.431-.431.646-.575.072-.071.144-.071.216-.143.215-.215.215-.574-.072-.718a59.833 59.833 0 0 0-7.249-2.655Zm-22.965.718c-.717 3.23-5.813 6.89-8.11 6.89h-.43c-.43-.144-1.005-.431-1.435-.862a3.01 3.01 0 0 1-.646-1.005c0-.072 0-.143-.072-.215-.143-.574-.287-1.22.216-2.368l.215-.43c0-.073.072-.073.072-.145.071-.143.071-.215.143-.358.072-.144.144-.287.144-.43 0-.073.072-.073.072-.144.143-.36.143-.575.143-.718 0-.144 0-.287.072-.502.143-.646.215-1.149.287-1.58.143-.86.215-1.578.646-2.224a.56.56 0 0 1 .287-.287l.072-.072.071-.072c.144-.071.216-.143.36-.215.07 0 .07-.072.143-.072.072 0 .215-.072.287-.072.43-.071.933-.143 1.435-.071.646.072 1.148.143 1.65.287.431.143.79.215 1.077.359 0 0 .072 0 .072.071.072 0 .143.072.143.072.072.072.144.072.216.072.072.072.215.072.287.144h.072c.358.143.645.358.933.502.143.072.215.215.358.287.072 0 .072.072.072.072l.072.072c1.292 1.148 1.22 2.296 1.076 3.014Zm2.369-12.344-.072.574c-.215 1.364-.718 3.158-2.655 3.66-1.866.43-2.297.574-3.589.574h-.072c-.932 0-2.798-.574-3.157-2.081-.215-1.005.215-1.65.933-2.87.143-.216.215-.431.359-.646.933-1.58 1.291-2.728 1.578-3.589.288-.861.503-1.65 1.149-2.225a3.12 3.12 0 0 1 .502-.43c.144-.072.215-.144.359-.215.143-.072.359-.144.574-.216a4.19 4.19 0 0 1 1.364-.215c.86 0 1.794.287 2.44.79.287.215.717.717.933 2.08 0 .646-.216 1.938-.646 4.809Zm13.707 3.803c-.646 1.149-1.005 1.795-1.579 2.225-1.148.933-2.44 1.149-3.516 1.149-.79 0-1.436-.144-1.866-.216-1.149-.215-3.23-.574-3.948-2.225-.143-.358-.143-.502-.143-.789 0-.287 0-.718-.144-1.722v-.072c-.071-.502-.143-1.005 0-1.722v-.072c.36-2.01.503-2.297.575-2.512.215-.359.717-.574 1.076-.359.359.215.574.646.359 1.077-.072.143-.144.574-.43 2.08v.073c-.073.43-.073.789 0 1.22v.071c.143 1.149.143 1.651.143 1.938v.215c.143.287.359.503.646.646.287.144.574-.143.502-.43-.359-1.723-.287-3.732.359-4.952.215-.43.646-1.148 1.005-1.794.071-.072.071-.144.143-.216 0-.071.072-.143.072-.143.144-.287.359-.574.43-.718 0 0 0-.072.072-.072 0 0 0-.071.072-.071 0-.072.072-.072.072-.144v-.143l.072-.072c.071-.144.215-.287.287-.43.215-.288 0-.647-.36-.503-.573.287-.932.574-1.004.574-.359.287-.861.215-1.148-.144-.287-.358-.215-.86.143-1.148.431-.359 2.584-1.938 5.24-1.148 1.865.502 2.87 2.01 3.229 2.512.287.43 1.22 1.794 1.22 3.66.072 1.435-.503 2.512-1.58 4.377Z"/>
  <path fill="#fff" d="M38.654 30.177c-.144.359-.287.717-.502 1.148-.431 1.005-.862 2.153-1.077 2.584-.359.717-.646 1.148-.933 1.507-.287.43-.502.717-.646 1.22-.287.79-.359 1.722-.143 2.727-.503-.072-1.292-.43-1.436-.861-.071-.36.144-.646.718-1.651.144-.215.215-.43.359-.646a17.581 17.581 0 0 0 1.722-3.947c.36-1.005.503-1.435 1.005-1.794.359-.072.646-.215.933-.287Zm-1.005 36.17c-.574 1.148-1.22 2.153-1.65 2.727-.36-.933-1.005-3.158-.79-4.952v-.144c.072-.574.215-1.076.502-1.435.144-.287.646-.43 1.22-.43.43 0 .861.071 1.22.286.216.072.503.36.503.933-.072.79-.43 1.938-1.005 3.015Z"/>
  <path fill="#fff" d="M68.221 53.572c.072 0 .072.072.072.143-.144.36-.359.575-.574.862a12.29 12.29 0 0 0-.933 1.291c-.43.862-.574 1.651-.646 3.589-.072 2.296 0 3.66.072 4.593.072.933.072 1.507-.072 2.368-.359 1.794-1.076 3.014-2.081 4.521-1.22 1.866-2.512 3.876-4.593 4.522-.215.071-.215.071-.718.071-.502 0-1.292 0-2.799.072-2.727.072-4.162.144-5.31.359-1.22.215-1.866.502-2.512.79-.574.215-1.077.43-2.153.645-.574.144-1.507.287-4.593.287-3.23 0-5.167 0-7.75-.287-3.517-.43-5.312-.574-6.46-1.22-2.799-1.507-3.947-4.162-5.885-8.54 0-.072.072-.144.072-.072.072.072.215.072.287.144.072 0 .144.072.287.072h.718c.144.358.287.645.646.789.359.144.718.215 1.076.215.36 0 .79 0 1.149-.072.215 0 .43.072.502.287.359.862.79 1.436 1.435 1.508h.144c.143 0 .287 0 .574-.216.287-.215.79-.072 1.005.216.143.143.287.287.43.358.646.646 2.297 1.005 3.588 1.005.718 0 1.364-.072 1.795-.287.574-.287.574-.717.502-.861-.072-.287-.072-.574-.144-.861 0 0 .072-.072.072 0 .072.143.144.43.43.43h.073c.358 0 .933.144 1.076.503.072.215.144.358.215.502.216.359.718.79 1.58.79h.071c1.077 0 1.866-.36 2.368-1.005 0-.072.072-.072.072-.144.215-.287.79-.287 1.005-.072.287.287.646.36 1.005.36h.215c.502-.073.861-.288 1.148-.718.215-.287.359-.646.43-1.005 0-.144.216-.144.288-.072.215.215.502.359 1.004.359.144 0 .216 0 .36-.072.932-.215 1.363-.933 1.578-1.794 0 0 .072-.072.072 0 .215.287.646.574 1.363.574h.144c.359 0 .718-.215.933-.502.287-.359.43-.933.43-1.436 0-.215.144-.358.36-.43.789-.359 1.65-1.005 1.937-1.507.072-.144.215-.287.359-.287.574-.144.861-.216 1.076-.36.216-.07.36-.143.79-.214 3.516-.503 4.162-.646 4.952-1.149 1.148-.789 1.22-1.794 1.22-2.798.071-.862.071-1.795.789-2.943.215-.43.502-.933.79-1.507.502-.933 1.22-2.225 1.722-2.942.143-.144.359-.216.502-.144 1.22.574 2.225 1.077 2.44 1.292Z"/>
  <path fill="#fff" d="M34.276 63.978c-.143 1.22-.215 2.799 0 4.952.072.574.144 1.22.215 1.866-.143.072-.645.215-1.507.215-1.292 0-2.512-.359-2.87-.718l-.072-.071c-.287-.215-.502-.43-.502-.861 0-.144.071-.288.215-.503.072-.143.143-.287.287-.43.215-.287.502-.646.718-1.077.789-1.363 1.076-1.722 1.435-2.296 0-.072.072-.072.072-.144.215-.287.502-.646.86-1.292.288-.43.575-.79.718-1.076.36-.43.575-.718.718-.861 0 .215-.072.502-.143.79 0 .358-.072.86-.144 1.506Zm-.574-18.802a4.133 4.133 0 0 0-.574 1.005c-.574 1.363-.646 2.08-.646 2.727 0 .287 0 .574-.072.86-.072.216-.143.431-.287.647-.359.79-.79 1.866-.646 3.3-.287-.143-.718-.43-.79-.645 0-.072 0-.144-.071-.215-.072-.43-.144-.718.143-1.364.718-1.722.862-2.153.933-2.583 0-.072 0-.216.072-.288.144-.645.216-1.291.287-1.722.072-.718.144-1.148.43-1.507.073-.143.36-.215.718-.215h.503s-.072 0 0 0Zm-1.005 17.008c-.071-.43-.143-.861-.287-1.22l-.071-.144c0-.072-.072-.072-.072-.143 0 0 0-.072-.072-.072l-.072-.072h-.072s-.071 0-.071-.072h-.072c-.215-.071-.503-.215-.718-.215h-.215c-.072 0-.144 0-.144.072 0 0-.071 0-.071.072 0 0-.072 0-.072.071l-.072.072s0 .072-.072.072c-.071.144-.215.287-.287.43-.215.36-.502.718-.717 1.077-.216.287-.431.646-.646.933-.144.143-.216.359-.36.502l-.07.072c.143 0 .286.072.43.072.359.072.646.143 1.005.143.645.072 1.363.144 2.08.144h.072c.144-.215.36-.502.575-.861a6.64 6.64 0 0 0 .358-.574c-.215-.144-.287-.216-.287-.36Zm-2.368 2.799c-.072.502-.646 1.866-1.579 3.157-.79 1.077-1.22 1.364-1.292 1.364-.359-.072-.717-.933-1.005-1.866-.143-.359-.215-.718-.287-1.005-.215-.717-.215-1.578-.215-2.152.79.43 2.081.574 4.02.574.07-.072.214-.072.358-.072Zm-1.364-4.306c0 .072 0 .072 0 0-.358.502-.645 1.005-1.004 1.507-.144.215-.36.503-.503.718-.071.143-.215.287-.287.43a11.354 11.354 0 0 1-.79-.215l-.645-.215c-.072 0-.072 0-.143-.072 0-.072-.072-.143-.144-.215.072-.144.143-.287.215-.503l.43-.86c.288-.503.647-1.006 1.15-1.364 0 0 .07 0 .07-.072.216-.144.36-.215.647-.215h.287c.072 0 .143 0 .143.071h.072c.072 0 .072.072.144.072-.072-.072.071.144.071.144.216.358.216.574.287.79Zm-2.583-1.363c-.574.502-1.005 1.148-1.435 1.866-.216.359-.36.79-.574 1.148 0 .072-.072.072-.072.143-.215-.071-.359-.071-.574-.143-.216-.072-.36-.144-.575-.215-.071-.072-.143-.072-.215-.144.216-.359.43-.646.574-1.005.287-.43.575-.86.933-1.291.144-.144.287-.36.43-.43.216-.145.431-.073.647-.073.215 0 .43 0 .646.072a.556.556 0 0 0 .215.072Zm-.933 8.109-.072.072h-1.363c-.144 0-.287 0-.36-.144a1.713 1.713 0 0 1-.143-.645c-.215-1.005-.215-2.082-.072-3.158a6.207 6.207 0 0 0 1.651.43c-.143.933.072 2.297.215 2.727 0 .36.072.503.144.718Zm-1.722-8.397c-.503.575-.933 1.22-1.292 1.866-.144.287-.359.503-.43.79-.216-.072-.36-.144-.575-.215-.143-.072-.287-.216-.43-.288 0 0-.144-.071-.144-.143h-.072c.072-.144.144-.287.144-.359.072-.215.215-.43.358-.646.216-.359.503-.79.718-1.148a.865.865 0 0 1 .359-.359c.144-.072.359 0 .43 0 .431.072.646.215.934.502Zm-3.661 2.512c.216.144.36.287.575.43l.215.216v.072c-.216.79-.359 1.65-.359 2.44 0 .072-.072.072-.072 0-.215-1.005-.574-2.584-.359-3.158Zm2.297 1.795c-.072.718-.144 1.435-.144 2.153 0 .359.072.79.144 1.148h-.431c-.072 0-.143 0-.215-.072l-.287-.287c-.215-.359-.215-.717-.215-1.076 0-.718 0-1.435.143-2.225.144.072.215.072.359.144.287.071.502.143.646.215Z"/>
  <defs>
    <radialGradient id="a" cx="0" cy="0" r="1" gradientTransform="matrix(0 56.1501 -56.1501 0 50 55.187)" gradientUnits="userSpaceOnUse">
      <stop offset=".167" stop-color="#073183"/>
      <stop offset="1" stop-color="#0054F9"/>
    </radialGradient>
  </defs>
</svg>
