<svg width="100" height="100" viewBox="0 0 100 100" fill="none" xmlns="http://www.w3.org/2000/svg">
<g clip-path="url(#clip0_921_193)">
<path d="M50 100C77.6142 100 100 77.6142 100 50C100 22.3858 77.6142 0 50 0C22.3858 0 0 22.3858 0 50C0 77.6142 22.3858 100 50 100Z" fill="white"/>
<path d="M50.75 70.9002C34.76 70.9002 21.8 66.2802 21.8 60.0902C21.8 56.8602 25.33 53.9502 30.98 51.9002C35.39 54.7302 42.79 56.1802 51.18 56.1802C59.37 56.1802 66.61 54.4102 71.06 51.7002C76.39 53.7302 79.7001 56.5602 79.7001 59.6802C79.7001 65.8802 66.74 70.9002 50.75 70.9002Z" fill="black"/>
<path d="M50.92 54.7898C38.8 54.7898 28.97 50.9898 28.97 46.2998C28.97 43.6998 32 41.3698 36.75 39.8198C40.14 41.5898 45.22 42.7198 50.92 42.7198C56.62 42.7198 61.7 41.5898 65.09 39.8198C69.85 41.3798 72.87 43.6998 72.87 46.2998C72.88 50.9898 63.05 54.7898 50.92 54.7898Z" fill="black"/>
<path d="M50.8401 41.3101C41.4701 41.3101 33.8701 38.1701 33.8701 34.3101C33.8701 30.4501 41.4701 27.3101 50.8401 27.3101C60.2101 27.3101 67.8101 30.4501 67.8101 34.3101C67.8101 38.1701 60.2101 41.3101 50.8401 41.3101Z" fill="black"/>
</g>
<defs>
<clipPath id="clip0_921_193">
<rect width="100" height="100" fill="white"/>
</clipPath>
</defs>
</svg>
