<svg width="100" height="100" viewBox="0 0 100 100" fill="none" xmlns="http://www.w3.org/2000/svg">
<g clip-path="url(#clip0_1052_49)">
<path d="M50 100C77.6142 100 100 77.6142 100 50C100 22.3858 77.6142 0 50 0C22.3858 0 0 22.3858 0 50C0 77.6142 22.3858 100 50 100Z" fill="#0AC18E"/>
<path d="M72.4685 43.8148C73.4493 37.2628 68.4622 33.7405 61.6389 31.391L63.8507 22.5144L58.4505 21.1706L56.2971 29.8093C54.8782 29.4587 53.4175 29.1249 51.9652 28.7952L54.1354 20.0981L48.7393 18.7501L46.5275 27.6225C45.3506 27.3554 44.1946 27.0925 43.0762 26.8087L43.0845 26.7837L35.631 24.9224L34.1954 30.6899C34.1954 30.6899 38.2018 31.608 38.1183 31.6664C40.3093 32.2131 40.7016 33.6612 40.6348 34.8089L38.1183 44.9207C38.2686 44.9583 38.4605 45.0125 38.6775 45.1002L38.1058 44.9583L34.5752 59.1224C34.3081 59.7818 33.6279 60.7792 32.0963 60.4036C32.1547 60.4787 28.1734 59.4229 28.1734 59.4229L25.49 65.6035L32.522 67.3562C33.8282 67.6901 35.1094 68.0323 36.3697 68.3537L34.137 77.3262L39.5331 78.67L41.7449 69.7976C43.2181 70.1941 44.6495 70.5613 46.0517 70.9119L43.8441 79.7509L49.2443 81.0947L51.4811 72.1346C60.6916 73.8791 67.6192 73.178 70.5321 64.8439C72.8817 58.1375 70.4195 54.2689 65.5701 51.744C69.1007 50.9344 71.7591 48.6141 72.4685 43.8148V43.8148ZM60.124 61.1214C58.4547 67.832 47.1618 64.2013 43.4977 63.2915L46.469 51.3976C50.129 52.3158 61.8684 54.127 60.124 61.1214ZM61.7933 43.7188C60.2742 49.8202 50.8718 46.7152 47.8254 45.9557L50.5129 35.1761C53.5594 35.9357 63.3833 37.3504 61.7975 43.7188H61.7933Z" fill="white"/>
</g>
<defs>
<clipPath id="clip0_1052_49">
<rect width="100" height="100" fill="white"/>
</clipPath>
</defs>
</svg>
