<svg width="24" height="24" viewBox="0 0 24 24" fill="none" xmlns="http://www.w3.org/2000/svg">
<g clip-path="url(#clip0)">
<path d="M12 24C18.6274 24 24 18.6274 24 12C24 5.37258 18.6274 0 12 0C5.37258 0 0 5.37258 0 12C0 18.6274 5.37258 24 12 24Z" fill="#F7931A"/>
<path d="M17.3925 10.5157C17.6279 8.94316 16.431 8.09782 14.7934 7.53393L15.3243 5.40356L14.0282 5.08105L13.5114 7.15433C13.1709 7.0702 12.8203 6.99007 12.4717 6.91094L12.9926 4.82364L11.6975 4.50013L11.1667 6.6295C10.8842 6.5654 10.6068 6.5023 10.3384 6.43419L10.3404 6.42818L8.55154 5.98147L8.20699 7.36566C8.20699 7.36566 9.16851 7.58601 9.14848 7.60003C9.67432 7.73124 9.76846 8.07879 9.75244 8.35423L9.14848 10.7811C9.18454 10.7901 9.23061 10.8031 9.28269 10.8241L9.14548 10.7901L8.29814 14.1895C8.23403 14.3477 8.07078 14.5871 7.70319 14.497C7.71722 14.515 6.7617 14.2616 6.7617 14.2616L6.11768 15.7449L7.80536 16.1656C8.11885 16.2457 8.42634 16.3279 8.72882 16.405L8.19297 18.5584L9.48802 18.8809L10.0189 16.7515C10.3724 16.8467 10.716 16.9348 11.0525 17.0189L10.5227 19.1403L11.8187 19.4628L12.3556 17.3124C14.5661 17.7311 16.2287 17.5628 16.9278 15.5626C17.4917 13.9531 16.9008 13.0246 15.7369 12.4187C16.5843 12.2244 17.2223 11.6675 17.3925 10.5157V10.5157ZM14.4298 14.6692C14.0292 16.2798 11.3189 15.4084 10.4395 15.1901L11.1527 12.3355C12.031 12.5559 14.8485 12.9906 14.4298 14.6692ZM14.8305 10.4926C14.4659 11.9569 12.2093 11.2118 11.4782 11.0295L12.1232 8.44237C12.8544 8.62466 15.2121 8.96419 14.8315 10.4926H14.8305Z" fill="white"/>
</g>
<defs>
<clipPath id="clip0">
<rect width="24" height="24" fill="white"/>
</clipPath>
</defs>
</svg>
