<svg width="800" height="800" viewBox="0 0 800 800" fill="none" xmlns="http://www.w3.org/2000/svg">
<path d="M400 800C620.914 800 800 620.914 800 400C800 179.086 620.914 0 400 0C179.086 0 0 179.086 0 400C0 620.914 179.086 800 400 800Z" fill="#4DD7DD"/>
<path fill-rule="evenodd" clip-rule="evenodd" d="M234.142 221.938C225.972 179.85 258.653 141 301.139 141C338.722 141 369.77 171.756 369.77 208.987V293.162C379.574 293.162 389.379 291.544 399.183 291.544C408.987 291.544 417.158 291.544 426.962 293.162V208.987C426.962 171.756 458.009 141 495.593 141C538.079 141 570.76 179.85 564.224 221.938L546.249 320.681C609.978 348.2 659 396.762 659 456.656V493.887C659 544.069 626.319 586.156 578.931 613.675C531.543 642.813 469.448 659 399.183 659C328.918 659 266.823 642.813 219.435 613.675C173.681 586.156 141 544.069 141 493.887V456.656C141 396.762 188.388 348.2 252.117 320.681L234.142 221.938ZM521.738 333.631L542.981 217.081C547.883 187.944 526.64 160.425 495.593 160.425C469.448 160.425 448.205 181.469 448.205 207.369V314.206C441.669 312.587 433.498 312.588 426.962 312.588C417.158 312.588 408.987 310.969 399.183 310.969C389.379 310.969 379.574 310.969 369.77 312.588C363.233 312.588 355.063 314.206 348.527 314.206V208.987C348.527 183.087 327.284 162.044 301.139 162.044C271.726 162.044 248.849 189.563 255.385 218.7L276.628 335.25C207.997 361.15 162.243 406.475 162.243 458.275V495.506C162.243 574.825 268.457 639.575 399.183 639.575C529.909 639.575 636.123 574.825 636.123 495.506V458.275C637.757 404.856 592.003 359.531 521.738 333.631Z" fill="#633001"/>
<path d="M637.732 493.887C637.732 573.206 531.517 637.956 400.792 637.956C270.066 637.956 163.852 573.206 163.852 493.887V456.656H639.366V493.887H637.732Z" fill="#FEDC90"/>
<path fill-rule="evenodd" clip-rule="evenodd" d="M255.359 218.697C248.823 189.559 271.7 162.041 301.113 162.041C327.259 162.041 348.501 183.084 348.501 208.984V315.822C364.842 314.203 381.183 312.584 399.158 312.584C415.498 312.584 431.839 314.203 448.18 315.822V208.984C448.18 183.084 469.423 162.041 495.568 162.041C524.981 162.041 547.858 189.559 542.956 218.697L521.713 335.247C590.344 361.147 637.732 406.472 637.732 458.272C637.732 537.591 531.517 602.341 400.792 602.341C270.066 602.341 163.852 537.591 163.852 458.272C163.852 406.472 209.606 361.147 278.236 335.247L255.359 218.697Z" fill="#D1884F"/>
<path d="M333.845 446.944C333.845 467.988 322.406 485.794 307.7 485.794C292.993 485.794 281.555 467.988 281.555 446.944C281.555 425.9 292.993 408.094 307.7 408.094C322.406 408.094 333.845 425.9 333.845 446.944Z" fill="#633001"/>
<path d="M515.189 446.944C515.189 467.988 503.75 485.794 489.044 485.794C474.337 485.794 462.898 467.988 462.898 446.944C462.898 425.9 474.337 408.094 489.044 408.094C503.75 408.094 515.189 425.9 515.189 446.944Z" fill="#633001"/>
</svg>
