<svg width="100" height="100" fill="none" xmlns="http://www.w3.org/2000/svg"><g clip-path="url(#a)"><path d="M50 100c27.615 0 50-22.386 50-50S77.615 0 50 0C22.386 0 0 22.386 0 50s22.386 50 50 50Z" fill="url(#b)"/><path d="M48.143 19.797a219.14 219.14 0 0 0-.386-2.195 1.924 1.924 0 0 0-1.72-1.584 4.594 4.594 0 0 0-2.011.266C33.044 20.434 25.039 33.777 25 49.54c-.03 16.003 8.18 29.486 19.385 33.533.045.015.09.033.133.048 1.435.498 2.874-.817 2.49-2.289-2.186-8.4-.702-17.867.866-27.806 1.026-6.512 2.088-13.238 1.991-19.547-.051-3.42-1.104-10.041-1.728-13.685l.006.003Zm7.893-3.115a7.526 7.526 0 0 0-1.55-.407 1.555 1.555 0 0 0-1.734 1.812c.723 4.132 1.888 11.35 1.948 15.322.103 6.73-.992 13.663-2.048 20.371-1.728 10.97-3.622 21.038.027 29.142 0 0 .603 1.448 3.707.543 11.278-3.287 18.996-17.496 19.035-33.259.027-16-8.186-29.492-19.382-33.527l-.003.003Z" fill="#fff"/><path d="M37.116 74.02a.585.585 0 0 1-.58-.499l-2.261-14.758a.574.574 0 0 1 .133-.467.594.594 0 0 1 .44-.208l1.601-.022c.242 0 .459.148.546.374 1.186 3.03 2.573 5.463 4.123 7.236 2.621 2.999 5.879 4.515 9.682 4.515h.193c2.057-.027 3.849-.708 5.33-2.03 1.475-1.315 2.177-3.1 2.147-5.453-.027-2.12-.793-3.908-2.34-5.462-1.032-1.007-3.273-2.558-6.654-4.605l-5.972-3.62c-1.837-1.13-3.327-2.298-4.434-3.468-2.093-2.272-3.17-4.832-3.206-7.616-.048-3.65 1.146-6.747 3.547-9.211 2.401-2.465 5.64-3.74 9.628-3.792h.136c1.613 0 3.562.377 5.79 1.125 2.962.996 3.535 1.086 3.641 1.09.453-.007 1.056-.082 1.312-.408.269-.34.48-.848.63-1.508a.583.583 0 0 1 .564-.456l1.433-.018c.299 0 .55.223.582.519l1.72 14.767a.594.594 0 0 1-.142.456.595.595 0 0 1-.435.199l-1.67.02a.587.587 0 0 1-.568-.434c-1.146-4.28-2.94-7.28-5.33-8.924-2.364-1.623-4.71-2.446-6.978-2.446H49.6c-1.756.024-3.297.567-4.585 1.613-1.264 1.029-1.867 2.41-1.843 4.229.022 1.656.525 3.022 1.539 4.177 1.055 1.225 2.723 2.519 4.958 3.855l6.15 3.685c3.945 2.362 6.663 4.489 8.313 6.506 1.65 2.073 2.503 4.555 2.54 7.387.048 3.797-1.364 7.033-4.193 9.619-2.811 2.567-6.47 3.897-10.87 3.954h-.23c-2.132 0-4.391-.39-6.71-1.165-3.131-1.043-3.734-1.134-3.846-1.137-.875.012-1.062.353-1.125.465a4.128 4.128 0 0 0-.474 1.402.59.59 0 0 1-.573.504l-1.532.02-.003-.01Z" fill="#517A36"/><mask id="c" style="mask-type:alpha" maskUnits="userSpaceOnUse" x="33" y="24" width="35" height="51"><path d="m62.54 25.344 1.718 14.767-1.662.021c-1.188-4.44-3.043-7.525-5.564-9.256-2.477-1.701-4.914-2.549-7.312-2.549h-.132c-1.9.024-3.547.606-4.947 1.743s-2.084 2.703-2.06 4.69c.024 1.786.585 3.306 1.686 4.558 1.098 1.276 2.8 2.597 5.1 3.97l6.15 3.685c3.882 2.322 6.548 4.4 8.162 6.373 1.569 1.97 2.371 4.31 2.407 7.025.048 3.64-1.288 6.698-4.003 9.175-2.714 2.476-6.21 3.743-10.48 3.8h-.224c-2.08 0-4.255-.377-6.524-1.134-2.337-.778-3.68-1.167-4.03-1.167h-.005c-.815.012-1.36.265-1.635.766a4.703 4.703 0 0 0-.54 1.601l-1.526.022-2.262-14.759 1.592-.02c1.216 3.103 2.624 5.573 4.229 7.407 2.75 3.146 6.126 4.718 10.122 4.718h.2c2.21-.03 4.116-.755 5.712-2.178 1.595-1.424 2.377-3.39 2.343-5.9-.03-2.259-.865-4.216-2.512-5.87-1.074-1.049-3.33-2.611-6.765-4.692l-5.972-3.62c-1.798-1.107-3.237-2.232-4.313-3.369-1.997-2.169-3.01-4.575-3.047-7.22-.045-3.505 1.08-6.437 3.378-8.796 2.299-2.358 5.37-3.562 9.215-3.613h.126c1.557 0 3.424.365 5.601 1.095 2.226.748 3.5 1.122 3.825 1.122h.006c.86-.012 1.45-.223 1.773-.634.323-.41.57-.992.742-1.74l1.424-.018m0-1.173h-.015l-1.424.018a1.176 1.176 0 0 0-1.13.91c-.164.719-.375 1.09-.52 1.277-.036.048-.256.168-.823.184-.163-.024-.842-.172-3.48-1.06-2.29-.768-4.299-1.157-5.976-1.157h-.141c-4.148.054-7.526 1.387-10.038 3.969-2.513 2.579-3.761 5.818-3.713 9.63.04 2.932 1.167 5.623 3.354 8 .003.002.006.008.012.011 1.143 1.21 2.675 2.407 4.548 3.563l5.978 3.625c3.336 2.021 5.538 3.544 6.549 4.524 1.432 1.439 2.138 3.092 2.165 5.05.027 2.171-.61 3.808-1.951 5.006-1.39 1.24-3.008 1.855-4.947 1.879H50.8c-3.676 0-6.699-1.411-9.238-4.316-1.508-1.722-2.86-4.1-4.018-7.06a1.178 1.178 0 0 0-1.095-.75h-.015l-1.592.022a1.17 1.17 0 0 0-.881.416c-.22.26-.317.6-.265.938l2.262 14.758c.087.573.582.996 1.16.996h.016l1.526-.021a1.173 1.173 0 0 0 1.146-1.004c.064-.432.196-.824.405-1.204.048-.09.277-.15.588-.16.162.021.865.17 3.682 1.107 2.38.793 4.7 1.195 6.898 1.195h.239c4.548-.061 8.336-1.443 11.258-4.106 2.962-2.702 4.438-6.086 4.386-10.058-.039-2.968-.935-5.572-2.663-7.74-1.701-2.081-4.47-4.253-8.475-6.648l-6.147-3.685c-2.184-1.303-3.804-2.558-4.814-3.728-.926-1.053-1.381-2.295-1.4-3.806-.02-1.626.51-2.857 1.626-3.765 1.198-.974 2.579-1.46 4.22-1.48h.117c2.148 0 4.383.787 6.648 2.343 2.271 1.56 3.987 4.452 5.094 8.59.14.513.603.872 1.134.872h.015l1.662-.021a1.172 1.172 0 0 0 1.15-1.31l-1.72-14.767a1.172 1.172 0 0 0-1.167-1.037h-.006Z" fill="#fff"/></mask><g mask="url(#c)"><path d="m62.54 25.344 1.718 14.767-1.662.021c-1.188-4.44-3.043-7.525-5.564-9.256-2.477-1.701-4.914-2.549-7.312-2.549h-.132c-1.9.024-3.547.606-4.947 1.743s-2.084 2.703-2.06 4.69c.024 1.786.585 3.306 1.686 4.558 1.098 1.276 2.8 2.597 5.1 3.97l6.15 3.685c3.882 2.322 6.548 4.4 8.162 6.373 1.569 1.97 2.371 4.31 2.407 7.025.048 3.64-1.288 6.698-4.003 9.175-2.714 2.476-6.21 3.743-10.48 3.8h-.224c-2.08 0-4.255-.377-6.524-1.134-2.337-.778-3.68-1.167-4.03-1.167h-.005c-.815.012-1.36.265-1.635.766a4.703 4.703 0 0 0-.54 1.601l-1.526.022-2.262-14.759 1.592-.02c1.216 3.103 2.624 5.573 4.229 7.407 2.75 3.146 6.126 4.718 10.122 4.718h.2c2.21-.03 4.116-.755 5.712-2.178 1.595-1.424 2.377-3.39 2.343-5.9-.03-2.259-.865-4.216-2.512-5.87-1.074-1.049-3.33-2.611-6.765-4.692l-5.972-3.62c-1.798-1.107-3.237-2.232-4.313-3.369-1.997-2.169-3.01-4.575-3.047-7.22-.045-3.505 1.08-6.437 3.378-8.796 2.299-2.358 5.37-3.562 9.215-3.613h.126c1.557 0 3.424.365 5.601 1.095 2.226.748 3.5 1.122 3.825 1.122h.006c.86-.012 1.45-.223 1.773-.634.323-.41.57-.992.742-1.74l1.424-.018m0-1.173h-.015l-1.424.018a1.176 1.176 0 0 0-1.13.91c-.164.719-.375 1.09-.52 1.277-.036.048-.256.168-.823.184-.163-.024-.842-.172-3.48-1.06-2.29-.768-4.299-1.157-5.976-1.157h-.141c-4.148.054-7.526 1.387-10.038 3.969-2.513 2.579-3.761 5.818-3.713 9.63.04 2.932 1.167 5.623 3.354 8 .003.002.006.008.012.011 1.143 1.21 2.675 2.407 4.548 3.563l5.978 3.625c3.336 2.021 5.538 3.544 6.549 4.524 1.432 1.439 2.138 3.092 2.165 5.05.027 2.171-.61 3.808-1.951 5.006-1.39 1.24-3.008 1.855-4.947 1.879H50.8c-3.676 0-6.699-1.411-9.238-4.316-1.508-1.722-2.86-4.1-4.018-7.06a1.178 1.178 0 0 0-1.095-.75h-.015l-1.592.022a1.17 1.17 0 0 0-.881.416c-.22.26-.317.6-.265.938l2.262 14.758c.087.573.582.996 1.16.996h.016l1.526-.021a1.173 1.173 0 0 0 1.146-1.004c.064-.432.196-.824.405-1.204.048-.09.277-.15.588-.16.162.021.865.17 3.682 1.107 2.38.793 4.7 1.195 6.898 1.195h.239c4.548-.061 8.336-1.443 11.258-4.106 2.962-2.702 4.438-6.086 4.386-10.058-.039-2.968-.935-5.572-2.663-7.74-1.701-2.081-4.47-4.253-8.475-6.648l-6.147-3.685c-2.184-1.303-3.804-2.558-4.814-3.728-.926-1.053-1.381-2.295-1.4-3.806-.02-1.626.51-2.857 1.626-3.765 1.198-.974 2.579-1.46 4.22-1.48h.117c2.148 0 4.383.787 6.648 2.343 2.271 1.56 3.987 4.452 5.094 8.59.14.513.603.872 1.134.872h.015l1.662-.021a1.172 1.172 0 0 0 1.15-1.31l-1.72-14.767a1.172 1.172 0 0 0-1.167-1.037h-.006Z" fill="#517936"/><path d="m64.258 40.111.008.607.672-.009-.077-.668-.603.07Zm-1.662.021-.586.157.122.456.472-.006-.008-.607Zm-5.565-9.256-.343.5.343-.5Zm-7.444-2.549v-.606h-.007l.007.606Zm-7.006 6.434-.607.007.607-.007Zm1.686 4.557.46-.396-.002-.002-.003-.003-.455.401Zm5.1 3.97.312-.521h-.001l-.31.52Zm6.15 3.685-.312.52.312-.52Zm8.162 6.373.474-.378-.002-.003-.002-.003-.47.384Zm2.406 7.025.607-.008-.606.008ZM51.602 73.346v.607h.008l-.008-.607Zm-6.747-1.134.192-.575-.192.575Zm-4.035-1.167v-.606h-.01l.01.606Zm-1.635.766.53.294.001-.001v-.002l-.531-.29Zm-.54 1.602.008.606.516-.007.076-.51-.6-.09Zm-1.526.021-.6.092.08.521.528-.006-.008-.607Zm-2.262-14.758-.008-.607-.698.01.106.689.6-.093Zm1.592-.022.565-.22-.153-.392-.42.006.008.606Zm4.229 7.408.456-.4-.456.4Zm10.321 4.718v.606h.008L51 70.78Zm8.056-8.078.607-.007v-.001l-.607.008Zm-2.512-5.87.43-.428-.003-.002-.003-.003-.424.434Zm-6.765-4.692-.315.518v.001l.315-.52Zm-5.973-3.62-.318.517.002.001.002.001.314-.519Zm-4.313-3.369-.446.411.003.003.003.004.44-.418Zm-3.046-7.22-.607.008.607-.008ZM49.04 25.522v-.606H49.03l.008.606Zm5.727 1.095.193-.575-.193.575Zm3.83 1.122v.607H58.606l-.008-.607Zm2.516-2.374-.008-.606-.476.006-.107.465.591.135Zm1.409-1.191v-.607h-.008l.008.607Zm-1.424.018.007.607-.007-.607Zm-1.131.911-.59-.138-.001.002v.002l.59.134Zm-.519 1.276-.48-.372-.002.004-.003.004.485.364Zm-.823.184-.09.6.053.008.053-.002-.016-.606Zm-3.48-1.059.192-.575-.193.575Zm-6.118-1.158v-.607h-.007l.007.607Zm-10.037 3.97.434.422-.434-.423Zm-3.713 9.63-.607.007.607-.007Zm3.354 7.999-.447.41.009.01.009.009.429-.43Zm.012.012.44-.417-.073-.078-.096-.048-.271.543Zm4.548 3.562-.318.516.002.001.002.001.314-.518Zm5.978 3.625-.314.519.314-.519Zm6.548 4.525.43-.429-.004-.004-.003-.003-.423.436Zm2.166 5.048.606-.007v-.001l-.606.008Zm-1.952 5.007.404.453-.404-.453Zm-4.946 1.879v.607h.007l-.007-.607Zm-9.423-4.316.457-.4-.457.4Zm-4.017-7.06-.565.22.565-.22Zm-1.11-.749v-.607h-.008l.008.607Zm-1.592.021.005.607h.003l-.008-.607Zm-1.147 1.355-.6.09v.002l.6-.092Zm2.262 14.757.6-.09v-.001l-.6.091Zm1.177.996v.607h.008l-.008-.607Zm1.526-.021-.006-.607h-.003l.009.607Zm1.146-1.004-.6-.089v.002l.6.087Zm.404-1.204.532.292.002-.004.002-.002-.536-.286Zm.588-.16.078-.602-.047-.006-.048.002.017.606Zm3.683 1.108.192-.576-.192.576Zm7.136 1.194v.606h.008l-.008-.606Zm11.26-4.106.408.45v-.002l-.409-.448Zm4.385-10.058.606-.008-.606.008Zm-2.663-7.74.474-.378-.002-.003-.002-.003-.47.385Zm-8.476-6.647-.312.52h.001l.311-.52Zm-6.146-3.686.312-.52h-.001v-.001l-.311.521Zm-4.814-3.728.459-.397-.002-.002-.002-.002-.455.401Zm-1.4-3.806.607-.008-.607.008Zm1.626-3.765.383.471-.383-.47Zm4.22-1.48v-.607H49.6l.008.607Zm6.765 2.343-.344.5.344-.5Zm5.094 8.59-.586.157v.002l.586-.159Zm1.149.872v.606h.007l-.007-.606Zm1.662-.021-.005-.607h-.002l.007.607Zm.865-.398-.455-.401.456.4Zm.284-.911-.602.07v.002l.602-.072Zm-1.72-14.767.604-.07-.603.07Zm-1.772.202 1.72 14.767 1.205-.14-1.72-14.767-1.205.14Zm2.314 14.09-1.662.022.016 1.213 1.662-.021-.016-1.213Zm-1.068.472c-1.207-4.512-3.12-7.755-5.807-9.6l-.687 1c2.355 1.617 4.153 4.545 5.322 8.913l1.172-.313Zm-5.807-9.6c-2.552-1.753-5.107-2.655-7.655-2.655v1.213c2.248 0 4.567.793 6.968 2.442l.687-1ZM49.72 27.72H49.587v1.213H49.72V27.72Zm-.14 0c-2.03.025-3.81.651-5.322 1.879l.765.941c1.288-1.046 2.801-1.585 4.572-1.607l-.015-1.213ZM44.258 29.6c-1.56 1.267-2.31 3.018-2.284 5.168l1.214-.015c-.023-1.825.597-3.205 1.835-4.212l-.765-.941Zm-2.284 5.169c.026 1.918.634 3.58 1.837 4.95l.911-.802c-.998-1.134-1.512-2.512-1.535-4.165l-1.213.017Zm1.833 4.945c1.158 1.346 2.922 2.706 5.25 4.094l.621-1.042c-2.275-1.356-3.914-2.638-4.951-3.844l-.92.792Zm5.248 4.094 6.15 3.685.624-1.04-6.15-3.686-.624 1.04Zm6.15 3.686c3.862 2.31 6.457 4.345 8.004 6.236l.94-.768c-1.68-2.054-4.418-4.175-8.32-6.51l-.623 1.042Zm8 6.23c1.477 1.856 2.24 4.064 2.274 6.655l1.213-.016c-.038-2.838-.88-5.312-2.539-7.395l-.948.756Zm2.274 6.655c.046 3.465-1.216 6.358-3.805 8.719l.818.896c2.841-2.592 4.251-5.815 4.2-9.631l-1.213.016Zm-3.805 8.719c-2.587 2.36-5.932 3.586-10.08 3.641l.016 1.214c4.394-.059 8.04-1.367 10.882-3.959l-.818-.896Zm-10.072 3.641H51.378v1.214H51.603v-1.214Zm-.223 0c-2.007 0-4.117-.363-6.332-1.102l-.384 1.15c2.321.775 4.561 1.166 6.716 1.166v-1.214Zm-6.332-1.102c-1.172-.39-2.1-.685-2.783-.883a16.769 16.769 0 0 0-.854-.227 2.87 2.87 0 0 0-.584-.088v1.213c-.005 0 .018 0 .08.01.058.01.134.025.232.047.196.045.458.115.788.21.66.192 1.572.48 2.737.869l.384-1.151Zm-4.221-.592v-.606h-.006v1.213h.005v-.607Zm-.016-.606c-.925.013-1.735.31-2.157 1.08l1.064.583c.126-.23.409-.44 1.111-.45l-.018-1.213Zm-2.156 1.078a5.313 5.313 0 0 0-.61 1.806l1.2.18c.075-.498.23-.962.471-1.398l-1.06-.588Zm-.018 1.29-1.526.02.017 1.214 1.526-.022-.017-1.213Zm-.918.535-2.262-14.758-1.2.184 2.263 14.758 1.2-.184Zm-2.853-14.06 1.592-.021-.016-1.213-1.593.02.017 1.214Zm1.02-.406c1.231 3.146 2.672 5.683 4.336 7.586l.913-.8c-1.544-1.765-2.921-4.168-4.12-7.228l-1.13.442Zm4.336 7.586c2.86 3.27 6.399 4.924 10.579 4.924v-1.213c-3.813 0-7.024-1.49-9.666-4.51l-.913.799ZM50.8 71.386H51v-1.213H50.8v1.213Zm.207 0c2.35-.032 4.4-.806 6.108-2.331l-.807-.906c-1.482 1.323-3.246 1.995-5.317 2.024l.016 1.213Zm6.108-2.331c1.75-1.562 2.582-3.71 2.547-6.36l-1.213.016c.03 2.367-.7 4.152-2.141 5.438l.807.906Zm2.547-6.361c-.033-2.422-.935-4.528-2.69-6.29l-.86.857c1.54 1.545 2.308 3.353 2.337 5.45l1.213-.017Zm-2.695-6.295c-1.131-1.106-3.446-2.7-6.875-4.778l-.629 1.038c3.441 2.084 5.639 3.613 6.656 4.608l.848-.868Zm-6.875-4.778L44.12 48l-.629 1.038 5.972 3.62.629-1.038Zm-5.968-3.617c-1.767-1.088-3.16-2.181-4.191-3.27l-.881.834c1.123 1.186 2.607 2.343 4.435 3.469l.637-1.033Zm-4.185-3.264c-1.908-2.072-2.852-4.339-2.886-6.818l-1.214.017c.039 2.812 1.121 5.358 3.207 7.623l.893-.822Zm-2.886-6.817c-.044-3.356 1.028-6.129 3.206-8.364l-.87-.847c-2.418 2.482-3.597 5.573-3.55 9.226l1.214-.015Zm3.206-8.364c2.167-2.224 5.074-3.38 8.788-3.43l-.017-1.213c-3.977.053-7.21 1.303-9.64 3.796l.869.847Zm8.78-3.43H49.166v-1.213H49.038v1.213Zm.126 0c1.468 0 3.266.345 5.408 1.063l.386-1.15c-2.213-.742-4.149-1.126-5.794-1.126v1.213Zm5.408 1.063c1.116.375 1.999.659 2.647.849.324.095.595.168.81.219.198.046.4.086.56.086v-1.213c.009 0-.009 0-.067-.01a3.496 3.496 0 0 1-.216-.045c-.185-.043-.432-.11-.745-.201a75.075 75.075 0 0 1-2.603-.835l-.386 1.15Zm4.018.547v.607h.005v-1.213h-.005v.606Zm.014.607c.926-.013 1.75-.24 2.242-.865l-.954-.75c-.153.194-.512.39-1.305.402l.017 1.213Zm2.242-.865c.398-.506.673-1.183.856-1.98l-1.182-.271c-.16.699-.38 1.186-.628 1.5l.954.75Zm.273-1.509 1.423-.018-.015-1.213-1.424.018.016 1.213Zm1.416-1.798v-.607H62.52v1.214H62.535v-.607Zm-.023-.607-1.424.018.016 1.214 1.423-.018-.015-1.213Zm-1.423.018a1.783 1.783 0 0 0-1.715 1.38l1.182.276c.06-.259.286-.44.547-.442l-.014-1.213Zm-1.716 1.384c-.148.651-.327.936-.407 1.038l.96.743c.21-.271.453-.729.63-1.513l-1.183-.268Zm-.412 1.046a.5.5 0 0 1 .137-.125c.01-.005 0 0-.034.01-.07.021-.212.05-.457.056l.032 1.213c.322-.008.573-.047.765-.103.095-.028.184-.063.262-.104.06-.032.176-.1.265-.22l-.97-.727Zm-.25-.052c-.1-.015-.725-.143-3.376-1.034l-.386 1.15c2.628.883 3.359 1.05 3.585 1.084l.178-1.2Zm-3.376-1.034c-2.326-.782-4.403-1.19-6.168-1.19v1.214c1.59 0 3.53.37 5.782 1.126l.386-1.15Zm-6.168-1.19H49.026v1.214H49.169v-1.214Zm-.15 0c-4.28.056-7.822 1.438-10.464 4.153l.87.846c2.382-2.448 5.597-3.733 9.61-3.785l-.015-1.214Zm-10.464 4.153c-2.632 2.701-3.935 6.099-3.885 10.061l1.213-.015c-.046-3.662 1.148-6.743 3.541-9.2l-.869-.846ZM34.67 37.954c.042 3.096 1.238 5.927 3.514 8.401l.893-.821c-2.096-2.279-3.157-4.83-3.194-7.596l-1.213.016Zm3.532 8.42a.572.572 0 0 1-.049-.056l.017.021c.024.03.09.105.202.16l.542-1.085a.585.585 0 0 1 .188.148l.011.014-.015-.019a.58.58 0 0 0-.038-.041l-.858.858Zm0 0c1.19 1.258 2.767 2.487 4.67 3.661l.638-1.033c-1.843-1.136-3.33-2.301-4.426-3.462l-.882.833Zm4.675 3.663 5.978 3.626.629-1.037L43.505 49l-.63 1.037Zm5.978 3.626c3.342 2.025 5.486 3.516 6.44 4.44l.845-.87c-1.067-1.035-3.327-2.591-6.657-4.608l-.628 1.038Zm6.432 4.433c1.326 1.331 1.964 2.836 1.99 4.63l1.212-.017c-.029-2.12-.802-3.922-2.342-5.469l-.86.856Zm1.99 4.629c.025 2.037-.566 3.49-1.75 4.547l.808.904c1.5-1.338 2.183-3.16 2.154-5.466l-1.213.015Zm-1.75 4.546c-1.276 1.138-2.75 1.703-4.55 1.725l.015 1.214c2.08-.026 3.839-.692 5.343-2.033l-.807-.906Zm-4.542 1.725H50.8v1.214H50.984v-1.214Zm-.184 0c-3.492 0-6.351-1.328-8.782-4.108l-.913.798c2.648 3.03 5.834 4.524 9.695 4.524v-1.214Zm-8.782-4.108c-1.448-1.654-2.767-3.963-3.91-6.883l-1.129.442c1.175 3.004 2.557 5.449 4.126 7.24l.913-.8Zm-3.909-6.882a1.785 1.785 0 0 0-1.66-1.135v1.214c.233 0 .446.145.53.361l1.13-.44Zm-1.66-1.135H36.433v1.214H36.45V56.87Zm-.023 0-1.593.022.017 1.213 1.592-.021-.016-1.214Zm-1.59.022a1.777 1.777 0 0 0-1.338.63l.925.785a.563.563 0 0 1 .424-.202l-.01-1.213Zm-1.338.63c-.334.393-.48.911-.402 1.422l1.2-.182a.567.567 0 0 1 .127-.454l-.925-.786Zm-.402 1.422 2.262 14.759 1.2-.184-2.263-14.758-1.2.184Zm2.262 14.758a1.78 1.78 0 0 0 1.76 1.51V74a.568.568 0 0 1-.56-.48l-1.2.183Zm1.76 1.51H37.134V74H37.118v1.214Zm.024 0 1.526-.02-.017-1.214-1.526.021.017 1.214Zm1.524-.02a1.779 1.779 0 0 0 1.74-1.525l-1.2-.173a.566.566 0 0 1-.552.484l.012 1.213Zm1.74-1.523c.053-.36.162-.683.336-1l-1.064-.584a4.137 4.137 0 0 0-.472 1.407l1.2.177Zm.34-1.007a.498.498 0 0 1-.104.134.359.359 0 0 1-.067.049c-.025.013-.033.013-.011.007.042-.01.126-.025.252-.029l-.035-1.212c-.185.005-.37.026-.533.07a1.18 1.18 0 0 0-.265.105.768.768 0 0 0-.308.305l1.07.572Zm-.026.157c.093.012.737.138 3.57 1.081l.383-1.151c-2.802-.933-3.564-1.103-3.797-1.134l-.156 1.204Zm3.57 1.08c2.432.812 4.817 1.226 7.089 1.226v-1.213c-2.125 0-4.38-.388-6.706-1.163l-.384 1.15Zm7.089 1.226H51.618v-1.213H51.378v1.213Zm.246 0c4.673-.062 8.611-1.485 11.66-4.263l-.817-.897c-2.797 2.549-6.435 3.888-10.859 3.947l.016 1.213Zm11.66-4.264c3.089-2.817 4.637-6.367 4.583-10.514l-1.212.016c.048 3.796-1.353 7.015-4.188 9.602l.818.897Zm4.583-10.514c-.04-3.093-.976-5.828-2.795-8.11l-.948.756c1.638 2.056 2.493 4.527 2.53 7.37l1.213-.016Zm-2.8-8.116c-1.766-2.161-4.605-4.376-8.633-6.784l-.623 1.041C59.795 48.871 62.493 51 64.13 53l.94-.768Zm-8.633-6.784-6.147-3.685-.623 1.04 6.146 3.686.624-1.04Zm-6.148-3.686c-2.158-1.288-3.716-2.504-4.665-3.604l-.919.794c1.072 1.24 2.754 2.534 4.963 3.852l.621-1.042Zm-4.669-3.608c-.822-.934-1.232-2.034-1.248-3.413l-1.213.015c.02 1.643.52 3.029 1.55 4.2l.911-.802Zm-1.248-3.413c-.02-1.468.45-2.511 1.402-3.286l-.766-.941c-1.28 1.041-1.873 2.46-1.85 4.243l1.214-.016Zm1.402-3.286c1.084-.882 2.331-1.325 3.844-1.345l-.015-1.213c-1.769.023-3.285.55-4.595 1.617l.766.941Zm3.837-1.345h.117v-1.213h-.117v1.213Zm.117 0c1.995 0 4.112.731 6.304 2.237l.687-1c-2.338-1.606-4.69-2.45-6.99-2.45v1.213Zm6.304 2.237c2.102 1.443 3.763 4.175 4.852 8.247l1.172-.314c-1.125-4.204-2.896-7.257-5.337-8.933l-.687 1Zm4.852 8.249c.21.774.912 1.32 1.72 1.32v-1.214a.571.571 0 0 1-.548-.423l-1.172.317Zm1.72 1.32h.015v-1.214h-.015v1.213Zm.023 0 1.662-.022-.015-1.213-1.663.021.015 1.213Zm1.66-.022c.507-.004.986-.23 1.315-.604l-.911-.8a.564.564 0 0 1-.415.191l.01 1.213Zm1.315-.604c.335-.38.49-.883.43-1.383l-1.204.144a.564.564 0 0 1-.136.438l.91.801Zm.43-1.382-1.718-14.767-1.206.14 1.72 14.768 1.205-.14Zm-1.718-14.767a1.779 1.779 0 0 0-1.77-1.574v1.214c.29 0 .53.214.564.5l1.206-.14Zm-1.77-1.574h-.006v1.214h.006v-1.214Z" fill="#fff"/></g></g><defs><linearGradient id="b" x1="29" y1="3" x2="81" y2="93" gradientUnits="userSpaceOnUse"><stop stop-color="#517A36"/><stop offset=".401" stop-color="#517A36"/><stop offset="1" stop-color="#7FAA64"/></linearGradient><clipPath id="a"><path fill="#fff" d="M0 0h100v100H0z"/></clipPath></defs></svg>