<svg width="100" height="100" viewBox="0 0 100 100" fill="none" xmlns="http://www.w3.org/2000/svg">
<g clip-path="url(#clip0_923_87)">
<path d="M50 100C77.6142 100 100 77.6142 100 50C100 22.3858 77.6142 0 50 0C22.3858 0 0 22.3858 0 50C0 77.6142 22.3858 100 50 100Z" fill="#2B0F2E"/>
<path d="M19.2717 36.6256C22.3685 26.0342 32.8382 18.2123 43.8634 18.1362C51.0994 18.1134 58.6549 17.284 65.5561 20.008C74.4432 23.6374 80.7053 32.3647 81.8466 41.8377C79.64 41.8225 77.4259 41.8149 75.2193 41.8453C74.2606 35.3169 69.954 29.4505 64.0191 26.5668C57.9701 23.607 51.0537 25.0374 44.5786 24.695C36.9774 24.345 29.9088 29.207 26.5685 35.8724C24.5902 39.7605 24.5446 44.204 24.6663 48.4574C24.8185 52.9846 24.1261 57.6869 25.6783 62.0467C28.4555 70.1121 36.848 75.8567 45.408 75.3165C51.4874 74.9589 58.0006 76.3361 63.6996 73.5893C67.6942 71.9001 70.7529 68.5751 72.9899 64.9457C73.8954 62.7391 74.7704 60.5097 75.2269 58.1662C77.3726 58.189 79.5183 58.1814 81.664 58.1282C80.8651 71.0251 69.0105 81.7688 56.2049 81.9133C48.7178 81.822 40.8503 82.834 33.7893 79.7144C28.0066 76.9828 22.962 72.3414 20.4739 66.3761C18.1151 61.8032 18.001 56.5303 18.001 51.5009C18.0619 46.5399 17.6738 41.4116 19.2717 36.6256Z" fill="#ED7458"/>
<path d="M46.0852 40.2093C49.532 37.1734 55.6267 39.4864 56.1821 44.0441C56.8821 46.2126 55.6571 48.229 54.5234 49.9866C54.1201 50.192 53.3212 50.6105 52.9179 50.816C53.8158 54.2704 54.4549 57.7856 55.3375 61.24C51.7538 61.2172 48.17 61.2172 44.5939 61.24C45.4765 57.7172 46.2678 54.1715 47.0211 50.6181C46.595 50.4203 45.7504 50.0246 45.3243 49.8268C42.9504 47.0192 43.0112 42.4691 46.0852 40.2093Z" fill="#ED7458"/>
</g>
<defs>
<clipPath id="clip0_923_87">
<rect width="100" height="100" fill="white"/>
</clipPath>
</defs>
</svg>
