<svg xmlns="http://www.w3.org/2000/svg" fill="none" viewBox="0 0 800 800">
  <path fill="#FFCE45" d="M400 800c220.914 0 400-179.086 400-400S620.914 0 400 0 0 179.086 0 400s179.086 400 400 400Z"/>
  <path fill="#FEFEFD" d="M434.066 441.058h147.64c3.148 0 4.634 0 4.861-4.136a283.559 283.559 0 0 0 0-45.261c0-2.926-1.451-4.136-4.616-4.136H288.122c-3.637 0-4.616 1.21-4.616 4.626v43.317c0 5.59 0 5.59 5.823 5.59h144.737Zm136.013-104.156a4.742 4.742 0 0 0 0-3.399c-2.465-5.38-5.385-10.514-8.777-15.333a124.106 124.106 0 0 0-17.974-22.639c-3.235-4.118-6.977-7.815-11.173-10.952a174.422 174.422 0 0 0-72.859-36.991 180.704 180.704 0 0 0-41.281-4.38h-130.4c-3.637 0-4.126 1.454-4.126 4.626v86.387c0 3.645 0 4.626 4.616 4.626h280.226s2.43-.491 2.919-1.945h-1.188.017Zm0 154.779a56.497 56.497 0 0 0-12.414 0H288.367c-3.637 0-4.861 0-4.861 4.871v84.46c0 3.89 0 4.872 4.861 4.872H412.7c5.945.455 11.89.035 17.712-1.209a184.755 184.755 0 0 0 52.716-11.688 96.397 96.397 0 0 0 17.712-8.271h1.696a157.937 157.937 0 0 0 67.753-68.356s1.696-3.68-.21-4.644v-.035ZM234.707 629.673V495.098c0-3.172 0-3.645-3.882-3.645h-52.699c-2.92 0-4.126 0-4.126-3.89V441.32h56.335c3.148 0 4.372 0 4.372-4.135v-45.752c0-2.926 0-3.645-3.882-3.645h-52.699c-2.92 0-4.126 0-4.126-3.89v-42.825c0-2.681 0-3.4 3.882-3.4h52.209c3.636 0 4.616 0 4.616-4.626V201.871c0-3.89 0-4.871 4.86-4.871h182.12a276.895 276.895 0 0 1 39.34 4.381c26.769 4.959 52.489 14.544 76.006 28.229a214.227 214.227 0 0 1 42.732 33.101 234.414 234.414 0 0 1 25.983 32.364c7.64 11.688 13.987 24.182 18.971 37.236.611 3.4 3.864 5.695 7.256 5.117h43.466c5.578 0 5.578 0 5.823 5.362v39.917c0 3.89-1.452 4.871-5.351 4.871h-33.518c-3.392 0-4.371 0-4.126 4.381a249.116 249.116 0 0 1 0 44.525c0 4.136 0 4.626 4.633 4.626h38.344c1.696 2.191 0 4.381 0 6.589a49.218 49.218 0 0 1 0 8.498v29.456c0 4.136-1.206 5.362-4.86 5.362h-45.898c-3.199-.613-6.312 1.437-7.046 4.626a194.615 194.615 0 0 1-51.003 74.472c-8.252 7.447-16.925 14.456-25.982 20.922-9.721 5.608-19.18 11.443-29.147 16.069-18.341 8.271-37.574 14.368-57.314 18.241-18.744 3.364-37.749 4.889-56.825 4.626H234.637v-.245l.07-.053Z"/>
</svg>
