<svg width="800" height="800" fill="none" xmlns="http://www.w3.org/2000/svg">
  <path d="M400 800c220.914 0 400-179.086 400-400S620.914 0 400 0 0 179.086 0 400s179.086 400 400 400Z" fill="#000"/>
  <path fill-rule="evenodd" clip-rule="evenodd" d="M399.998 156.006a10.666 10.666 0 0 1 8.649 4.319L520.9 311.911a10.679 10.679 0 0 1 1.842 4.041l54.337 245.259a10.666 10.666 0 0 1-4.799 11.376L405.69 675.742a10.657 10.657 0 0 1-5.691 1.597 10.652 10.652 0 0 1-5.693-1.597l-166.59-103.155a10.667 10.667 0 0 1-4.799-11.376l54.315-245.258c.324-1.462.952-2.84 1.843-4.043L391.35 160.324a10.666 10.666 0 0 1 8.648-4.318Zm-10.743 42.99L299.48 320.204l21.974 68.19 67.801-118.24v-71.158Zm10.743 95.309-69.696 121.546 44.148 137h51.09l44.144-137.018-69.686-121.528Zm84.037 146.554-36.082 111.992h100.299l-64.217-111.992Zm45.142 133.325H441.08l-21.956 68.147 110.053-68.147Zm-129.18 57.947 18.669-57.947h-37.342l18.673 57.947Zm-47.961-79.28-36.084-111.976-64.208 111.976h100.292Zm-93.168-55.31 48.237-84.122-17.548-54.454-30.689 138.576Zm11.951 76.643h88.091l21.96 68.146-110.051-68.146Zm270.299-76.661-48.237-84.122 17.539-54.438 30.698 138.56Zm-40.623-177.32-21.964 68.172-67.789-118.221v-71.153l89.753 121.202Z" fill="#fff"/>
</svg>
