<svg xmlns="http://www.w3.org/2000/svg" fill="none" viewBox="0 0 800 800">
  <path fill="#B850DD" d="M298.23 43.35c64.99-60.705 166.887-57.231 227.594 7.76l230.827 247.12c60.703 64.99 57.23 166.887-7.76 227.594l-247.12 230.827c-64.991 60.703-166.887 57.23-227.594-7.76L43.351 501.771c-60.706-64.991-57.232-166.887 7.759-227.594L298.23 43.351Z"/>
  <path fill="#fff" d="M339.546 221.02c28.544-44.231 93.234-44.231 121.774 0l131.967 204.511c31.113 48.217-3.504 111.751-60.887 111.751H268.47c-57.386 0-92.001-63.534-60.887-111.751L339.546 221.02Z"/>
  <path fill="#fff" d="M339.546 221.02c28.544-44.231 93.234-44.231 121.774 0l131.967 204.511c31.113 48.217-3.504 111.751-60.887 111.751H268.47c-57.386 0-92.001-63.534-60.887-111.751L339.546 221.02Z"/>
  <path fill="#fff" d="M339.546 221.02c28.544-44.231 93.234-44.231 121.774 0l131.967 204.511c31.113 48.217-3.504 111.751-60.887 111.751H268.47c-57.386 0-92.001-63.534-60.887-111.751L339.546 221.02Z"/>
  <path fill="#B850DD" fill-rule="evenodd" d="M274.99 162.093h142.896c73.91 0 130.851 56.939 130.851 128.66 0 71.722-56.941 128.659-130.851 128.659h-67.343v125.924H274.99V162.093Zm75.575 186.692h67.344c32.3 0 55.843-25.186 55.843-58.035 0-33.397-23.543-58.034-55.843-58.034h-67.344v116.069Z" clip-rule="evenodd"/>
</svg>
