<svg xmlns="http://www.w3.org/2000/svg" width="100" height="100" fill="none" viewBox="0 0 100 100">
  <path fill="#000" d="M50 100c27.614 0 50-22.386 50-50S77.614 0 50 0 0 22.386 0 50s22.386 50 50 50z"/>
  <path fill="#fff" d="M49.359 92.814c23.93 0 43.329-19.398 43.329-43.327S73.288 6.16 49.358 6.16 6.03 25.558 6.03 49.487s19.4 43.327 43.33 43.327z"/>
  <path fill="#000" d="M46.25.172c3.073-.303 6.167-.18 9.238.167a49.665 49.665 0 0121.057 7.32 50.312 50.312 0 0112.852 11.62A49.567 49.567 0 0199.82 46.166c.357 3.557.146 7.142-.313 10.678a49.744 49.744 0 01-5.037 15.972 50.34 50.34 0 01-21.324 21.48 49.897 49.897 0 01-20.14 5.592c-3.296.265-6.61.035-9.88-.387a49.696 49.696 0 01-19.42-7A50.304 50.304 0 019.52 79.29 49.566 49.566 0 01.99 59.821C.138 55.342-.25 50.744.17 46.193a49.504 49.504 0 013-13.681 50.08 50.08 0 0116.304-22.07A49.597 49.597 0 0146.249.172zm0 8.131a41.695 41.695 0 00-25.258 11.525A41.79 41.79 0 009.246 40.371a41.928 41.928 0 00-.458 16.869 41.692 41.692 0 007.956 18.002 41.911 41.911 0 0015.94 12.683c6.623 3.054 14.067 4.234 21.319 3.526a41.448 41.448 0 0018.073-6.191 42.03 42.03 0 0012.058-11.47 41.576 41.576 0 007.058-17.624c1.052-7.06.324-14.403-2.248-21.072a41.907 41.907 0 00-10.276-15.43 41.898 41.898 0 00-16.52-9.689 41.843 41.843 0 00-15.892-1.672h-.007z"/>
  <path fill="#000" d="M48.17 13.994a35.825 35.825 0 0120.872 5.5 36.128 36.128 0 0112.715 13.773 35.736 35.736 0 013.974 19.565 35.755 35.755 0 01-7.52 19.21A36.101 36.101 0 0162.665 83.52a35.854 35.854 0 01-19.025 1.788 35.882 35.882 0 01-18.628-9.484 35.975 35.975 0 01-9.795-16.49 35.902 35.902 0 01.64-20.967A36.048 36.048 0 0129.1 20.607a35.77 35.77 0 0119.069-6.613zm-8.615 16.047v25.183h-4.778v4.843h14.94v-4.844H45.31c0-1.36 0-2.747.407-4.06a6.296 6.296 0 012.333-3.415c1.586-1.175 3.678-1.43 5.59-1.166a6.122 6.122 0 014.422 2.687c1.047 1.58 1.287 3.54 1.242 5.395v15.097c1.909.023 3.819 0 5.73.01V53.497c0-2.033-.276-4.102-1.102-5.974a10.107 10.107 0 00-6.085-5.5 12.433 12.433 0 00-7.423.025c-2.187.685-3.984 2.308-5.11 4.279V30.043l-5.76-.002zm-4.778 34.883v4.844h14.94v-4.844h-14.94z"/>
</svg>
