<svg width="100" height="100" viewBox="0 0 100 100" fill="none" xmlns="http://www.w3.org/2000/svg">
<g clip-path="url(#clip0_921_285)">
<path d="M50 100C77.6142 100 100 77.6142 100 50C100 22.3858 77.6142 0 50 0C22.3858 0 0 22.3858 0 50C0 77.6142 22.3858 100 50 100Z" fill="black"/>
<path d="M71.0573 29H76.5934L54.1454 54.6332C53.5767 55.2778 53.5387 56.2637 54.1075 56.9462L67.0379 72H61.2742L49.3297 58.0459L48.723 57.2875C48.1543 56.6429 48.1922 55.619 48.761 54.9744L71.0573 29Z" fill="white"/>
<path d="M58.5822 56.9462C58.203 56.529 58.0892 55.9223 58.203 55.3915C58.3167 55.0881 58.5063 54.7848 58.7338 54.5573L60.2127 52.9268L76.7074 72H71.4746C71.4746 72 61.8053 60.7001 58.5822 56.9462Z" fill="white"/>
<path d="M29.7637 72H24L41.6702 51.5617C42.239 50.9171 42.239 49.9312 41.6702 49.2866L24.1517 29H29.6878L47.3201 49.4383C47.7751 50.045 47.851 50.9171 47.358 51.4859C42.7319 56.8325 29.7637 72 29.7637 72Z" fill="white"/>
<path d="M39.3951 29H34.0864L50.4295 47.9215C50.4295 47.9215 50.4674 47.8836 52.2875 45.7222C52.7804 45.1534 52.8942 44.433 52.3254 43.8642C48.9127 40.3757 39.3951 29 39.3951 29Z" fill="white"/>
<path d="M55.321 42.1958L66.6587 29H61.2743L55.3589 35.9012L53.6526 37.9109C53.0838 38.5556 53.0459 39.5414 53.6146 40.224C54.0318 40.7169 55.321 42.1958 55.321 42.1958Z" fill="white"/>
<path d="M45.462 58.8042L34.1243 72H39.4708L45.3862 65.0987L47.0925 63.089C47.6613 62.4444 47.6992 61.4585 47.1304 60.776C46.7133 60.283 45.462 58.8042 45.462 58.8042Z" fill="white"/>
</g>
<defs>
<clipPath id="clip0_921_285">
<rect width="100" height="100" fill="white"/>
</clipPath>
</defs>
</svg>
