<svg width="100" height="100" viewBox="0 0 100 100" fill="none" xmlns="http://www.w3.org/2000/svg">
<g clip-path="url(#clip0_921_230)">
<path d="M50 100C77.6142 100 100 77.6142 100 50C100 22.3858 77.6142 0 50 0C22.3858 0 0 22.3858 0 50C0 77.6142 22.3858 100 50 100Z" fill="black"/>
<g clip-path="url(#clip1_921_230)">
<path d="M49.5 17L21 33.5V66.5L49.5 83L78 66.5V33.5L49.5 17ZM50.0827 70.4503L28.2073 57.9388L28.296 51.8545L50.07 64.3533L60.5707 58.2818L53.528 54.2044L50.8933 55.7286L45.9533 52.8834L48.6007 51.3464L45.1427 49.3395L43.0527 50.5589L38.1 47.7136L40.2027 46.4942L29.0433 40.0289L50.07 27.8603L69.906 39.2032L64.586 42.3025L50.07 33.9573L39.5693 40.0289L45.4467 43.433L48.4487 41.6801L53.4013 44.5254L50.374 46.2783L53.832 48.2852L56.2893 46.8499L61.242 49.6952L58.7593 51.1432L71.0713 58.2691L50.0827 70.4503Z" fill="white"/>
</g>
</g>
<defs>
<clipPath id="clip0_921_230">
<rect width="100" height="100" fill="white"/>
</clipPath>
<clipPath id="clip1_921_230">
<rect width="57" height="66" fill="white" transform="translate(21 17)"/>
</clipPath>
</defs>
</svg>
