<svg width="24" height="24" viewBox="0 0 24 24" fill="none" xmlns="http://www.w3.org/2000/svg">
<path d="M12 24C18.6274 24 24 18.6274 24 12C24 5.37258 18.6274 0 12 0C5.37258 0 0 5.37258 0 12C0 18.6274 5.37258 24 12 24Z" fill="#31CB9E"/>
<path d="M11.4682 12.4887L17.0532 15.6878C17.0981 15.7148 17.1493 15.7293 17.2017 15.7299C17.2541 15.7306 17.3057 15.7172 17.3511 15.6913C17.3966 15.6653 17.4344 15.6278 17.4606 15.5824C17.4867 15.537 17.5003 15.4855 17.5 15.4331V9.5398C17.5007 9.48735 17.4872 9.43568 17.4611 9.3902C17.4349 9.34473 17.397 9.30712 17.3513 9.28131C17.3057 9.25551 17.2539 9.24245 17.2014 9.24352C17.149 9.24458 17.0978 9.25972 17.0532 9.28736L11.4682 12.4887ZM16.9348 7.87099L13.1169 5.06283C13.0773 5.03248 13.0309 5.01232 12.9818 5.00413C12.9326 4.99594 12.8822 4.99997 12.835 5.01586C12.7877 5.03175 12.7451 5.05902 12.7109 5.09526C12.6767 5.1315 12.6519 5.17561 12.6388 5.22368L11.2448 11.4789L16.9013 8.3513C16.9443 8.32916 16.9809 8.2963 17.0076 8.25588C17.0342 8.21547 17.05 8.16887 17.0533 8.12059C17.0567 8.0723 17.0476 8.02397 17.0268 7.98024C17.006 7.93652 16.9743 7.89889 16.9348 7.87099V7.87099ZM13.1124 19.9123L16.9348 17.1042C16.9749 17.076 17.007 17.038 17.0282 16.9938C17.0494 16.9497 17.0589 16.9008 17.0557 16.8519C17.0526 16.803 17.0369 16.7558 17.0103 16.7147C16.9836 16.6735 16.9469 16.64 16.9035 16.6172L11.2448 13.4895L12.6388 19.7448C12.6503 19.7934 12.6738 19.8384 12.707 19.8757C12.7403 19.913 12.7823 19.9414 12.8292 19.9585C12.8762 19.9755 12.9266 19.9806 12.9761 19.9734C13.0255 19.9661 13.0723 19.9467 13.1124 19.9168" fill="white"/>
<path d="M10.016 12.3725L11.4681 5.58112C11.4792 5.52484 11.4733 5.46653 11.451 5.41366C11.4288 5.36079 11.3913 5.31575 11.3433 5.28432C11.2953 5.25289 11.239 5.2365 11.1817 5.23724C11.1243 5.23797 11.0685 5.25581 11.0213 5.28846L7.30168 8.1413C7.20749 8.21356 7.13127 8.3066 7.07896 8.41317C7.02664 8.51974 6.99965 8.63695 7.00009 8.75566V15.9939C6.99826 16.1141 7.02458 16.2331 7.07695 16.3413C7.12932 16.4495 7.20628 16.544 7.30168 16.6172L11.0034 19.4611C11.0506 19.4937 11.1064 19.5116 11.1638 19.5123C11.2212 19.513 11.2774 19.4966 11.3254 19.4652C11.3734 19.4338 11.4109 19.3888 11.4331 19.3359C11.4554 19.283 11.4613 19.2247 11.4503 19.1684L10.016 12.3725Z" fill="white"/>
</svg>
