<svg width="24" height="24" viewBox="0 0 24 24" fill="none" xmlns="http://www.w3.org/2000/svg">
<path d="M12 24C18.6274 24 24 18.6274 24 12C24 5.37258 18.6274 0 12 0C5.37258 0 0 5.37258 0 12C0 18.6274 5.37258 24 12 24Z" fill="#1A4199"/>
<path d="M9.11399 6.0784L14.9976 9.99814V13.9963L6 7.99907L8.88359 6.0784C8.91898 6.05635 8.95857 6.0448 8.99879 6.0448C9.03901 6.0448 9.0786 6.05635 9.11399 6.0784Z" fill="white" fill-opacity="0.6"/>
<path d="M14.9976 6L11.9976 7.99907L14.9976 9.99814V6Z" fill="white" fill-opacity="0.9"/>
<path d="M14.9976 6L17.8836 7.92067C17.9183 7.94505 17.9472 7.9791 17.9675 8.01971C17.9878 8.06031 17.999 8.10617 18 8.15306V15.9925L14.9976 13.9963V6Z" fill="white"/>
<path d="M17.9976 15.9953L15.114 17.916C15.0771 17.9406 15.0353 17.9535 14.9927 17.9535C14.9502 17.9535 14.9083 17.9406 14.8715 17.916L8.9903 13.9963V9.99253L17.9976 15.9953Z" fill="white" fill-opacity="0.9"/>
<path d="M6 7.99907V15.8385C5.99976 15.8869 6.01035 15.9344 6.03075 15.9766C6.05115 16.0188 6.08066 16.0542 6.11641 16.0793L9.00001 18V9.99254L6 7.99907Z" fill="white" fill-opacity="0.5"/>
<path d="M9 17.9944L11.9976 15.9953L9 13.9963V17.9944Z" fill="white" fill-opacity="0.6"/>
</svg>
