<svg xmlns="http://www.w3.org/2000/svg" width="100" height="100" fill="none" viewBox="0 0 100 100">
  <path fill="#000" d="M50 100c27.614 0 50-22.386 50-50S77.614 0 50 0 0 22.386 0 50s22.386 50 50 50z"/>
  <path fill="#fff" d="M33 21.989L49.754 42 61 35.256S47.432 16.76 43.814 18.066C40.412 19.387 33 21.99 33 21.99zM61 34.505s2.595-4.5 3.886-10.505c0 0 12.949 5.137 7.978 18L61 34.505zM73 42.035L74.062 56l4.854-.659s1.264-.449 1.062-2.874c-.215-2.664-.632-8.203-.632-8.203s.215-1.332-2.743-1.766C73 41.81 73 42.035 73 42.035zM73.96 56L64 63.879l4.546 8.727s1.088 3.407 4.325-.431c3.03-3.839 4.325-4.472 4.105-6.815-.193-2.343-.854-7.879-3.017-9.36zM64 63.935L50.71 58 39.112 81.511s-.846 1.689 2.108 1.903c2.953.429 7.799 1.487 10.336-1.058C54.093 80.038 64 63.935 64 63.935zM51 57.266L49.716 42l-29.194 1.866s-1.721.209-1.503 3.301c.219 4.123.642 8.664.642 8.664s-.218 1.853 3.648 2.062c3.866.195 27.268.195 27.691-.627z"/>
</svg>
