<svg width="100" height="100" viewBox="0 0 100 100" fill="none" xmlns="http://www.w3.org/2000/svg">
<g clip-path="url(#clip0_920_114)">
<path d="M50 100C77.6142 100 100 77.6142 100 50C100 22.3858 77.6142 0 50 0C22.3858 0 0 22.3858 0 50C0 77.6142 22.3858 100 50 100Z" fill="black"/>
<path fill-rule="evenodd" clip-rule="evenodd" d="M37.1773 24.0835H44.3773C44.6523 24.0835 44.8723 24.3085 44.8723 24.5835V35.1035C44.8723 35.3835 45.0973 35.6035 45.3723 35.6035H54.6173C54.8923 35.6035 55.1173 35.3835 55.1173 35.1035V24.5835C55.1173 24.3085 55.3373 24.0835 55.6173 24.0835H62.8123C63.0873 24.0835 63.3123 24.3085 63.3123 24.5835V35.1035C63.3123 35.3835 63.5323 35.6035 63.8123 35.6035H72.6123C72.8923 35.6035 73.1123 35.8285 73.1123 36.1035V43.2835C73.1123 43.5635 72.8923 43.7835 72.6123 43.7835H63.8123C63.5323 43.7835 63.3123 44.0085 63.3123 44.2835V55.4585C63.3123 55.7335 63.5323 55.9585 63.8123 55.9585H72.6123C72.8923 55.9585 73.1123 56.1785 73.1123 56.4585V63.6385C73.1123 63.9135 72.8923 64.1385 72.6123 64.1385H63.8123C63.5323 64.1385 63.3123 64.3635 63.3123 64.6385V75.1585C63.3123 75.4335 63.0873 75.6585 62.8123 75.6585H55.6173C55.3373 75.6585 55.1173 75.4335 55.1173 75.1585V64.6385C55.1173 64.3585 54.8923 64.1385 54.6173 64.1385H45.3773C45.1023 64.1385 44.8773 64.3635 44.8773 64.6385V75.1585C44.8773 75.4335 44.6573 75.6585 44.3823 75.6585H37.1823C36.9073 75.6585 36.6823 75.4335 36.6823 75.1585V64.6385C36.6823 64.3585 36.4623 64.1385 36.1823 64.1385H27.3823C27.1023 64.1385 26.8823 63.9135 26.8823 63.6385V56.4585C26.8823 56.1785 27.1023 55.9585 27.3823 55.9585H36.1823C36.4623 55.9585 36.6823 55.7335 36.6823 55.4585V44.2835C36.6823 44.0085 36.4623 43.7835 36.1823 43.7835H27.3823C27.1023 43.7835 26.8823 43.5635 26.8823 43.2835V36.1035C26.8823 35.8285 27.1023 35.6035 27.3823 35.6035H36.1823C36.4623 35.6035 36.6823 35.3835 36.6823 35.1035V24.5835C36.6723 24.3085 36.9023 24.0835 37.1773 24.0835ZM55.1223 55.4635V44.2835C55.1223 44.0085 54.8973 43.7835 54.6223 43.7835H45.3773C45.1023 43.7835 44.8773 44.0085 44.8773 44.2835V55.4585C44.8773 55.7335 45.1023 55.9585 45.3773 55.9585H54.6223C54.8973 55.9635 55.1223 55.7335 55.1223 55.4635Z" fill="white"/>
</g>
<defs>
<clipPath id="clip0_920_114">
<rect width="100" height="100" fill="white"/>
</clipPath>
</defs>
</svg>
