<svg width="100" height="100" viewBox="0 0 100 100" fill="none" xmlns="http://www.w3.org/2000/svg">
<g clip-path="url(#clip0_922_43)">
<path d="M50 100C77.6142 100 100 77.6142 100 50C100 22.3858 77.6142 0 50 0C22.3858 0 0 22.3858 0 50C0 77.6142 22.3858 100 50 100Z" fill="black"/>
<path d="M27.1465 25.8926C40.8165 25.8804 54.4866 25.8926 68.1444 25.8926C68.1201 27.5496 68.1201 29.2188 68.1323 30.8879C56.3507 30.8879 44.5691 30.8757 32.7875 30.8879C32.8241 43.2543 32.8119 55.6329 32.7875 67.9993C44.5691 68.0115 56.3507 67.9993 68.1323 68.0115C68.1201 69.6685 68.1323 71.3376 68.1444 72.9946C54.4744 72.9946 40.8165 73.0068 27.1465 72.9946C27.183 57.2899 27.183 41.5973 27.1465 25.8926Z" fill="white"/>
<path d="M59.5427 37.3939C65.598 32.6545 76.7339 34.6526 78.5127 42.9375C76.6364 42.9862 74.7601 42.9375 72.896 43.0715C71.2878 38.259 61.1144 38.7219 62.7958 44.6066C66.8895 47.4332 72.6645 45.9103 76.5633 49.1999C80.4864 52.4042 79.7919 59.2879 75.5886 61.9683C68.8023 66.2326 57.2522 64.137 55.6074 55.1942C57.4593 55.182 59.3234 55.1577 61.1753 55.1211C62.7349 60.5672 74.0169 60.9449 73.2006 54.3292C70.2278 50.3451 64.2091 52.2092 60.2616 49.7116C55.7536 47.3723 55.6927 40.3911 59.5427 37.3939Z" fill="white"/>
</g>
<defs>
<clipPath id="clip0_922_43">
<rect width="100" height="100" fill="white"/>
</clipPath>
</defs>
</svg>
