<svg width="100" height="100" viewBox="0 0 100 100" fill="none" xmlns="http://www.w3.org/2000/svg">
<g clip-path="url(#clip0_922_8)">
<path d="M50 100C77.6142 100 100 77.6142 100 50C100 22.3858 77.6142 0 50 0C22.3858 0 0 22.3858 0 50C0 77.6142 22.3858 100 50 100Z" fill="#FF4A4A"/>
<g clip-path="url(#clip1_922_8)">
<path d="M62.1851 61.0002H58.6698C58.0188 61.0002 57.4655 60.4735 57.4655 59.7823V50.4343L51.3137 54.3184C50.7929 54.6475 50.142 54.6475 49.6212 54.3184L43.502 50.4343V59.7823C43.502 60.4406 42.9812 61.0002 42.2977 61.0002H38.8149C38.1639 61.0002 37.6106 60.4735 37.6106 59.7823V41.7447C37.6106 40.856 38.3267 40.1318 39.2055 40.1318C39.531 40.1318 39.8239 40.2306 40.0843 40.4281L49.7839 47.1757C50.1745 47.472 50.7278 47.472 51.1184 47.1757L60.818 40.4281C61.5341 39.9343 62.5431 40.1318 63.0314 40.856C63.2267 41.1193 63.2918 41.4485 63.3243 41.7447V59.7823C63.3569 60.4406 62.8361 61.0002 62.1851 61.0002Z" fill="white"/>
<path d="M32.3703 60.9671H10.5624C9.68361 60.9671 8.96753 60.2429 8.96753 59.3542V41.2179C9.00008 40.5266 9.52086 40 10.2044 40H13.7197C14.3707 40 14.924 40.5266 14.924 41.2179V55.0094H28.1389V41.2179C28.1389 40.5596 28.6597 40 29.3432 40H32.7609C33.4118 40 33.9652 40.5266 33.9652 41.2179V59.3542C33.9652 60.2429 33.2491 60.9671 32.3703 60.9671Z" fill="white"/>
<path d="M68.6298 40H90.4377C91.3165 40 92.0326 40.7241 92.0326 41.6129V59.7492C92.0326 60.4075 91.5118 60.9671 90.8608 60.9671H87.3455C86.6945 60.9671 86.1412 60.4404 86.1412 59.7492V46.7476C86.1412 46.3197 85.7831 45.9577 85.36 45.9577H73.74C73.3169 45.9577 72.9588 46.3197 72.9588 46.7476V59.7492C72.9588 60.4075 72.438 60.9671 71.7545 60.9671H68.2392C67.5882 60.9671 67.0349 60.4404 67.0349 59.7492V41.6129C67.0349 40.7241 67.751 40 68.6298 40Z" fill="white"/>
<path d="M77.7761 49.7759H81.2588C81.9098 49.7759 82.4631 50.3025 82.4631 50.9937V54.5815C82.4631 55.2398 81.9424 55.7994 81.2588 55.7994H77.7761C77.1251 55.7994 76.5718 55.2727 76.5718 54.5815V50.9608C76.5718 50.3025 77.1251 49.7759 77.7761 49.7759Z" fill="white"/>
</g>
</g>
<defs>
<clipPath id="clip0_922_8">
<rect width="100" height="100" fill="white"/>
</clipPath>
<clipPath id="clip1_922_8">
<rect width="83" height="21" fill="white" transform="translate(9 40)"/>
</clipPath>
</defs>
</svg>
