<svg xmlns="http://www.w3.org/2000/svg" width="100" height="100" fill="none" viewBox="0 0 100 100">
  <path fill="#fff" d="M50 100c27.614 0 50-22.386 50-50S77.614 0 50 0 0 22.386 0 50s22.386 50 50 50z"/>
  <path fill="#B3D234" fill-rule="evenodd" d="M35.776 25.668c1.356-1.526 2.543-2.883 3.73-3.9-20.004-.678-14.07 13.902-20.683 28.65-7.459 16.953.848 23.565 13.393 25.43-1.695-2.035-3.22-4.408-4.238-6.95-7.968-10.173-4.747-28.82 7.798-43.23z" clip-rule="evenodd"/>
  <path fill="#0095D9" fill-rule="evenodd" d="M83.756 43.803C81.89 49.06 78.5 54.993 73.754 60.756c-3.73 4.577-7.968 8.137-12.207 10.68-4.916 3.221-11.188 5.086-18.139 5.086-3.9 0-7.629-.17-11.189-.848 2.035 2.374 4.578 4.408 7.46 5.934 17.97 8.815 19.156-7.46 38.313-15.766 10.68-4.577 10.85-13.562 5.764-22.039z" clip-rule="evenodd"/>
  <path fill="#EEE809" fill-rule="evenodd" d="M61.546 26.852c2.712.508 5.255 1.356 7.46 2.712 6.102 3.39 11.527 8.816 14.918 14.41 3.22-9.154 1.695-16.444-5.425-17.8-7.799-1.356-13.902-1.865-19.835-6.103-7.29-5.086-13.562-3.39-18.987 1.695h1.186c7.63.509 14.919 2.034 20.683 5.086z" clip-rule="evenodd"/>
  <path fill="#51B849" fill-rule="evenodd" d="M35.775 25.663c-12.545 14.24-15.766 33.058-7.798 43.23-3.56-8.646-3.391-19.326 1.695-27.803 6.78-11.358 20.513-16.274 31.701-14.24-5.764-3.052-13.053-4.577-20.682-5.086h-1.187c-1.017 1.187-2.373 2.373-3.73 3.9z" clip-rule="evenodd"/>
  <path fill="#00845D" fill-rule="evenodd" d="M69.005 29.563c-2.204-1.357-4.747-2.204-7.46-2.713C69.176 30.92 74.26 37.7 74.26 48.72c0 9.493-4.916 17.8-12.714 22.885 4.238-2.543 8.476-6.103 12.206-10.68 4.747-5.764 8.307-11.697 10.002-16.953-3.221-5.764-8.815-11.019-14.749-14.41z" clip-rule="evenodd"/>
  <path fill="#005121" fill-rule="evenodd" d="M60.187 66.35c-8.646 5.594-20.174 3.052-25.769-5.594-5.594-8.646-2.882-19.835 5.595-25.769 9.324-6.78 21.36-4.068 25.768 5.595 4.238 9.324 3.051 20.174-5.594 25.768zm1.356-39.5c-11.189-2.034-24.92 2.882-31.702 14.24-5.086 8.477-5.425 19.326-1.695 27.803 1.017 2.543 2.543 4.916 4.238 6.95 3.56.51 7.29.848 11.189.848 6.95 0 13.053-1.865 18.14-5.086C69.51 66.52 74.256 58.213 74.426 48.72c-.17-11.02-5.256-17.8-12.884-21.869z" clip-rule="evenodd"/>
</svg>
