<svg width="24" height="24" viewBox="0 0 24 24" fill="none" xmlns="http://www.w3.org/2000/svg">
<path d="M12 24C18.6274 24 24 18.6274 24 12C24 5.37258 18.6274 0 12 0C5.37258 0 0 5.37258 0 12C0 18.6274 5.37258 24 12 24Z" fill="#50AF95"/>
<path fill-rule="evenodd" clip-rule="evenodd" d="M13.2208 12.8304C13.1526 12.8363 12.8003 12.8604 12.0145 12.8604C11.3895 12.8604 10.9457 12.8389 10.79 12.8304C8.37454 12.7083 6.57162 12.2249 6.57162 11.6462C6.57162 11.0674 8.37454 10.5847 10.79 10.4606V12.349C10.948 12.3621 11.4003 12.3928 12.0253 12.3928C12.7753 12.3928 13.1509 12.3568 13.2185 12.3496V10.4619C15.6289 10.5854 17.4278 11.0687 17.4278 11.6462C17.4278 12.2236 15.6294 12.7069 13.2185 12.8297L13.2208 12.8304ZM13.2208 10.2666V8.57683H16.5846V6H7.4262V8.57683H10.7894V10.266C8.05578 10.4103 6 11.0328 6 11.7788C6 12.5247 8.05578 13.1465 10.7894 13.2915V18.7065H13.2202V13.2896C15.9476 13.1452 18 12.5234 18 11.7781C18 11.0328 15.9493 10.411 13.2202 10.266L13.2208 10.2666Z" fill="white"/>
</svg>
