<svg width="800" height="800" viewBox="0 0 800 800" fill="none" xmlns="http://www.w3.org/2000/svg">
<path d="M400 800C620.914 800 800 620.914 800 400C800 179.086 620.914 0 400 0C179.086 0 0 179.086 0 400C0 620.914 179.086 800 400 800Z" fill="black"/>
<path d="M571.598 252.346L514.828 281.349L240.692 421.363C239.765 414.273 239.298 407.131 239.295 399.98C239.333 371.451 246.802 343.427 260.964 318.684C275.126 293.94 295.489 273.336 320.036 258.912C344.583 244.488 372.462 236.744 400.912 236.449C429.361 236.153 457.394 243.316 482.234 257.226L514.728 240.625L519.575 238.145C489.808 216.48 454.648 203.49 417.979 200.611C381.31 197.731 344.561 205.074 311.794 221.827C279.027 238.581 251.517 264.093 232.305 295.543C213.093 326.994 202.927 363.159 202.931 400.04C202.931 405.134 203.124 410.208 203.51 415.262C204.05 422.419 202.467 429.576 198.96 435.833C195.453 442.09 190.179 447.167 183.802 450.425L166.667 459.186V500.05L217.114 474.268L233.451 465.907L249.548 457.686L538.545 310.032L571.019 293.45L638.142 259.147V218.303L571.598 252.346Z" fill="white"/>
<path d="M638.142 300.033L265.965 490.052L233.491 506.673L166.667 540.817V581.641L233.032 547.737L289.802 518.734L564.217 378.52C565.145 385.657 565.611 392.846 565.614 400.043C565.596 428.605 558.129 456.665 543.953 481.439C529.777 506.213 509.386 526.837 484.803 541.266C460.221 555.695 432.303 563.425 403.82 563.69C375.337 563.955 347.281 556.746 322.436 542.777L320.441 543.837L285.214 561.839C314.974 583.504 350.128 596.497 386.791 599.384C423.454 602.27 460.199 594.938 492.966 578.195C525.733 561.453 553.247 535.954 572.467 504.514C591.688 473.075 601.866 436.919 601.878 400.043C601.878 394.902 601.678 389.762 601.299 384.681C600.76 377.527 602.341 370.372 605.844 364.116C609.347 357.86 614.615 352.781 620.987 349.518L638.142 340.757V300.033Z" fill="white"/>
</svg>
