<svg width="24" height="24" viewBox="0 0 24 24" fill="none" xmlns="http://www.w3.org/2000/svg">
<path d="M12 24C18.6274 24 24 18.6274 24 12C24 5.37258 18.6274 0 12 0C5.37258 0 0 5.37258 0 12C0 18.6274 5.37258 24 12 24Z" fill="black"/>
<path d="M3.0498 19.3496C4.84264 17.5888 6.63047 15.821 8.43333 14.0693C10.0459 12.5018 12.3646 12.1412 14.3166 13.1658C14.7613 13.3982 15.187 13.7037 15.5486 14.0522C17.3014 15.7469 19.0311 17.4677 20.7679 19.1804C20.8099 19.2204 20.847 19.2665 20.9511 19.3837C20.0698 19.3837 19.2605 19.3937 18.4522 19.3707C18.335 19.3677 18.2158 19.2024 18.1096 19.0982C16.8597 17.8723 15.6137 16.6434 14.3647 15.4154C12.9625 14.0372 11.0425 14.0352 9.64224 15.4114C8.38325 16.6494 7.13227 17.8953 5.85825 19.1193C5.698 19.2735 5.42557 19.3727 5.19821 19.3877C4.48408 19.4328 3.76594 19.4258 3.0498 19.4398V19.3496V19.3496ZM20.9141 4.56723C20.7578 4.7375 20.6737 4.83566 20.5816 4.9268C18.9189 6.56439 17.2593 8.20399 15.5927 9.83858C13.5394 11.8518 10.4275 11.8417 8.37824 9.82255C6.75919 8.22548 5.13795 6.63062 3.51454 5.03798C3.38734 4.91478 3.23009 4.82163 3.08686 4.71446L3.16198 4.57825C3.95924 4.57825 4.75751 4.56623 5.55377 4.59027C5.67396 4.59327 5.79816 4.74752 5.90232 4.85068C7.14128 6.0656 8.37323 7.28654 9.6132 8.50146C11.0505 9.91269 12.9565 9.90068 14.4008 8.47842C15.6347 7.2625 16.8677 6.03956 18.1187 4.83766C18.2904 4.68498 18.5083 4.59403 18.7376 4.57925C19.4327 4.5472 20.1298 4.56723 20.9141 4.56723V4.56723Z" fill="white"/>
</svg>
