<svg width="800" height="800" fill="none" xmlns="http://www.w3.org/2000/svg">
  <path d="M400 800c220.914 0 400-179.086 400-400S620.914 0 400 0 0 179.086 0 400s179.086 400 400 400Z" fill="#417AE7"/>
  <path fill-rule="evenodd" clip-rule="evenodd" d="M448.665 633.329c-32.444 0-56.088-8.027-70.933-24.033-14.822-16.054-22.244-33.343-22.244-51.87 0-6.767 1.289-12.483 3.889-17.103 2.535-4.585 6.196-8.373 10.6-10.967 4.489-2.66 10-4.013 16.555-4.013 6.556 0 12.089 1.353 16.578 4.013 4.489 2.684 8 6.324 10.6 10.967 2.6 4.62 3.888 10.336 3.888 17.103 0 8.19-1.888 14.863-5.688 20.043-3.33 4.819-8.054 8.379-13.467 10.15 4.489 6.417 11.556 10.967 21.222 13.627 9.667 2.87 19.333 4.293 28.977 4.293 12.963.159 25.676-3.749 36.511-11.223 10.867-7.49 18.889-18.55 24.044-33.133 5.178-14.63 7.778-31.197 7.778-49.723 0-20.137-2.844-37.333-8.533-51.59-5.533-14.443-13.733-25.129-24.6-32.083-10.575-6.857-22.77-10.463-35.2-10.406-8.266 0-18.622 3.546-31.044 10.686l-22.777 11.76v-11.76l102.488-141.118H355.488v146.462c0 12.133 2.578 22.096 7.778 29.936 5.155 7.84 13.111 11.76 23.777 11.76 8.289 0 16.222-2.847 23.822-8.563 7.623-5.738 14.271-12.782 19.667-20.837a7.935 7.935 0 0 1 2.6-3.5 5.093 5.093 0 0 1 3.355-1.306c1.911 0 4.133.98 6.733 2.916 2.358 2.697 3.653 6.233 3.623 9.893a71.411 71.411 0 0 1-1.289 7.49c-5.867 13.534-14 23.87-24.333 31.01-10.12 7.049-22.012 10.77-34.156 10.687-30.71 0-51.932-6.23-63.665-18.714-11.734-12.459-17.6-29.399-17.6-50.772V286.949h-72.466v-27.277h72.444V197.7l-16.534-17.127v-13.906h48.133l18.111 9.613v83.392l187.353-.536 18.667 19.249-114.932 118.673a74.905 74.905 0 0 1 21.733-5.367c12.444 0 26.4 4.107 41.933 12.32 15.711 8.003 27.777 19.063 36.222 33.133 8.466 13.906 13.911 27.276 16.31 40.11a174.96 174.96 0 0 1 3.889 34.206c.163 22.06-4.626 43.851-13.977 63.606-8.986 19.253-23.959 34.711-42.444 43.819-19.209 9.679-40.272 14.619-61.577 14.444Z" fill="#fff"/>
</svg>
