<svg width="24" height="24" viewBox="0 0 24 24" fill="none" xmlns="http://www.w3.org/2000/svg">
<path d="M12 24C18.6274 24 24 18.6274 24 12C24 5.37258 18.6274 0 12 0C5.37258 0 0 5.37258 0 12C0 18.6274 5.37258 24 12 24Z" fill="black"/>
<path d="M16.3646 14.6765C16.943 15.4459 17.5393 16.2332 18.1357 17.0205C16.943 18.4161 15.461 19.3108 13.6719 19.6865C11.684 20.0981 9.80448 19.7939 7.9792 18.7919C9.60569 17.5931 11.196 16.4121 12.8044 15.2312C13.1659 15.5712 13.5093 15.9111 13.8526 16.2332C14.2321 16.5911 14.0876 16.609 14.5755 16.3406C15.2442 15.9648 15.8044 15.4459 16.2381 14.8197C16.2562 14.7839 16.2924 14.7481 16.3104 14.7123C16.2924 14.7123 16.3104 14.7123 16.3646 14.6765V14.6765ZM9.26232 16.2511C8.81051 16.5911 8.39486 16.8952 7.9792 17.2173C7.67197 17.4499 7.36475 17.6646 7.05752 17.8972C6.93102 18.0046 6.84066 18.0046 6.69608 17.8794C5.3226 16.6626 4.45514 15.1596 4.12984 13.3704C3.80454 11.5632 4.0937 9.8455 4.96116 8.21725C4.97923 8.18147 5.01537 8.12779 5.03345 8.092C5.03345 8.07411 5.05152 8.07411 5.08766 8.05622C6.28042 9.61289 7.49125 11.1696 8.68401 12.7262C8.64786 12.7799 8.62979 12.8157 8.59365 12.8515C8.23221 13.2272 7.87076 13.603 7.49125 13.9608C7.38282 14.0682 7.36475 14.1577 7.43703 14.2829C7.81655 14.9986 8.34064 15.5891 8.99123 16.0722C9.0816 16.1259 9.15388 16.1795 9.26232 16.2511V16.2511ZM16.0032 5.1397C15.4249 5.55123 14.8466 5.96276 14.2683 6.35641C13.2743 7.05422 12.2804 7.76993 11.3045 8.46775C11.178 8.55722 11.0876 8.57511 10.9792 8.44986C10.6539 8.1099 10.3105 7.80572 9.9852 7.46576C9.89484 7.37629 9.80448 7.3584 9.67797 7.41208C8.90087 7.80572 8.28642 8.3604 7.7804 9.05821C7.74426 9.094 7.70812 9.14768 7.67197 9.20136C7.38282 8.82561 7.11174 8.48565 6.84065 8.12779C6.5515 7.75204 6.28042 7.37629 6.00934 7.01844C5.91898 6.89319 5.90091 6.80372 6.02741 6.67847C7.41896 5.15759 9.13581 4.26295 11.196 4.04824C12.8225 3.86931 14.3767 4.19138 15.8225 4.96077C15.8767 4.99655 15.9309 5.01445 15.9851 5.05023C15.9851 5.10391 15.9851 5.1218 16.0032 5.1397V5.1397ZM18.949 15.8754C18.5694 15.3923 18.2261 14.9449 17.8827 14.4976C17.0875 13.4598 16.2924 12.4042 15.4791 11.3664C15.3707 11.2232 15.3707 11.1338 15.4972 11.0085C15.8406 10.6686 16.1659 10.3286 16.5092 9.98864C16.5996 9.89917 16.6357 9.80971 16.5634 9.68446C16.1659 8.93296 15.6237 8.30672 14.9189 7.80572C14.8647 7.76993 14.8104 7.71626 14.7382 7.68047C14.7924 7.62679 14.8466 7.59101 14.8827 7.55522C15.5695 7.03633 16.2562 6.53533 16.943 6.01644C17.0514 5.92698 17.1417 5.89119 17.2683 6.01644C18.9851 7.55522 19.9068 9.46975 19.9971 11.7779C20.0333 13.1199 19.7261 14.3903 19.1116 15.5891C19.0574 15.6606 19.0032 15.7501 18.949 15.8754V15.8754Z" fill="white"/>
</svg>
